<?xml version="1.0" encoding="UTF-8"?>
<svg xmlns="http://www.w3.org/2000/svg" width="251" height="54" viewBox="0 0 251 54" fill="none">
  <g clip-path="url(#clip0_2311_3192)">
    <path d="M42.3336 23.916C42.3336 23.916 42.3064 24.081 42.252 24.4109C42.2248 24.7132 42.1975 25.1531 42.1431 25.7029C42.0887 26.2252 42.1431 26.8574 42.1431 27.5172C42.1975 28.1769 42.2792 28.8917 42.4152 29.6064C42.5513 30.2936 42.7146 31.0084 42.9322 31.6406C43.1227 32.2729 43.3676 32.8502 43.5853 33.345C43.7758 33.8398 43.9935 34.2247 44.1568 34.4996C44.2928 34.7744 44.4017 34.9394 44.4017 34.9394L40.2383 37.3585C40.2383 37.3585 40.1295 37.166 39.939 36.8087C39.7485 36.4513 39.4764 35.9565 39.2043 35.3242C38.9322 34.692 38.6056 33.9498 38.388 33.1251C38.0886 32.3004 37.8982 31.4207 37.7349 30.5136C37.5716 29.6064 37.4628 28.6992 37.4084 27.8471C37.4084 26.9949 37.3267 26.1702 37.4084 25.483C37.4628 24.7957 37.5172 24.2184 37.5444 23.8061C37.5988 23.4212 37.6533 23.1738 37.6533 23.1738L42.3336 23.916Z" fill="#078FBE"></path>
    <path d="M67.7213 40.684C67.7213 40.684 67.6397 40.739 67.4492 40.849C67.2587 40.9589 67.0138 41.0964 66.6601 41.2888C66.3336 41.4812 65.9254 41.7011 65.4356 41.8936C65.1907 42.0035 64.9186 42.1135 64.6465 42.2234C64.3743 42.3059 64.075 42.4159 63.7485 42.5258C61.2722 43.3505 57.6531 43.6804 54.3062 42.6908C53.4626 42.4983 52.6463 42.1135 51.8571 41.8111C51.0952 41.3988 50.3333 41.0414 49.653 40.5741C48.2652 39.6944 47.1496 38.6223 46.2788 37.6327C45.4081 36.6431 44.8094 35.7084 44.4284 35.0487C44.0747 34.3614 43.857 33.9766 43.857 33.9766L39.5576 36.1482C39.5576 36.1482 39.8297 36.6431 40.2923 37.5227C40.8093 38.3749 41.5713 39.557 42.6869 40.849C44.891 43.433 48.6462 46.2094 53 47.364C57.3266 48.656 62.007 48.2437 65.1635 47.1716C65.5716 47.0341 65.9526 46.9242 66.3063 46.7867C66.6601 46.6218 66.9866 46.4843 67.3132 46.3469C67.939 46.0995 68.4832 45.8246 68.8914 45.5772C69.3268 45.3298 69.6533 45.1373 69.8982 45.0274C70.1159 44.8899 70.2248 44.8075 70.2248 44.8075L67.7213 40.684Z" fill="#00B3DC"></path>
    <path d="M75.1509 23.3663C75.1509 23.3663 75.0692 23.0364 74.9604 22.4591C74.906 22.1567 74.7971 21.8269 74.6611 21.442C74.525 21.0572 74.4162 20.5898 74.1985 20.15C73.4638 18.2807 72.0216 15.9166 70.0352 14.1023C68.0759 12.2605 65.5997 11.0509 63.6949 10.4462C63.2051 10.3087 62.7697 10.1713 62.3616 10.0888C61.9534 10.0063 61.5996 9.95135 61.3275 9.89637C61.0282 9.8414 60.8105 9.81391 60.6472 9.81391C60.484 9.81391 60.4023 9.78642 60.4023 9.78642L60.8649 4.94824C60.8649 4.94824 60.9738 4.94824 61.1643 4.97573C61.3547 4.97573 61.6541 5.03071 62.035 5.08569C62.416 5.14067 62.8514 5.22314 63.3684 5.3331C63.8854 5.44306 64.4568 5.63548 65.0827 5.80042C67.5589 6.54264 70.7154 8.10955 73.2461 10.5011C75.8039 12.8653 77.6815 15.8891 78.6339 18.3082C78.906 18.913 79.0693 19.4903 79.2326 19.9851C79.3958 20.4799 79.5319 20.9197 79.6135 21.3046C79.7768 22.0468 79.8584 22.4866 79.8584 22.4866L75.1509 23.3663Z" fill="#1E669E"></path>
    <path d="M79.8032 42.3613C80.7284 41.0693 81.4359 39.9422 81.8441 39.0901C82.2523 38.2654 82.4972 37.7981 82.4972 37.7981L78.1706 35.7363C78.1706 35.7363 77.9801 36.1212 77.6263 36.8084C77.2998 37.4957 76.7012 38.4028 75.9664 39.4749C75.4494 40.1896 74.8236 40.9319 74.0889 41.6741L77.191 45.3852C78.225 44.3681 79.123 43.351 79.8032 42.3613Z" fill="#3EB987"></path>
    <path d="M74.0892 41.6748C72.647 43.1318 70.8238 44.5887 68.8102 45.6608C65.7625 47.3377 62.3067 48.0524 59.7488 48.1624C58.4427 48.2173 57.3814 48.1349 56.6195 48.0799C56.2385 48.0524 55.9392 48.0249 55.7487 47.9699C55.5583 47.9424 55.4494 47.9149 55.4494 47.9149L54.6875 52.6981C54.6875 52.6981 54.8236 52.7256 55.0685 52.7531C55.3134 52.8081 55.6671 52.8631 56.1297 52.8906C57.0549 52.973 58.361 53.083 59.9665 53.0005C63.123 52.8906 67.3408 52.0109 71.0687 49.9492C73.4089 48.7121 75.5314 47.0903 77.2185 45.4134L74.0892 41.6748Z" fill="#7DCAAC"></path>
    <path d="M73.9531 33.4543C73.9531 33.4543 74.198 32.822 74.579 31.8874C74.715 31.3926 74.8783 30.8428 75.0416 30.2105C75.1232 29.5782 75.3137 28.9185 75.3409 28.2587C75.3953 27.5715 75.477 26.9117 75.4225 26.2795C75.4225 25.9496 75.4225 25.6472 75.3953 25.3723C75.3681 25.0699 75.3409 24.8225 75.3137 24.5476C75.2593 24.0528 75.2048 23.613 75.1232 23.3381C75.0688 23.0357 75.0144 22.8708 75.0144 22.8708L79.6947 21.8262C79.6947 21.8262 79.7491 22.0461 79.8308 22.4035C79.9124 22.7608 79.994 23.3106 80.0757 23.9704C80.1029 24.3002 80.1573 24.6576 80.1845 25.015C80.1845 25.3998 80.2117 25.7847 80.2117 26.197C80.2661 27.0217 80.1573 27.8739 80.1029 28.7536C80.0212 29.6332 79.8308 30.4854 79.6947 31.2826C79.477 32.0798 79.2865 32.7945 79.0961 33.4268C78.6335 34.6363 78.3069 35.4335 78.3069 35.4335L73.9531 33.4543Z" fill="#078FBE"></path>
    <path d="M57.0005 0.0274896C54.2249 0.219917 51.5038 0.879668 49.1092 1.8418C46.6874 2.77645 44.6193 4.12344 42.9322 5.33299C42.1159 5.99274 41.3812 6.59751 40.7553 7.20228C40.1567 7.80705 39.6396 8.32936 39.2315 8.79668C38.4423 9.73133 38.0342 10.2811 38.0342 10.2811L41.8438 13.25C41.8438 13.25 42.1975 12.8102 42.8234 12.0405C43.1771 11.6831 43.5853 11.2433 44.0751 10.7484C44.5649 10.2536 45.1908 9.78631 45.8438 9.23651C47.2316 8.24689 48.8915 7.1473 50.8779 6.37759C52.8643 5.60788 55.0685 5.05809 57.327 4.89315C57.5991 4.86566 57.8984 4.89315 58.1706 4.86566L58.0345 0C57.6807 0.0274896 57.3542 0 57.0005 0.0274896Z" fill="#09B39D"></path>
    <path d="M76.8372 7.25702C76.5923 7.0371 76.2658 6.67973 75.776 6.29488C75.3134 5.91002 74.7419 5.41521 74.0616 4.9204C73.3542 4.45307 72.565 3.90328 71.6671 3.38098C69.8439 2.36386 67.6398 1.37424 65.1091 0.741974C62.8778 0.192182 60.456 -0.0827146 58.0342 -0.000245688L58.1974 4.83793C60.1839 4.78295 62.1431 5.00287 63.939 5.47019C66.0071 5.965 67.8303 6.81718 69.2997 7.61438C70.0344 8.02673 70.6874 8.49405 71.2589 8.8789C71.8303 9.29125 72.2657 9.6761 72.6739 10.006C73.0548 10.3084 73.3269 10.6108 73.5174 10.7757C73.7079 10.9681 73.8167 11.0506 73.8167 11.0506L77.1909 7.58689C77.1909 7.61438 77.0821 7.47693 76.8372 7.25702Z" fill="#49BFAE"></path>
    <path d="M37.7074 30.4863C37.7074 30.4863 37.7618 30.7612 37.8707 31.256C37.9251 31.5034 37.9795 31.8058 38.0612 32.1357C38.17 32.4656 38.2789 32.8504 38.4149 33.2628C38.6326 34.0875 39.068 34.9946 39.4762 35.9843C39.966 36.9189 40.5102 37.936 41.1633 38.8707C42.4694 40.74 44.0477 42.4168 45.4082 43.4614C46.0613 44.0112 46.6599 44.3961 47.0681 44.671C47.4763 44.9459 47.7212 45.1108 47.7212 45.1108L45.245 49.2617C45.245 49.2617 44.9456 49.0693 44.4558 48.7394C43.9388 48.4096 43.2041 47.9422 42.415 47.255C40.7551 45.9905 38.7959 43.9563 37.2176 41.6471C36.4013 40.52 35.7482 39.283 35.1496 38.101C34.6325 36.8914 34.1155 35.7918 33.8434 34.7747C33.6802 34.2799 33.5441 33.8126 33.408 33.4002C33.3264 32.9879 33.2176 32.6305 33.1631 32.3281C33.0271 31.7234 32.9727 31.3935 32.9727 31.3935L37.7074 30.4863Z" fill="#1E669E"></path>
    <path d="M77.4096 15.7514C77.4096 15.7514 77.3552 15.669 77.2736 15.504C77.1919 15.3391 77.0831 15.1192 76.8926 14.8718C76.5389 14.3769 76.1307 13.6897 75.6409 13.0849C74.6613 11.8204 73.4912 10.7208 73.4912 10.7208L76.7838 7.20215C76.7838 7.20215 78.226 8.54914 79.3961 10.0886C80.0219 10.8308 80.5117 11.683 80.9471 12.2877C81.1648 12.5901 81.3009 12.865 81.4097 13.0574C81.5185 13.2499 81.573 13.3598 81.573 13.3598L77.4096 15.7514Z" fill="#49BFAE"></path>
    <path d="M52.2935 23.7511C52.3207 23.7511 52.1575 23.9985 52.0486 24.4384C51.8854 24.8782 51.7765 25.538 51.7493 26.3352C51.7221 27.1324 51.8582 28.0945 52.2119 29.0291C52.5656 29.9638 53.1643 30.8984 53.9262 31.6132C54.6609 32.3554 55.6133 32.9327 56.5657 33.2351C57.5181 33.5374 58.4433 33.6474 59.2324 33.5924C60.0215 33.5099 60.6746 33.345 61.11 33.2076C61.3549 33.1526 61.491 33.0426 61.5998 33.0151C61.7086 32.9602 61.7903 32.9327 61.7903 32.9327L63.8311 37.331C63.8311 37.331 63.7223 37.386 63.5318 37.4685C63.3413 37.5234 63.0692 37.7159 62.6883 37.7983C61.9536 38.0732 60.8651 38.3481 59.5317 38.4581C58.1984 38.5405 56.6201 38.4031 55.0419 37.8808C53.4364 37.3585 51.8582 36.3964 50.6064 35.1593C49.3275 33.9223 48.3207 32.3829 47.722 30.7885C47.1234 29.1941 46.9057 27.5997 46.9329 26.2527C46.9873 24.9057 47.205 23.8061 47.4499 23.0364C47.5316 22.6515 47.6676 22.3766 47.7492 22.1842C47.8309 21.9918 47.8581 21.8818 47.8581 21.8818L52.2935 23.7511Z" fill="#48C7EB"></path>
    <path d="M64.484 30.7334C63.9942 31.4481 63.1234 32.2453 62.0894 32.7951C61.0826 33.3724 59.8853 33.5923 59.0145 33.6198C58.1438 33.6748 57.5995 33.5099 57.5995 33.5099L56.7832 38.293C56.7832 38.293 57.7356 38.513 59.205 38.458C60.6472 38.403 62.6336 38.0456 64.3479 37.0835C66.0895 36.1763 67.5317 34.8019 68.3752 33.5923C68.7562 32.9601 69.1099 32.4652 69.3004 32.0804C69.4909 31.6955 69.6269 31.4756 69.6269 31.4756" fill="#00B3DC"></path>
    <path d="M65.1366 23.366C65.1366 23.366 65.0278 23.1736 64.8373 22.8437C64.7556 22.6787 64.5924 22.5138 64.4563 22.2664C64.293 22.074 64.1026 21.8266 63.8849 21.5792C63.4495 21.1118 62.8508 20.6445 62.1434 20.2597C61.4359 19.8473 60.5923 19.5449 59.7488 19.435C58.0617 19.1876 56.2929 19.6549 55.2045 20.3421C54.9051 20.4796 54.6874 20.6995 54.4698 20.8095C54.2793 21.0019 54.0888 21.1393 53.9527 21.2493C53.7078 21.5242 53.5446 21.6616 53.5446 21.6616L50.0615 18.4179C50.0615 18.4179 50.3064 18.1704 50.7418 17.7031C50.9867 17.5107 51.286 17.2633 51.6126 16.9609C51.9935 16.7135 52.3745 16.4111 52.8371 16.1362C54.6874 15.0091 57.6263 14.1845 60.4835 14.6243C63.3679 14.9817 65.9529 16.6585 67.3951 18.2254C67.7489 18.6378 68.0754 19.0226 68.3475 19.3525C68.5924 19.7374 68.8101 20.0397 68.9734 20.3146C69.2727 20.8644 69.4632 21.1943 69.4632 21.1943L65.1366 23.366Z" fill="#1E669E"></path>
    <path d="M63.6396 21.304C63.6396 21.304 64.592 22.1836 65.1635 23.4207C65.4356 24.0254 65.6261 24.6577 65.7077 25.1525C65.7893 25.3999 65.7621 25.5924 65.7893 25.7298C65.8166 25.8673 65.8166 25.9497 65.8166 25.9497L70.6058 25.5649C70.6058 25.5649 70.5785 25.4274 70.5513 25.18C70.4969 24.9326 70.5241 24.6027 70.4153 24.1904C70.3609 23.8605 70.2792 23.5031 70.1704 23.1183C70.0071 22.541 69.7622 21.9087 69.4901 21.304C68.9731 20.3143 68.4288 19.3522 67.8574 18.7749C67.6125 18.4451 67.3676 18.1976 67.2043 18.0327C67.0411 17.8678 66.9322 17.7578 66.9322 17.7578L63.6396 21.304Z" fill="#2D387B"></path>
    <path d="M64.8654 10.8583C64.8654 10.8583 64.7021 10.8034 64.43 10.6934C64.1579 10.5559 63.7497 10.4735 63.2327 10.3085C62.9878 10.2261 62.7157 10.1711 62.4436 10.0886C62.1443 10.0336 61.8449 9.97867 61.5184 9.92369C60.8925 9.78624 60.185 9.75875 59.5048 9.70377C58.8245 9.67628 58.117 9.70377 57.4911 9.73126C56.8653 9.81373 56.2394 9.84122 55.7496 9.97867C55.2326 10.0886 54.8244 10.1711 54.5251 10.2536C54.2258 10.336 54.0625 10.391 54.0625 10.391L55.4231 15.0368C55.4231 15.0368 55.5319 14.9818 55.7496 14.9268C55.9673 14.8718 56.2666 14.8168 56.6204 14.7344C56.9741 14.6519 57.4095 14.6244 57.8721 14.5694C58.3347 14.5694 58.8245 14.5145 59.3143 14.5419C59.8041 14.5969 60.2939 14.5969 60.7293 14.7069C60.947 14.7344 61.1647 14.7893 61.3823 14.8168C61.5728 14.8718 61.7633 14.9268 61.9538 14.9818C62.3075 15.0917 62.6069 15.1467 62.7973 15.2567C62.9878 15.3391 63.1239 15.3941 63.1239 15.3941L64.8654 10.8583Z" fill="#2D387B"></path>
    <path d="M50.2251 40.9326L52.7014 36.7816C52.7014 36.7816 52.3476 36.5342 51.7217 36.1219C51.1503 35.6546 50.2795 34.9948 49.5176 33.9502C48.7285 32.9331 47.9666 31.5861 47.504 30.0467C47.0142 28.5073 46.8509 26.7479 47.0686 25.0161C47.2863 23.3117 47.9122 21.6349 48.7557 20.2604C49.5993 18.8859 50.6605 17.7863 51.6673 16.9891C52.7014 16.2194 53.681 15.7246 54.3612 15.4497C54.6878 15.2848 54.9871 15.2298 55.1776 15.1473C55.3681 15.0923 55.4769 15.0373 55.4769 15.0373L54.1163 10.3916C54.1163 10.3916 53.9803 10.4466 53.7082 10.529C53.4361 10.6115 53.0279 10.7215 52.5653 10.9414C51.5857 11.3262 50.2251 12.0135 48.7829 13.1131C47.3407 14.2127 45.8441 15.7521 44.674 17.7038C43.4767 19.6556 42.6332 21.9647 42.3338 24.3838C42.0345 26.8029 42.2794 29.277 42.9597 31.4487C43.6128 33.6203 44.7012 35.5171 45.8169 36.9466C46.9053 38.4035 48.1299 39.3382 48.9462 40.0254C49.7081 40.6027 50.2251 40.9326 50.2251 40.9326Z" fill="#2D387B"></path>
    <path d="M70.6869 25.0983C70.6869 25.0983 71.1767 28.3421 70.8774 28.617H57.9248V24.3286L70.4148 24.0537L70.6869 25.0983Z" fill="#2D387B"></path>
  </g>
  <path d="M106.106 10.163V13.8113H113.403V16.6432H106.106V20.5845H114.13V23.4399H102.763V7.30762H113.911V10.163H106.106Z" fill="#2D387B"></path>
  <path d="M127.871 8.29135C128.912 9.18976 129.433 10.5074 129.433 12.2443H126.058C126.079 11.8866 126.025 11.5284 125.901 11.1923C125.777 10.8563 125.584 10.5495 125.336 10.2913C124.756 9.79994 124.008 9.55339 123.25 9.6038C122.617 9.57264 121.991 9.74216 121.461 10.0882C121.249 10.2276 121.076 10.4181 120.957 10.6419C120.839 10.8658 120.778 11.1159 120.781 11.3694C120.765 11.7323 120.887 12.0879 121.121 12.3654C121.417 12.6692 121.781 12.8981 122.183 13.0334C122.873 13.2859 123.577 13.4946 124.293 13.6584C125.327 13.9041 126.341 14.2253 127.328 14.6193C128.078 14.9294 128.731 15.4353 129.218 16.084C129.747 16.8551 130.007 17.7792 129.957 18.7129C129.978 19.6627 129.705 20.5957 129.175 21.3847C128.618 22.1788 127.848 22.799 126.953 23.1737C125.915 23.6143 124.795 23.8313 123.668 23.8104C121.629 23.8104 120.031 23.3195 118.875 22.3377C117.719 21.356 117.142 19.9589 117.145 18.1465H120.586C120.555 18.5503 120.608 18.9561 120.743 19.3382C120.877 19.7202 121.09 20.0699 121.367 20.3652C121.898 20.8651 122.676 21.1112 123.711 21.1112C124.428 21.1479 125.139 20.9535 125.738 20.5566C125.98 20.3893 126.176 20.164 126.309 19.9013C126.441 19.6385 126.505 19.3468 126.496 19.0527C126.517 18.664 126.396 18.2809 126.156 17.9746C125.892 17.685 125.557 17.4695 125.183 17.3496C124.761 17.2012 124.086 17.0059 123.168 16.7637C122.105 16.5101 121.061 16.1838 120.043 15.7872C119.29 15.4837 118.63 14.988 118.129 14.3497C117.586 13.5891 117.318 12.6658 117.371 11.7326C117.355 10.8446 117.616 9.97351 118.117 9.24053C118.647 8.49 119.378 7.90491 120.226 7.55309C121.206 7.13645 122.263 6.93146 123.328 6.95154C125.325 6.95414 126.84 7.40075 127.871 8.29135Z" fill="#2D387B"></path>
  <path d="M145.467 8.38163C146.055 8.8682 146.537 9.46991 146.884 10.1497C147.231 10.8295 147.434 11.5731 147.483 12.3346H143.901C143.798 11.6214 143.435 10.9716 142.882 10.5105C142.263 10.0684 141.512 9.84948 140.753 9.8894C140.157 9.86778 139.565 9.99164 139.028 10.2503C138.491 10.5089 138.025 10.8945 137.671 11.3737C136.918 12.3607 136.541 13.7161 136.538 15.44C136.538 17.2095 136.909 18.5961 137.647 19.6117C137.987 20.0968 138.443 20.4894 138.973 20.754C139.503 21.0186 140.09 21.1469 140.682 21.1273C141.846 21.1273 142.738 20.7992 143.358 20.143C143.978 19.4867 144.296 18.5389 144.311 17.2993H140.479V14.565H147.413V23.4397H144.604V21.6937H144.557C144.068 22.3634 143.407 22.8885 142.643 23.2132C141.76 23.5906 140.807 23.7757 139.847 23.7561C138.579 23.7868 137.331 23.4357 136.265 22.7483C135.22 22.0366 134.406 21.0363 133.921 19.8695C133.339 18.4669 133.057 16.9581 133.093 15.44C133.056 13.8787 133.374 12.3294 134.023 10.9089C134.592 9.68033 135.521 8.6534 136.686 7.96368C137.926 7.2664 139.331 6.91812 140.753 6.9559C142.719 6.9559 144.29 7.43114 145.467 8.38163Z" fill="#2D387B"></path>
  <path d="M108.28 38.9971H106.744L105.084 36.1846H103.762V38.9971H102.441V31.4632H105.75C107.241 31.4632 108.224 32.4233 108.224 33.8239C108.224 35.1567 107.343 35.8909 106.428 36.0378L108.28 38.9971ZM105.581 35.0212C106.326 35.0212 106.868 34.5468 106.868 33.8126C106.868 33.0897 106.326 32.6266 105.581 32.6266H103.762V35.0212H105.581ZM111.924 39.1326C110.275 39.1326 109.067 37.9918 109.067 36.2637C109.067 34.6823 110.219 33.406 111.834 33.406C113.472 33.406 114.511 34.6485 114.511 36.3653V36.659H110.309C110.4 37.4722 111.009 38.1612 112.037 38.1612C112.579 38.1612 113.201 37.9466 113.596 37.5513L114.138 38.3307C113.585 38.8502 112.783 39.1326 111.924 39.1326ZM113.37 35.8119C113.336 35.168 112.896 34.3774 111.823 34.3774C110.817 34.3774 110.343 35.1567 110.298 35.8119H113.37ZM118.844 39.1326C118.155 39.1326 117.545 38.8163 117.093 38.2403V41.0754H115.907V33.5415H117.093V34.287C117.5 33.7449 118.133 33.406 118.844 33.406C120.256 33.406 121.261 34.4677 121.261 36.2637C121.261 38.0596 120.256 39.1326 118.844 39.1326ZM118.494 38.0822C119.432 38.0822 120.041 37.3254 120.041 36.2637C120.041 35.2019 119.432 34.4564 118.494 34.4564C117.941 34.4564 117.365 34.7727 117.093 35.1793V37.3367C117.353 37.7433 117.941 38.0822 118.494 38.0822ZM125.148 39.1326C123.409 39.1326 122.347 37.8224 122.347 36.2637C122.347 34.6936 123.409 33.406 125.148 33.406C126.887 33.406 127.949 34.6936 127.949 36.2637C127.949 37.8224 126.887 39.1326 125.148 39.1326ZM125.148 38.0822C126.165 38.0822 126.718 37.235 126.718 36.2637C126.718 35.3036 126.165 34.4564 125.148 34.4564C124.143 34.4564 123.578 35.3036 123.578 36.2637C123.578 37.235 124.143 38.0822 125.148 38.0822ZM130.572 38.9971H129.386V33.5415H130.572V34.3322C130.99 33.8126 131.645 33.406 132.345 33.406V34.5807C132.244 34.5581 132.131 34.5468 131.984 34.5468C131.476 34.5468 130.809 34.8857 130.572 35.281V38.9971ZM135.177 39.1326C134.251 39.1326 133.776 38.6356 133.776 37.7207V34.5694H132.873V33.5415H133.776V32.0506H134.962V33.5415H136.069V34.5694H134.962V37.4271C134.962 37.7998 135.143 38.0822 135.482 38.0822C135.708 38.0822 135.911 37.9805 136.001 37.8789L136.284 38.7825C136.069 38.9745 135.719 39.1326 135.177 39.1326ZM137.959 32.8751C137.553 32.8751 137.225 32.5476 137.225 32.141C137.225 31.7343 137.553 31.4068 137.959 31.4068C138.366 31.4068 138.693 31.7343 138.693 32.141C138.693 32.5476 138.366 32.8751 137.959 32.8751ZM138.547 38.9971H137.361V33.5415H138.547V38.9971ZM145.19 38.9971H144.004V35.586C144.004 34.7275 143.564 34.4564 142.898 34.4564C142.299 34.4564 141.779 34.8179 141.497 35.1793V38.9971H140.311V33.5415H141.497V34.2757C141.858 33.8465 142.57 33.406 143.428 33.406C144.603 33.406 145.19 34.0385 145.19 35.1567V38.9971ZM149.182 41.2109C148.256 41.2109 147.567 41.0076 146.889 40.3977L147.442 39.5392C147.894 40.0475 148.459 40.2395 149.182 40.2395C149.961 40.2395 150.797 39.8781 150.797 38.7147V38.0935C150.379 38.6469 149.758 39.0084 149.046 39.0084C147.657 39.0084 146.629 38.0031 146.629 36.2072C146.629 34.4339 147.634 33.406 149.046 33.406C149.735 33.406 150.356 33.711 150.797 34.2983V33.5415H151.983V38.7147C151.983 40.68 150.515 41.2109 149.182 41.2109ZM149.396 37.9466C149.95 37.9466 150.526 37.6191 150.797 37.2237V35.1793C150.526 34.784 149.95 34.4564 149.396 34.4564C148.448 34.4564 147.849 35.1567 147.849 36.2072C147.849 37.2576 148.448 37.9466 149.396 37.9466ZM158.239 38.9971H156.917V31.4632H158.239V38.9971ZM164.912 38.9971H163.726V35.586C163.726 34.7275 163.285 34.4564 162.619 34.4564C162.02 34.4564 161.501 34.8179 161.218 35.1793V38.9971H160.032V33.5415H161.218V34.2757C161.58 33.8465 162.291 33.406 163.15 33.406C164.325 33.406 164.912 34.0385 164.912 35.1567V38.9971ZM168.327 39.1326C167.401 39.1326 166.926 38.6356 166.926 37.7207V34.5694H166.023V33.5415H166.926V32.0506H168.112V33.5415H169.219V34.5694H168.112V37.4271C168.112 37.7998 168.293 38.0822 168.632 38.0822C168.858 38.0822 169.061 37.9805 169.152 37.8789L169.434 38.7825C169.219 38.9745 168.869 39.1326 168.327 39.1326ZM173.041 39.1326C171.392 39.1326 170.183 37.9918 170.183 36.2637C170.183 34.6823 171.335 33.406 172.951 33.406C174.588 33.406 175.627 34.6485 175.627 36.3653V36.659H171.426C171.516 37.4722 172.126 38.1612 173.154 38.1612C173.696 38.1612 174.317 37.9466 174.713 37.5513L175.255 38.3307C174.701 38.8502 173.899 39.1326 173.041 39.1326ZM174.487 35.8119C174.453 35.168 174.012 34.3774 172.939 34.3774C171.934 34.3774 171.46 35.1567 171.414 35.8119H174.487ZM178.21 38.9971H177.024V31.4632H178.21V38.9971ZM181.16 38.9971H179.974V31.4632H181.16V38.9971ZM183.523 32.8751C183.117 32.8751 182.789 32.5476 182.789 32.141C182.789 31.7343 183.117 31.4068 183.523 31.4068C183.93 31.4068 184.258 31.7343 184.258 32.141C184.258 32.5476 183.93 32.8751 183.523 32.8751ZM184.111 38.9971H182.925V33.5415H184.111V38.9971ZM188.1 41.2109C187.174 41.2109 186.485 41.0076 185.807 40.3977L186.361 39.5392C186.813 40.0475 187.377 40.2395 188.1 40.2395C188.88 40.2395 189.716 39.8781 189.716 38.7147V38.0935C189.298 38.6469 188.676 39.0084 187.965 39.0084C186.575 39.0084 185.548 38.0031 185.548 36.2072C185.548 34.4339 186.553 33.406 187.965 33.406C188.654 33.406 189.275 33.711 189.716 34.2983V33.5415H190.902V38.7147C190.902 40.68 189.433 41.2109 188.1 41.2109ZM188.315 37.9466C188.868 37.9466 189.444 37.6191 189.716 37.2237V35.1793C189.444 34.784 188.868 34.4564 188.315 34.4564C187.366 34.4564 186.768 35.1567 186.768 36.2072C186.768 37.2576 187.366 37.9466 188.315 37.9466ZM195.194 39.1326C193.545 39.1326 192.337 37.9918 192.337 36.2637C192.337 34.6823 193.489 33.406 195.104 33.406C196.742 33.406 197.781 34.6485 197.781 36.3653V36.659H193.579C193.669 37.4722 194.279 38.1612 195.307 38.1612C195.849 38.1612 196.471 37.9466 196.866 37.5513L197.408 38.3307C196.855 38.8502 196.053 39.1326 195.194 39.1326ZM196.64 35.8119C196.606 35.168 196.166 34.3774 195.093 34.3774C194.087 34.3774 193.613 35.1567 193.568 35.8119H196.64ZM204.057 38.9971H202.871V35.586C202.871 34.7275 202.43 34.4564 201.764 34.4564C201.165 34.4564 200.646 34.8179 200.363 35.1793V38.9971H199.177V33.5415H200.363V34.2757C200.725 33.8465 201.436 33.406 202.295 33.406C203.469 33.406 204.057 34.0385 204.057 35.1567V38.9971ZM208.308 39.1326C206.659 39.1326 205.495 37.9127 205.495 36.2637C205.495 34.6146 206.659 33.406 208.308 33.406C209.381 33.406 210.013 33.8578 210.397 34.3774L209.618 35.089C209.313 34.6598 208.895 34.4564 208.364 34.4564C207.382 34.4564 206.715 35.2019 206.715 36.2637C206.715 37.3254 207.382 38.0822 208.364 38.0822C208.895 38.0822 209.313 37.8563 209.618 37.4271L210.397 38.1612C210.013 38.6695 209.381 39.1326 208.308 39.1326ZM214.204 39.1326C212.555 39.1326 211.347 37.9918 211.347 36.2637C211.347 34.6823 212.499 33.406 214.114 33.406C215.752 33.406 216.791 34.6485 216.791 36.3653V36.659H212.589C212.68 37.4722 213.289 38.1612 214.317 38.1612C214.86 38.1612 215.481 37.9466 215.876 37.5513L216.418 38.3307C215.865 38.8502 215.063 39.1326 214.204 39.1326ZM215.65 35.8119C215.616 35.168 215.176 34.3774 214.103 34.3774C213.097 34.3774 212.623 35.1567 212.578 35.8119H215.65Z" fill="#2D387B"></path>
  <defs>
    <clipPath id="clip0_2311_3192">
      <rect width="49.5246" height="53" fill="white" transform="translate(33)"></rect>
    </clipPath>
  </defs>
</svg>
