<svg width="212" height="61" viewBox="0 0 212 61" fill="none" xmlns="http://www.w3.org/2000/svg">
<g clip-path="url(#clip0_19_10198)">
<path d="M10.7427 27.5261C10.7427 27.5261 10.7113 27.716 10.6487 28.0956C10.6174 28.4437 10.5861 28.9499 10.5234 29.5827C10.4608 30.1838 10.5234 30.9115 10.5234 31.6708C10.5861 32.4302 10.68 33.2528 10.8366 34.0754C10.9932 34.8664 11.1811 35.689 11.4317 36.4167C11.6509 37.1444 11.9328 37.8088 12.1833 38.3783C12.4026 38.9478 12.6531 39.3908 12.841 39.7071C12.9976 40.0235 13.1229 40.2134 13.1229 40.2134L8.33113 42.9976C8.33113 42.9976 8.20585 42.7761 7.98662 42.3648C7.76739 41.9535 7.4542 41.384 7.14102 40.6563C6.82783 39.9286 6.45201 39.0744 6.20146 38.1252C5.85695 37.176 5.63772 36.1636 5.44981 35.1195C5.2619 34.0754 5.13662 33.0313 5.07398 32.0505C5.07398 31.0697 4.98003 30.1205 5.07398 29.3295C5.13662 28.5386 5.19926 27.8742 5.23058 27.3996C5.29322 26.9566 5.35585 26.6719 5.35585 26.6719L10.7427 27.5261Z" fill="#078FBE"/>
<path d="M39.9627 46.8254C39.9627 46.8254 39.8687 46.8887 39.6495 47.0152C39.4303 47.1418 39.1484 47.3 38.7413 47.5214C38.3654 47.7429 37.8957 47.996 37.3319 48.2175C37.0501 48.3441 36.7369 48.4706 36.4237 48.5972C36.1105 48.6921 35.766 48.8186 35.3902 48.9452C32.5402 49.8944 28.3748 50.274 24.5226 49.135C23.5517 48.9136 22.6121 48.4706 21.7039 48.1226C20.827 47.648 19.95 47.2367 19.1671 46.6988C17.5698 45.6864 16.2858 44.4525 15.2836 43.3135C14.2814 42.1744 13.5924 41.0987 13.1539 40.3394C12.7468 39.5484 12.4962 39.1055 12.4962 39.1055L7.54785 41.6049C7.54785 41.6049 7.86104 42.1745 8.39346 43.1869C8.98851 44.1677 9.86543 45.5282 11.1495 47.0152C13.6863 49.9893 18.0083 53.1848 23.0193 54.5137C27.999 56.0007 33.3858 55.5261 37.0187 54.2922C37.4885 54.134 37.927 54.0074 38.3341 53.8492C38.7413 53.6594 39.1171 53.5012 39.4929 53.343C40.2132 53.0583 40.8396 52.7419 41.3094 52.4571C41.8105 52.1724 42.1863 51.9509 42.4682 51.8243C42.7187 51.6661 42.844 51.5712 42.844 51.5712L39.9627 46.8254Z" fill="#00B3DC"/>
<path d="M48.5128 26.8934C48.5128 26.8934 48.4189 26.5138 48.2936 25.8494C48.2309 25.5013 48.1057 25.1217 47.9491 24.6787C47.7925 24.2358 47.6672 23.6979 47.4167 23.1917C46.5711 21.0402 44.9112 18.3193 42.6249 16.2311C40.37 14.1113 37.52 12.7192 35.3276 12.0231C34.7639 11.8649 34.2628 11.7067 33.793 11.6118C33.3233 11.5169 32.9161 11.4536 32.6029 11.3903C32.2584 11.3271 32.0079 11.2954 31.82 11.2954C31.632 11.2954 31.5381 11.2638 31.5381 11.2638L32.0705 5.69531C32.0705 5.69531 32.1958 5.69531 32.415 5.72695C32.6342 5.72695 32.9787 5.79023 33.4172 5.85351C33.8557 5.91679 34.3568 6.0117 34.9518 6.13826C35.5469 6.26481 36.2046 6.48629 36.9249 6.67612C39.7749 7.53037 43.4079 9.3338 46.3205 12.0864C49.2645 14.8073 51.4254 18.2876 52.5216 21.0719C52.8348 21.7679 53.0227 22.4323 53.2106 23.0018C53.3985 23.5713 53.5551 24.0776 53.6491 24.5205C53.837 25.3748 53.9309 25.881 53.9309 25.881L48.5128 26.8934Z" fill="#1E669E"/>
<path d="M53.8679 48.7559C54.9328 47.2688 55.7471 45.9716 56.2168 44.9908C56.6866 44.0416 56.9685 43.5038 56.9685 43.5038L51.9888 41.1309C51.9888 41.1309 51.7696 41.5738 51.3624 42.3648C50.9866 43.1558 50.2976 44.1998 49.452 45.4338C48.8569 46.2564 48.1366 47.1106 47.291 47.9649L50.8613 52.2362C52.0515 51.0655 53.085 49.8949 53.8679 48.7559Z" fill="#3EB987"/>
<path d="M47.2912 47.9648C45.6313 49.6417 43.5329 51.3186 41.2153 52.5525C37.7076 54.4825 33.7302 55.3051 30.7862 55.4316C29.2829 55.4949 28.0615 55.4 27.1846 55.3367C26.7461 55.3051 26.4016 55.2735 26.1824 55.2102C25.9631 55.1785 25.8379 55.1469 25.8379 55.1469L24.9609 60.6521C24.9609 60.6521 25.1175 60.6837 25.3994 60.7154C25.6813 60.7786 26.0884 60.8419 26.6208 60.8736C27.6857 60.9685 29.189 61.095 31.0368 61.0001C34.6697 60.8736 39.5241 59.8611 43.8148 57.4882C46.5082 56.0644 48.951 54.1977 50.8928 52.2677L47.2912 47.9648Z" fill="#7DCAAC"/>
<path d="M47.1348 38.5044C47.1348 38.5044 47.4166 37.7767 47.8551 36.701C48.0117 36.1315 48.1996 35.4987 48.3875 34.771C48.4815 34.0433 48.7007 33.284 48.732 32.5246C48.7947 31.7336 48.8886 30.9743 48.826 30.2466C48.826 29.8669 48.826 29.5189 48.7947 29.2025C48.7633 28.8545 48.732 28.5697 48.7007 28.2534C48.6381 27.6839 48.5754 27.1776 48.4815 26.8612C48.4188 26.5132 48.3562 26.3234 48.3562 26.3234L53.743 25.1211C53.743 25.1211 53.8056 25.3742 53.8996 25.7855C53.9936 26.1968 54.0875 26.8296 54.1815 27.5889C54.2128 27.9686 54.2754 28.3799 54.3067 28.7912C54.3067 29.2342 54.3381 29.6771 54.3381 30.1517C54.4007 31.1009 54.2754 32.0817 54.2128 33.0941C54.1188 34.1066 53.8996 35.0874 53.743 36.0049C53.4925 36.9224 53.2732 37.745 53.054 38.4727C52.5216 39.8649 52.1458 40.7824 52.1458 40.7824L47.1348 38.5044Z" fill="#078FBE"/>
<path d="M27.6231 0.031639C24.4286 0.253112 21.2967 1.01245 18.5406 2.11981C15.7533 3.19554 13.3731 4.74585 11.4313 6.13797C10.4917 6.8973 9.64614 7.59336 8.92581 8.28942C8.2368 8.98548 7.64175 9.58662 7.17197 10.1245C6.26373 11.2002 5.79395 11.833 5.79395 11.833L10.1786 15.25C10.1786 15.25 10.5857 14.7438 11.306 13.8579C11.7132 13.4466 12.183 12.9404 12.7467 12.3708C13.3104 11.8013 14.0308 11.2635 14.7824 10.6307C16.3797 9.4917 18.2901 8.22614 20.5764 7.34025C22.8626 6.45436 25.3994 5.82158 27.9989 5.63174C28.3121 5.6001 28.6566 5.63174 28.9698 5.6001L28.8132 0C28.406 0.031639 28.0302 0 27.6231 0.031639Z" fill="#09B39D"/>
<path d="M50.4547 8.35267C50.1728 8.09956 49.797 7.68825 49.2333 7.24531C48.7008 6.80236 48.0432 6.23286 47.2602 5.66336C46.4459 5.12549 45.5377 4.49271 44.5041 3.89157C42.4058 2.72093 39.869 1.58193 36.9563 0.854228C34.3882 0.221448 31.6008 -0.0949418 28.8135 -2.48142e-05L29.0014 5.56844C31.2877 5.50516 33.5426 5.75827 35.6096 6.29614C37.9899 6.86564 40.0882 7.84645 41.7794 8.76398C42.625 9.23857 43.3767 9.77643 44.0344 10.2194C44.6921 10.694 45.1932 11.1369 45.6629 11.5166C46.1014 11.8646 46.4146 12.2126 46.6338 12.4025C46.853 12.6239 46.9783 12.7189 46.9783 12.7189L50.8618 8.73234C50.8618 8.76398 50.7366 8.60578 50.4547 8.35267Z" fill="#49BFAE"/>
<path d="M5.4182 35.0879C5.4182 35.0879 5.48084 35.4043 5.60611 35.9738C5.66875 36.2585 5.73139 36.6066 5.82534 36.9862C5.95062 37.3659 6.07589 37.8088 6.23249 38.2834C6.48303 39.2326 6.98413 40.2767 7.45391 41.4157C8.01765 42.4914 8.64402 43.6621 9.39567 44.7378C10.899 46.8892 12.7155 48.8192 14.2814 50.0215C15.033 50.6543 15.722 51.0972 16.1918 51.4136C16.6616 51.73 16.9435 51.9198 16.9435 51.9198L14.0935 56.6973C14.0935 56.6973 13.749 56.4759 13.1852 56.0962C12.5902 55.7165 11.7446 55.1787 10.8363 54.3877C8.92589 52.9323 6.67095 50.591 4.85446 47.9333C3.9149 46.6361 3.16325 45.2124 2.47424 43.8519C1.87919 42.4598 1.28413 41.1942 0.970948 40.0236C0.783036 39.4541 0.626442 38.9162 0.469849 38.4416C0.375893 37.967 0.250618 37.5557 0.187981 37.2077C0.0313874 36.5116 -0.03125 36.132 -0.03125 36.132L5.4182 35.0879Z" fill="#1E669E"/>
<path d="M51.1124 18.1288C51.1124 18.1288 51.0498 18.0339 50.9558 17.844C50.8619 17.6542 50.7366 17.4011 50.5174 17.1163C50.1102 16.5468 49.6404 15.7559 49.0767 15.0598C47.9492 13.6044 46.6025 12.3389 46.6025 12.3389L50.3921 8.28906C50.3921 8.28906 52.052 9.83937 53.3987 11.6112C54.119 12.4654 54.6828 13.4462 55.1839 14.1423C55.4344 14.4903 55.591 14.8067 55.7163 15.0282C55.8415 15.2496 55.9042 15.3762 55.9042 15.3762L51.1124 18.1288Z" fill="#49BFAE"/>
<path d="M22.2056 27.336C22.2369 27.336 22.049 27.6208 21.9237 28.127C21.7358 28.6332 21.6105 29.3926 21.5792 30.3101C21.5479 31.2276 21.7045 32.335 22.1116 33.4107C22.5188 34.4864 23.2078 35.5622 24.0847 36.3848C24.9303 37.239 26.0264 37.9035 27.1226 38.2515C28.2188 38.5995 29.2836 38.7261 30.1918 38.6628C31.1001 38.5679 31.8517 38.378 32.3528 38.2198C32.6347 38.1566 32.7913 38.03 32.9166 37.9984C33.0418 37.9351 33.1358 37.9035 33.1358 37.9035L35.4847 42.9657C35.4847 42.9657 35.3594 43.029 35.1402 43.1239C34.9209 43.1872 34.6078 43.4086 34.1693 43.5036C33.3237 43.8199 32.0709 44.1363 30.5363 44.2629C29.0017 44.3578 27.1852 44.1996 25.3688 43.5985C23.521 42.9973 21.7045 41.89 20.2638 40.4662C18.7918 39.0425 17.633 37.2707 16.944 35.4356C16.255 33.6005 16.0045 31.7655 16.0358 30.2152C16.0984 28.6649 16.349 27.3993 16.6308 26.5134C16.7248 26.0705 16.8814 25.7541 16.9753 25.5326C17.0693 25.3111 17.1006 25.1846 17.1006 25.1846L22.2056 27.336Z" fill="#48C7EB"/>
<path d="M36.2362 35.3721C35.6725 36.1947 34.6703 37.1122 33.4802 37.745C32.3214 38.4094 30.9434 38.6625 29.9412 38.6942C28.939 38.7574 28.3126 38.5676 28.3126 38.5676L27.373 44.0728C27.373 44.0728 28.4692 44.3259 30.1604 44.2626C31.8203 44.1994 34.1066 43.788 36.0796 42.6807C38.084 41.6366 39.7439 40.0546 40.7148 38.6625C41.1533 37.9348 41.5604 37.3653 41.7796 36.9224C41.9989 36.4794 42.1555 36.2263 42.1555 36.2263" fill="#00B3DC"/>
<path d="M36.9873 26.8931C36.9873 26.8931 36.862 26.6716 36.6428 26.292C36.5488 26.1021 36.3609 25.9123 36.2043 25.6276C36.0164 25.4061 35.7972 25.1213 35.5466 24.8366C35.0455 24.2987 34.3565 23.7609 33.5422 23.3179C32.7279 22.8433 31.7571 22.4953 30.7862 22.3687C28.8444 22.084 26.8087 22.6218 25.556 23.4128C25.2114 23.571 24.9609 23.8241 24.7103 23.9507C24.4911 24.1722 24.2719 24.3304 24.1153 24.4569C23.8334 24.7733 23.6455 24.9315 23.6455 24.9315L19.6367 21.1981C19.6367 21.1981 19.9186 20.9133 20.4197 20.3755C20.7016 20.154 21.0461 19.8693 21.4219 19.5212C21.8603 19.2365 22.2988 18.8884 22.8312 18.5721C24.9609 17.2749 28.3433 16.3257 31.6318 16.8319C34.9516 17.2432 37.9268 19.1732 39.5867 20.9766C39.9939 21.4512 40.3697 21.8942 40.6829 22.2738C40.9647 22.7168 41.2153 23.0648 41.4032 23.3812C41.7477 24.014 41.9669 24.3936 41.9669 24.3936L36.9873 26.8931Z" fill="#1E669E"/>
<path d="M35.2646 24.5199C35.2646 24.5199 36.3608 25.5324 37.0185 26.9561C37.3317 27.6522 37.5509 28.3799 37.6449 28.9494C37.7388 29.2341 37.7075 29.4556 37.7388 29.6138C37.7701 29.772 37.7701 29.8669 37.7701 29.8669L43.2822 29.424C43.2822 29.424 43.2509 29.2658 43.2196 28.981C43.157 28.6963 43.1883 28.3166 43.063 27.842C43.0004 27.4623 42.9064 27.051 42.7811 26.6081C42.5932 25.9437 42.3114 25.216 41.9982 24.5199C41.4031 23.3809 40.7767 22.2735 40.1191 21.6091C39.8372 21.2295 39.5553 20.9447 39.3674 20.7549C39.1795 20.565 39.0542 20.4385 39.0542 20.4385L35.2646 24.5199Z" fill="#2D387B"/>
<path d="M36.6747 12.4972C36.6747 12.4972 36.4868 12.4339 36.1736 12.3074C35.8604 12.1492 35.3907 12.0543 34.7956 11.8644C34.5137 11.7695 34.2006 11.7062 33.8874 11.6113C33.5429 11.548 33.1984 11.4848 32.8225 11.4215C32.1022 11.2633 31.2879 11.2317 30.5049 11.1684C29.722 11.1367 28.9077 11.1684 28.1874 11.2C27.467 11.2949 26.7467 11.3266 26.183 11.4848C25.5879 11.6113 25.1181 11.7062 24.7736 11.8012C24.4291 11.8961 24.2412 11.9594 24.2412 11.9594L25.8071 17.3063C25.8071 17.3063 25.9324 17.2431 26.183 17.1798C26.4335 17.1165 26.778 17.0532 27.1852 16.9583C27.5923 16.8634 28.0934 16.8318 28.6258 16.7685C29.1582 16.7685 29.722 16.7052 30.2857 16.7368C30.8495 16.8001 31.4132 16.8001 31.9143 16.9267C32.1648 16.9583 32.4154 17.0216 32.6659 17.0532C32.8852 17.1165 33.1044 17.1798 33.3236 17.2431C33.7308 17.3696 34.0753 17.4329 34.2945 17.5595C34.5137 17.6544 34.6703 17.7177 34.6703 17.7177L36.6747 12.4972Z" fill="#2D387B"/>
<path d="M19.8249 47.1109L22.6749 42.3334C22.6749 42.3334 22.2678 42.0487 21.5474 41.5741C20.8897 41.0362 19.8875 40.2769 19.0106 39.0746C18.1024 37.9039 17.2255 36.3536 16.693 34.5819C16.1293 32.8101 15.9414 30.7852 16.1919 28.7919C16.4425 26.8303 17.1628 24.9003 18.1337 23.3184C19.1046 21.7364 20.326 20.4709 21.4848 19.5533C22.6749 18.6674 23.8024 18.0979 24.5853 17.7815C24.9612 17.5917 25.3057 17.5284 25.5249 17.4335C25.7441 17.3702 25.8694 17.307 25.8694 17.307L24.3035 11.96C24.3035 11.96 24.1469 12.0232 23.8337 12.1182C23.5205 12.2131 23.0507 12.3396 22.5183 12.5927C21.3908 13.0357 19.8249 13.8267 18.165 15.0922C16.5051 16.3578 14.7826 18.1296 13.4359 20.3759C12.0579 22.6223 11.087 25.28 10.7425 28.0642C10.398 30.8484 10.6798 33.696 11.4628 36.1954C12.2145 38.6949 13.4672 40.878 14.7513 42.5232C16.004 44.2001 17.4134 45.2758 18.3529 46.0668C19.2298 46.7312 19.8249 47.1109 19.8249 47.1109Z" fill="#2D387B"/>
<path d="M43.376 28.8869C43.376 28.8869 43.9397 32.6203 43.5952 32.9366H28.6875V28.001L43.0628 27.6846L43.376 28.8869Z" fill="#2D387B"/>
</g>
<path d="M84.1423 11.6975V15.8965H92.5403V19.1559H84.1423V23.6921H93.3765V26.9785H80.2939V8.41113H93.1247V11.6975H84.1423Z" fill="#2D387B"/>
<path d="M109.192 9.54359C110.391 10.5776 110.99 12.0942 110.99 14.0933H107.106C107.13 13.6815 107.068 13.2693 106.925 12.8825C106.782 12.4957 106.56 12.1426 106.274 11.8454C105.607 11.2799 104.746 10.9961 103.874 11.0541C103.146 11.0183 102.425 11.2134 101.814 11.6116C101.571 11.7721 101.372 11.9913 101.235 12.249C101.098 12.5067 101.029 12.7945 101.032 13.0862C101.014 13.5039 101.154 13.9132 101.423 14.2326C101.764 14.5822 102.183 14.8457 102.646 15.0014C103.439 15.292 104.25 15.5323 105.074 15.7207C106.264 16.0036 107.431 16.3732 108.567 16.8267C109.43 17.1836 110.182 17.7659 110.743 18.5125C111.352 19.4 111.65 20.4636 111.593 21.5382C111.617 22.6313 111.303 23.7053 110.694 24.6132C110.052 25.5272 109.165 26.2411 108.135 26.6723C106.941 27.1795 105.652 27.4291 104.355 27.4051C102.008 27.4051 100.169 26.8401 98.8383 25.7102C97.5076 24.5803 96.8437 22.9723 96.8467 20.8863H100.807C100.772 21.351 100.833 21.8182 100.988 22.2578C101.143 22.6975 101.387 23.1001 101.707 23.4399C102.318 24.0153 103.213 24.2985 104.404 24.2985C105.23 24.3408 106.048 24.117 106.737 23.6602C107.016 23.4677 107.242 23.2084 107.394 22.906C107.547 22.6036 107.621 22.2677 107.609 21.9293C107.634 21.482 107.495 21.041 107.218 20.6885C106.914 20.3551 106.528 20.1071 106.099 19.9692C105.613 19.7983 104.836 19.5735 103.779 19.2948C102.556 19.0029 101.354 18.6274 100.183 18.1709C99.3162 17.8215 98.5566 17.2511 97.9796 16.5164C97.3545 15.641 97.0468 14.5784 97.1074 13.5043C97.0886 12.4822 97.3888 11.4797 97.9661 10.636C98.5755 9.77223 99.4173 9.09882 100.394 8.69389C101.522 8.21437 102.738 7.97844 103.963 8.00155C106.262 8.00454 108.005 8.51857 109.192 9.54359Z" fill="#2D387B"/>
<path d="M129.445 9.64706C130.122 10.2071 130.677 10.8996 131.075 11.682C131.474 12.4645 131.709 13.3202 131.765 14.1967H127.642C127.524 13.3759 127.106 12.6279 126.469 12.0972C125.757 11.5885 124.893 11.3365 124.019 11.3824C123.333 11.3575 122.652 11.5001 122.034 11.7978C121.416 12.0954 120.88 12.5392 120.472 13.0908C119.605 14.2267 119.171 15.7867 119.168 17.7708C119.168 19.8074 119.595 21.4034 120.445 22.5723C120.836 23.1305 121.36 23.5824 121.97 23.8869C122.58 24.1915 123.256 24.3392 123.938 24.3166C125.278 24.3166 126.304 23.939 127.017 23.1837C127.731 22.4284 128.096 21.3374 128.114 19.9108H123.704V16.7638H131.684V26.9781H128.452V24.9685H128.398C127.834 25.7393 127.073 26.3436 126.195 26.7173C125.178 27.1517 124.081 27.3648 122.976 27.3422C121.516 27.3775 120.08 26.9734 118.853 26.1823C117.651 25.3632 116.714 24.2119 116.156 22.869C115.486 21.2546 115.162 19.5181 115.203 17.7708C115.16 15.9739 115.526 14.1907 116.273 12.5558C116.928 11.1418 117.997 9.95985 119.339 9.16602C120.765 8.36349 122.383 7.96265 124.019 8.00613C126.282 8.00613 128.09 8.5531 129.445 9.64706Z" fill="#2D387B"/>
<path d="M86.631 44.7705H84.876L82.952 41.5335H81.444V44.7705H79.923V36.0995H83.732C84.5813 36.0995 85.266 36.3508 85.786 36.8535C86.306 37.3562 86.566 38.0105 86.566 38.8165C86.566 39.5445 86.3667 40.1295 85.968 40.5715C85.5693 41.0048 85.084 41.2692 84.512 41.3645L86.631 44.7705ZM83.524 40.1945C83.9573 40.1945 84.3127 40.0688 84.59 39.8175C84.8673 39.5662 85.006 39.2325 85.006 38.8165C85.006 38.4005 84.8673 38.0668 84.59 37.8155C84.3127 37.5642 83.9573 37.4385 83.524 37.4385H81.444V40.1945H83.524ZM90.8125 44.9265C89.8592 44.9265 89.0705 44.6232 88.4465 44.0165C87.8312 43.4012 87.5235 42.6038 87.5235 41.6245C87.5235 40.7058 87.8225 39.9302 88.4205 39.2975C89.0272 38.6562 89.7899 38.3355 90.7085 38.3355C91.6359 38.3355 92.3812 38.6562 92.9445 39.2975C93.5165 39.9388 93.8025 40.7578 93.8025 41.7545V42.0795H88.9535C89.0055 42.5735 89.2092 42.9852 89.5645 43.3145C89.9199 43.6438 90.3835 43.8085 90.9555 43.8085C91.2762 43.8085 91.5969 43.7478 91.9175 43.6265C92.2469 43.5052 92.5199 43.3362 92.7365 43.1195L93.3605 44.0165C92.7279 44.6232 91.8785 44.9265 90.8125 44.9265ZM92.4765 41.1175C92.4592 40.6842 92.2989 40.2985 91.9955 39.9605C91.7009 39.6225 91.2719 39.4535 90.7085 39.4535C90.1712 39.4535 89.7509 39.6225 89.4475 39.9605C89.1442 40.2898 88.9752 40.6755 88.9405 41.1175H92.4765ZM98.7899 44.9265C97.9579 44.9265 97.2862 44.5842 96.7749 43.8995V47.1625H95.4099V38.4915H96.7749V39.3495C97.2775 38.6735 97.9492 38.3355 98.7899 38.3355C99.6132 38.3355 100.281 38.6302 100.792 39.2195C101.312 39.8088 101.572 40.6105 101.572 41.6245C101.572 42.6385 101.312 43.4445 100.792 44.0425C100.281 44.6318 99.6132 44.9265 98.7899 44.9265ZM98.3869 43.7175C98.9242 43.7175 99.3532 43.5225 99.6739 43.1325C99.9945 42.7425 100.155 42.2398 100.155 41.6245C100.155 41.0092 99.9945 40.5108 99.6739 40.1295C99.3532 39.7395 98.9242 39.5445 98.3869 39.5445C98.0749 39.5445 97.7672 39.6268 97.4639 39.7915C97.1605 39.9562 96.9309 40.1555 96.7749 40.3895V42.8725C96.9309 43.1065 97.1605 43.3058 97.4639 43.4705C97.7672 43.6352 98.0749 43.7175 98.3869 43.7175ZM106.019 44.9265C105.049 44.9265 104.269 44.6102 103.679 43.9775C103.09 43.3362 102.795 42.5518 102.795 41.6245C102.795 40.6972 103.09 39.9172 103.679 39.2845C104.269 38.6518 105.049 38.3355 106.019 38.3355C106.999 38.3355 107.783 38.6518 108.372 39.2845C108.962 39.9172 109.256 40.6972 109.256 41.6245C109.256 42.5605 108.962 43.3448 108.372 43.9775C107.783 44.6102 106.999 44.9265 106.019 44.9265ZM106.019 43.7175C106.583 43.7175 107.025 43.5182 107.345 43.1195C107.675 42.7122 107.839 42.2138 107.839 41.6245C107.839 41.0438 107.675 40.5542 107.345 40.1555C107.025 39.7482 106.583 39.5445 106.019 39.5445C105.465 39.5445 105.023 39.7482 104.693 40.1555C104.373 40.5542 104.212 41.0438 104.212 41.6245C104.212 42.2138 104.373 42.7122 104.693 43.1195C105.023 43.5182 105.465 43.7175 106.019 43.7175ZM112.263 44.7705H110.898V38.4915H112.263V39.4145C112.505 39.1025 112.809 38.8468 113.173 38.6475C113.537 38.4482 113.914 38.3485 114.304 38.3485V39.7005C114.182 39.6745 114.039 39.6615 113.875 39.6615C113.589 39.6615 113.281 39.7482 112.952 39.9215C112.631 40.0862 112.401 40.2768 112.263 40.4935V44.7705ZM117.549 44.9265C117.021 44.9265 116.618 44.7878 116.34 44.5105C116.072 44.2332 115.937 43.8345 115.937 43.3145V39.6875H114.897V38.4915H115.937V36.7755H117.302V38.4915H118.576V39.6875H117.302V42.9765C117.302 43.2018 117.354 43.3838 117.458 43.5225C117.562 43.6525 117.71 43.7175 117.9 43.7175C118.178 43.7175 118.381 43.6438 118.511 43.4965L118.836 44.5235C118.55 44.7922 118.121 44.9265 117.549 44.9265ZM120.752 37.7245C120.527 37.7245 120.327 37.6422 120.154 37.4775C119.989 37.3128 119.907 37.1135 119.907 36.8795C119.907 36.6455 119.989 36.4462 120.154 36.2815C120.327 36.1168 120.527 36.0345 120.752 36.0345C120.986 36.0345 121.185 36.1168 121.35 36.2815C121.515 36.4462 121.597 36.6455 121.597 36.8795C121.597 37.1135 121.515 37.3128 121.35 37.4775C121.185 37.6422 120.986 37.7245 120.752 37.7245ZM121.441 44.7705H120.076V38.4915H121.441V44.7705ZM129.075 44.7705H127.71V40.8445C127.71 39.9778 127.289 39.5445 126.449 39.5445C126.119 39.5445 125.812 39.6268 125.526 39.7915C125.24 39.9562 125.01 40.1555 124.837 40.3895V44.7705H123.472V38.4915H124.837V39.3495C125.071 39.0722 125.383 38.8338 125.773 38.6345C126.163 38.4352 126.587 38.3355 127.047 38.3355C127.714 38.3355 128.217 38.5088 128.555 38.8555C128.901 39.2022 129.075 39.7005 129.075 40.3505V44.7705ZM133.656 47.3185C132.59 47.3185 131.714 47.0065 131.03 46.3825L131.667 45.3945C132.135 45.9318 132.798 46.2005 133.656 46.2005C134.176 46.2005 134.613 46.0618 134.969 45.7845C135.333 45.5158 135.515 45.0868 135.515 44.4975V43.7435C134.977 44.4368 134.306 44.7835 133.5 44.7835C132.676 44.7835 132.005 44.4975 131.485 43.9255C130.973 43.3535 130.718 42.5648 130.718 41.5595C130.718 40.5628 130.973 39.7785 131.485 39.2065C132.005 38.6258 132.676 38.3355 133.5 38.3355C134.323 38.3355 134.995 38.6778 135.515 39.3625V38.4915H136.88V44.4455C136.88 44.9828 136.784 45.4465 136.594 45.8365C136.412 46.2352 136.16 46.5342 135.84 46.7335C135.519 46.9415 135.177 47.0888 134.813 47.1755C134.457 47.2708 134.072 47.3185 133.656 47.3185ZM133.903 43.5745C134.215 43.5745 134.522 43.4922 134.826 43.3275C135.129 43.1628 135.359 42.9635 135.515 42.7295V40.3895C135.359 40.1555 135.129 39.9562 134.826 39.7915C134.522 39.6268 134.215 39.5445 133.903 39.5445C133.365 39.5445 132.936 39.7308 132.616 40.1035C132.295 40.4675 132.135 40.9528 132.135 41.5595C132.135 42.1662 132.295 42.6558 132.616 43.0285C132.936 43.3925 133.365 43.5745 133.903 43.5745ZM144.067 44.7705H142.546V36.0995H144.067V44.7705ZM151.735 44.7705H150.37V40.8445C150.37 39.9778 149.949 39.5445 149.109 39.5445C148.779 39.5445 148.472 39.6268 148.186 39.7915C147.9 39.9562 147.67 40.1555 147.497 40.3895V44.7705H146.132V38.4915H147.497V39.3495C147.731 39.0722 148.043 38.8338 148.433 38.6345C148.823 38.4352 149.247 38.3355 149.707 38.3355C150.374 38.3355 150.877 38.5088 151.215 38.8555C151.561 39.2022 151.735 39.7005 151.735 40.3505V44.7705ZM155.653 44.9265C155.124 44.9265 154.721 44.7878 154.444 44.5105C154.175 44.2332 154.041 43.8345 154.041 43.3145V39.6875H153.001V38.4915H154.041V36.7755H155.406V38.4915H156.68V39.6875H155.406V42.9765C155.406 43.2018 155.458 43.3838 155.562 43.5225C155.666 43.6525 155.813 43.7175 156.004 43.7175C156.281 43.7175 156.485 43.6438 156.615 43.4965L156.94 44.5235C156.654 44.7922 156.225 44.9265 155.653 44.9265ZM161.078 44.9265C160.125 44.9265 159.336 44.6232 158.712 44.0165C158.097 43.4012 157.789 42.6038 157.789 41.6245C157.789 40.7058 158.088 39.9302 158.686 39.2975C159.293 38.6562 160.055 38.3355 160.974 38.3355C161.901 38.3355 162.647 38.6562 163.21 39.2975C163.782 39.9388 164.068 40.7578 164.068 41.7545V42.0795H159.219C159.271 42.5735 159.475 42.9852 159.83 43.3145C160.185 43.6438 160.649 43.8085 161.221 43.8085C161.542 43.8085 161.862 43.7478 162.183 43.6265C162.512 43.5052 162.785 43.3362 163.002 43.1195L163.626 44.0165C162.993 44.6232 162.144 44.9265 161.078 44.9265ZM162.742 41.1175C162.725 40.6842 162.564 40.2985 162.261 39.9605C161.966 39.6225 161.537 39.4535 160.974 39.4535C160.437 39.4535 160.016 39.6225 159.713 39.9605C159.41 40.2898 159.241 40.6755 159.206 41.1175H162.742ZM167.04 44.7705H165.675V36.0995H167.04V44.7705ZM170.436 44.7705H169.071V36.0995H170.436V44.7705ZM173.143 37.7245C172.918 37.7245 172.718 37.6422 172.545 37.4775C172.38 37.3128 172.298 37.1135 172.298 36.8795C172.298 36.6455 172.38 36.4462 172.545 36.2815C172.718 36.1168 172.918 36.0345 173.143 36.0345C173.377 36.0345 173.576 36.1168 173.741 36.2815C173.906 36.4462 173.988 36.6455 173.988 36.8795C173.988 37.1135 173.906 37.3128 173.741 37.4775C173.576 37.6422 173.377 37.7245 173.143 37.7245ZM173.832 44.7705H172.467V38.4915H173.832V44.7705ZM178.411 47.3185C177.345 47.3185 176.469 47.0065 175.785 46.3825L176.422 45.3945C176.89 45.9318 177.553 46.2005 178.411 46.2005C178.931 46.2005 179.368 46.0618 179.724 45.7845C180.088 45.5158 180.27 45.0868 180.27 44.4975V43.7435C179.732 44.4368 179.061 44.7835 178.255 44.7835C177.431 44.7835 176.76 44.4975 176.24 43.9255C175.728 43.3535 175.473 42.5648 175.473 41.5595C175.473 40.5628 175.728 39.7785 176.24 39.2065C176.76 38.6258 177.431 38.3355 178.255 38.3355C179.078 38.3355 179.75 38.6778 180.27 39.3625V38.4915H181.635V44.4455C181.635 44.9828 181.539 45.4465 181.349 45.8365C181.167 46.2352 180.915 46.5342 180.595 46.7335C180.274 46.9415 179.932 47.0888 179.568 47.1755C179.212 47.2708 178.827 47.3185 178.411 47.3185ZM178.658 43.5745C178.97 43.5745 179.277 43.4922 179.581 43.3275C179.884 43.1628 180.114 42.9635 180.27 42.7295V40.3895C180.114 40.1555 179.884 39.9562 179.581 39.7915C179.277 39.6268 178.97 39.5445 178.658 39.5445C178.12 39.5445 177.691 39.7308 177.371 40.1035C177.05 40.4675 176.89 40.9528 176.89 41.5595C176.89 42.1662 177.05 42.6558 177.371 43.0285C177.691 43.3925 178.12 43.5745 178.658 43.5745ZM186.563 44.9265C185.609 44.9265 184.821 44.6232 184.197 44.0165C183.581 43.4012 183.274 42.6038 183.274 41.6245C183.274 40.7058 183.573 39.9302 184.171 39.2975C184.777 38.6562 185.54 38.3355 186.459 38.3355C187.386 38.3355 188.131 38.6562 188.695 39.2975C189.267 39.9388 189.553 40.7578 189.553 41.7545V42.0795H184.704C184.756 42.5735 184.959 42.9852 185.315 43.3145C185.67 43.6438 186.134 43.8085 186.706 43.8085C187.026 43.8085 187.347 43.7478 187.668 43.6265C187.997 43.5052 188.27 43.3362 188.487 43.1195L189.111 44.0165C188.478 44.6232 187.629 44.9265 186.563 44.9265ZM188.227 41.1175C188.209 40.6842 188.049 40.2985 187.746 39.9605C187.451 39.6225 187.022 39.4535 186.459 39.4535C185.921 39.4535 185.501 39.6225 185.198 39.9605C184.894 40.2898 184.725 40.6755 184.691 41.1175H188.227ZM196.763 44.7705H195.398V40.8445C195.398 39.9778 194.978 39.5445 194.137 39.5445C193.808 39.5445 193.5 39.6268 193.214 39.7915C192.928 39.9562 192.698 40.1555 192.525 40.3895V44.7705H191.16V38.4915H192.525V39.3495C192.759 39.0722 193.071 38.8338 193.461 38.6345C193.851 38.4352 194.276 38.3355 194.735 38.3355C195.402 38.3355 195.905 38.5088 196.243 38.8555C196.59 39.2022 196.763 39.7005 196.763 40.3505V44.7705ZM201.656 44.9265C200.703 44.9265 199.923 44.6188 199.316 44.0035C198.709 43.3795 198.406 42.5865 198.406 41.6245C198.406 40.6712 198.709 39.8868 199.316 39.2715C199.923 38.6475 200.703 38.3355 201.656 38.3355C202.705 38.3355 203.506 38.7082 204.061 39.4535L203.164 40.2855C202.817 39.7915 202.336 39.5445 201.721 39.5445C201.149 39.5445 200.69 39.7395 200.343 40.1295C199.996 40.5108 199.823 41.0092 199.823 41.6245C199.823 42.2398 199.996 42.7425 200.343 43.1325C200.69 43.5225 201.149 43.7175 201.721 43.7175C202.319 43.7175 202.8 43.4705 203.164 42.9765L204.061 43.8085C203.506 44.5538 202.705 44.9265 201.656 44.9265ZM208.417 44.9265C207.463 44.9265 206.675 44.6232 206.051 44.0165C205.435 43.4012 205.128 42.6038 205.128 41.6245C205.128 40.7058 205.427 39.9302 206.025 39.2975C206.631 38.6562 207.394 38.3355 208.313 38.3355C209.24 38.3355 209.985 38.6562 210.549 39.2975C211.121 39.9388 211.407 40.7578 211.407 41.7545V42.0795H206.558C206.61 42.5735 206.813 42.9852 207.169 43.3145C207.524 43.6438 207.988 43.8085 208.56 43.8085C208.88 43.8085 209.201 43.7478 209.522 43.6265C209.851 43.5052 210.124 43.3362 210.341 43.1195L210.965 44.0165C210.332 44.6232 209.483 44.9265 208.417 44.9265ZM210.081 41.1175C210.063 40.6842 209.903 40.2985 209.6 39.9605C209.305 39.6225 208.876 39.4535 208.313 39.4535C207.775 39.4535 207.355 39.6225 207.052 39.9605C206.748 40.2898 206.579 40.6755 206.545 41.1175H210.081Z" fill="#2D387B"/>
<defs>
<clipPath id="clip0_19_10198">
<rect width="57" height="61" fill="white"/>
</clipPath>
</defs>
</svg>
