<?xml version="1.0" encoding="UTF-8"?>
<svg xmlns="http://www.w3.org/2000/svg" version="1.2" viewBox="0 0 237 82" width="237" height="82">
  <defs>
    <clipPath id="cp1">
      <path d="m0 0.66h76v81.34h-76z"></path>
    </clipPath>
  </defs>
  <style>.a{fill:#181818}.b{fill:#383838}.c{fill:#717070}</style>
  <g clip-path="url(#cp1)">
    <path class="a" d="m14.3 37.4q0 0-0.1 0.7-0.1 0.7-0.2 2c-0.1 0.8 0 1.8 0 2.8 0.1 1 0.2 2.1 0.4 3.2 0.3 1.1 0.5 2.2 0.8 3.1 0.3 1 0.7 1.9 1 2.6 0.3 0.8 0.7 1.4 0.9 1.8 0.2 0.4 0.4 0.7 0.4 0.7l-6.4 3.7q0 0-0.5-0.8c-0.2-0.6-0.7-1.4-1.1-2.3-0.4-1-0.9-2.1-1.2-3.4-0.5-1.3-0.8-2.6-1-4-0.3-1.4-0.5-2.8-0.5-4.1 0-1.3-0.2-2.6 0-3.6 0-1.1 0.1-2 0.2-2.6 0.1-0.6 0.1-1 0.1-1z"></path>
    <path class="b" d="m53.3 63.1q0 0-0.4 0.3c-0.3 0.1-0.7 0.3-1.2 0.6-0.5 0.3-1.2 0.7-1.9 1q-0.6 0.2-1.2 0.5-0.7 0.2-1.4 0.4c-3.8 1.3-9.4 1.8-14.5 0.3-1.3-0.3-2.5-0.9-3.8-1.4-1.1-0.6-2.3-1.2-3.3-1.9-2.2-1.3-3.9-3-5.2-4.5-1.4-1.5-2.3-2.9-2.9-3.9-0.5-1.1-0.8-1.7-0.8-1.7l-6.6 3.3c0 0 0.4 0.8 1.1 2.1 0.8 1.4 2 3.2 3.7 5.2 3.4 3.9 9.1 8.2 15.8 10 6.6 1.9 13.8 1.3 18.7-0.3 0.6-0.3 1.2-0.4 1.7-0.6q0.8-0.4 1.6-0.7c0.9-0.4 1.8-0.8 2.4-1.2q1-0.6 1.5-0.8 0.5-0.4 0.5-0.4z"></path>
    <path class="b" d="m64.7 36.5c0 0-0.1-0.5-0.3-1.4q-0.1-0.7-0.5-1.5c-0.2-0.6-0.3-1.3-0.7-2-1.1-2.9-3.3-6.5-6.4-9.3-3-2.8-6.8-4.7-9.7-5.6-0.7-0.2-1.4-0.4-2-0.6q-1-0.1-1.6-0.2-0.7-0.2-1.1-0.2c-0.2 0-0.3 0-0.3 0l0.7-7.4q0-0.1 0.4 0c0.3 0 0.8 0.1 1.4 0.2q0.8 0.1 2 0.3c0.8 0.2 1.7 0.5 2.6 0.8 3.8 1.1 8.7 3.5 12.6 7.2 3.9 3.6 6.8 8.2 8.2 12 0.4 0.9 0.7 1.8 1 2.5q0.3 1.2 0.5 2.1c0.3 1.1 0.4 1.8 0.4 1.8z"></path>
    <path class="b" d="m71.8 65.7c1.4-2 2.5-3.7 3.2-5 0.6-1.3 1-2 1-2l-6.7-3.2c0 0-0.3 0.6-0.8 1.7-0.5 1-1.4 2.4-2.6 4q-1.2 1.7-2.8 3.4l4.7 5.7c1.6-1.5 3-3.1 4-4.6z"></path>
    <path d="m63.1 64.6c-2.3 2.3-5.1 4.5-8.1 6.1-4.7 2.6-10 3.7-13.9 3.9-2.1 0.1-3.7-0.1-4.9-0.2q-0.8 0-1.3-0.1-0.4-0.1-0.4-0.1l-1.2 7.3q0 0 0.6 0.1 0.5 0.2 1.6 0.2c1.4 0.2 3.4 0.3 5.9 0.2 4.8-0.2 11.3-1.5 17-4.7 3.6-1.9 6.9-4.4 9.5-6.9z"></path>
    <path class="c" d="m62.8 52c0 0 0.4-1 1-2.4q0.3-1.1 0.7-2.6c0.1-0.9 0.4-2 0.5-3 0.1-1 0.2-2 0.1-3q0-0.8 0-1.4c-0.1-0.5-0.1-0.8-0.2-1.3 0-0.7-0.1-1.4-0.3-1.8 0-0.5-0.1-0.7-0.1-0.7l7.2-1.6c0 0 0 0.3 0.2 0.8 0.1 0.6 0.2 1.4 0.3 2.5 0.1 0.5 0.2 1 0.2 1.6 0 0.5 0.1 1.1 0.1 1.8 0 1.2-0.1 2.5-0.2 3.9-0.1 1.3-0.4 2.6-0.6 3.9q-0.5 1.8-1 3.3c-0.7 1.8-1.2 3-1.2 3z"></path>
    <path class="c" d="m36.8 0.7c-4.2 0.3-8.4 1.3-12.1 2.8-3.7 1.4-6.9 3.5-9.5 5.3-1.2 1.1-2.3 2-3.3 2.9q-1.4 1.4-2.3 2.5c-1.2 1.4-1.9 2.2-1.9 2.2l5.9 4.6c0 0 0.5-0.7 1.5-1.9q0.8-0.8 1.9-1.9c0.7-0.8 1.7-1.5 2.7-2.4 2.1-1.5 4.7-3.2 7.7-4.3 3.1-1.2 6.5-2.1 9.9-2.3 0.5-0.1 0.9 0 1.3-0.1l-0.2-7.4c-0.5 0-1 0-1.6 0z"></path>
    <path class="c" d="m67.3 11.8c-0.4-0.3-0.9-0.9-1.7-1.5-0.7-0.6-1.5-1.3-2.6-2.1-1.1-0.7-2.3-1.5-3.7-2.3-2.8-1.6-6.1-3.1-10-4.1-3.4-0.8-7.2-1.3-10.9-1.1l0.3 7.4c3-0.1 6 0.2 8.8 1 3.2 0.7 6 2 8.2 3.2 1.1 0.7 2.1 1.4 3 2 0.9 0.6 1.6 1.2 2.2 1.7 0.6 0.5 1 0.9 1.3 1.2q0.4 0.4 0.4 0.4l5.2-5.3c0 0-0.1-0.2-0.5-0.5z"></path>
    <path class="c" d="m7.2 47.4c0 0 0.1 0.5 0.3 1.2q0.1 0.6 0.3 1.4 0.2 0.8 0.5 1.7c0.3 1.3 1 2.7 1.6 4.2 0.8 1.4 1.6 3 2.6 4.4 2 2.9 4.5 5.5 6.5 7.1 1 0.8 2 1.4 2.6 1.8 0.6 0.4 1 0.7 1 0.7l-3.8 6.4c0 0-0.5-0.3-1.2-0.8-0.8-0.5-1.9-1.3-3.2-2.3-2.5-2-5.5-5.1-7.9-8.6-1.3-1.8-2.3-3.7-3.2-5.5-0.8-1.8-1.6-3.5-2-5.1q-0.4-1.1-0.7-2.1c-0.1-0.6-0.3-1.2-0.3-1.6-0.3-1-0.3-1.5-0.3-1.5z"></path>
    <path d="m68.2 24.8q-0.1 0-0.3-0.3c-0.1-0.3-0.2-0.6-0.5-1-0.6-0.8-1.2-1.8-2-2.8-1.5-1.9-3.3-3.6-3.3-3.6l5.1-5.4c0 0 2.2 2.1 4 4.4 1 1.2 1.7 2.5 2.4 3.4 0.3 0.5 0.5 0.9 0.7 1.2q0.2 0.5 0.2 0.5z"></path>
    <path class="b" d="m29.6 37.1c0.1 0-0.2 0.4-0.4 1.1-0.2 0.6-0.4 1.7-0.4 2.9-0.1 1.2 0.1 2.7 0.7 4.1 0.5 1.4 1.4 2.9 2.6 4 1.1 1.1 2.6 2 4.1 2.5 1.4 0.4 2.8 0.6 4.1 0.5 1.2-0.1 2.2-0.4 2.8-0.6 0.4-0.1 0.6-0.2 0.8-0.3 0.2-0.1 0.3-0.1 0.3-0.1l3.1 6.8q0 0-0.4 0.2c-0.3 0-0.8 0.3-1.3 0.5-1.2 0.4-2.8 0.8-4.9 1-2 0.1-4.5-0.1-6.9-0.9-2.4-0.8-4.9-2.3-6.8-4.2-1.9-1.9-3.5-4.2-4.4-6.7-0.9-2.4-1.3-4.9-1.2-6.9 0.1-2.1 0.4-3.8 0.8-5 0.1-0.6 0.3-1 0.4-1.3q0.2-0.4 0.2-0.5z"></path>
    <path d="m48.3 47.8c-0.7 1.1-2.1 2.3-3.7 3.2-1.5 0.9-3.3 1.2-4.7 1.3-1.3 0-2.1-0.2-2.1-0.2l-1.3 7.3c0 0 1.5 0.4 3.7 0.3 2.2-0.1 5.3-0.7 7.9-2.1 2.7-1.4 4.9-3.5 6.2-5.4 0.6-1 1.1-1.7 1.4-2.3 0.3-0.6 0.5-0.9 0.5-0.9"></path>
    <path class="b" d="m49.3 36.5c0 0-0.1-0.3-0.4-0.8-0.2-0.2-0.4-0.5-0.6-0.9-0.3-0.3-0.6-0.6-0.9-1-0.7-0.7-1.6-1.5-2.7-2-1.1-0.7-2.4-1.1-3.6-1.3-2.6-0.4-5.4 0.3-7 1.4-0.5 0.2-0.8 0.5-1.2 0.7-0.2 0.3-0.5 0.5-0.7 0.7-0.4 0.4-0.7 0.6-0.7 0.6l-5.3-5c0 0 0.4-0.4 1-1.1q0.6-0.4 1.4-1.1c0.5-0.4 1.1-0.9 1.8-1.3 2.9-1.7 7.4-3 11.8-2.3 4.4 0.6 8.4 3.1 10.6 5.5q0.8 1 1.4 1.8c0.4 0.6 0.8 1 1 1.4 0.5 0.9 0.8 1.4 0.8 1.4z"></path>
    <path d="m47 33.4c0 0 1.5 1.3 2.4 3.2 0.4 0.9 0.7 1.9 0.8 2.7 0.1 0.3 0.1 0.6 0.1 0.8q0.1 0.4 0.1 0.4l7.3-0.6q0 0-0.1-0.6c-0.1-0.4 0-0.9-0.2-1.5q-0.1-0.8-0.4-1.7c-0.2-0.8-0.6-1.8-1-2.7-0.8-1.6-1.6-3-2.5-3.9-0.4-0.5-0.8-0.9-1-1.2-0.3-0.2-0.4-0.4-0.4-0.4z"></path>
    <path d="m48.9 17.3c0 0-0.2-0.1-0.7-0.2-0.4-0.2-1-0.4-1.8-0.6-0.4-0.1-0.8-0.2-1.2-0.4q-0.7-0.1-1.4-0.2c-1-0.2-2.1-0.3-3.1-0.3-1.1-0.1-2.2 0-3.1 0-1 0.1-1.9 0.2-2.7 0.4q-1.2 0.2-1.9 0.4-0.7 0.2-0.7 0.2l2.1 7.1c0 0 0.2 0 0.5-0.1q0.5-0.1 1.3-0.3c0.6-0.2 1.3-0.2 2-0.3 0.7 0 1.4-0.1 2.2 0 0.7 0.1 1.5 0.1 2.2 0.2 0.3 0.1 0.6 0.2 1 0.2q0.4 0.1 0.8 0.3c0.6 0.1 1 0.2 1.3 0.4 0.3 0.1 0.5 0.2 0.5 0.2z"></path>
    <path d="m26.4 63.5l3.8-6.4c0 0-0.5-0.4-1.5-1-0.8-0.7-2.2-1.7-3.4-3.3-1.2-1.6-2.3-3.7-3-6-0.8-2.4-1-5.1-0.7-7.7 0.3-2.7 1.3-5.2 2.6-7.3 1.3-2.2 2.9-3.8 4.4-5.1 1.6-1.1 3.1-1.9 4.2-2.3 0.5-0.3 0.9-0.4 1.2-0.5 0.3-0.1 0.5-0.2 0.5-0.2l-2.1-7.1q0 0-0.6 0.2c-0.4 0.1-1.1 0.3-1.8 0.7-1.5 0.5-3.6 1.6-5.8 3.3-2.2 1.7-4.5 4-6.3 7-1.8 3-3.1 6.6-3.6 10.3-0.4 3.7-0.1 7.5 1 10.8 1 3.4 2.7 6.3 4.4 8.5 1.6 2.2 3.5 3.6 4.8 4.7 1.1 0.9 1.9 1.4 1.9 1.4z"></path>
    <path d="m57.8 39.2c0 0 0.8 5 0.3 5.4h-19.8v-6.6l19.1-0.4z"></path>
  </g>
  <path d="m112.2 16.3v5.6h11.2v4.3h-11.2v6.1h12.3v4.3h-17.4v-24.7h17.1v4.4z"></path>
  <path d="m145.6 13.4q2.4 2.1 2.4 6.1h-5.2q0.1-0.9-0.2-1.7-0.3-0.7-0.9-1.3c-0.9-0.8-2-1.2-3.2-1.1-1 0-1.9 0.2-2.7 0.7q-0.5 0.4-0.8 0.9-0.3 0.5-0.3 1.1c0 0.6 0.2 1.1 0.5 1.5q0.7 0.7 1.7 1.1 1.6 0.5 3.2 0.9 2.4 0.6 4.7 1.5c1.1 0.5 2.1 1.3 2.9 2.2 0.8 1.2 1.2 2.6 1.1 4.1 0 1.4-0.4 2.9-1.2 4.1-0.9 1.2-2 2.2-3.4 2.7-1.6 0.7-3.3 1-5.1 1q-4.6 0-7.3-2.3-2.7-2.2-2.7-6.4h5.3q-0.1 1 0.3 1.8 0.3 0.9 0.9 1.6 1.2 1.2 3.6 1.2c1.1 0 2.2-0.3 3.1-0.9q0.6-0.4 0.9-1 0.3-0.6 0.3-1.3c0-0.6-0.2-1.2-0.5-1.7q-0.7-0.6-1.5-0.9-1-0.4-3.1-0.9-2.5-0.6-4.8-1.5c-1.2-0.5-2.2-1.2-3-2.2-0.8-1.2-1.2-2.6-1.1-4 0-1.4 0.4-2.7 1.1-3.9 0.8-1.1 2-2 3.3-2.5 1.5-0.7 3.1-1 4.7-1q4.6 0 7 2.1z"></path>
  <path d="m172.6 13.5c0.9 0.8 1.6 1.7 2.2 2.7 0.5 1.1 0.8 2.2 0.9 3.4h-5.5c-0.2-1.1-0.7-2.1-1.6-2.8-0.9-0.7-2.1-1-3.2-1-0.9 0-1.9 0.2-2.7 0.6-0.8 0.4-1.5 1-2.1 1.7q-1.7 2.3-1.7 6.3 0 4 1.7 6.4c0.5 0.7 1.2 1.3 2 1.7 0.8 0.4 1.7 0.6 2.7 0.6q2.6 0 4.1-1.5 1.4-1.5 1.4-4.4h-5.9v-4.2h10.7v13.6h-4.3v-2.6h-0.1c-0.7 1-1.8 1.8-2.9 2.3-1.4 0.6-2.9 0.9-4.3 0.8-2 0.1-3.9-0.5-5.5-1.5-1.6-1.1-2.9-2.7-3.6-4.4-0.9-2.2-1.3-4.5-1.3-6.8 0-2.4 0.4-4.8 1.4-7 0.9-1.9 2.3-3.5 4.1-4.5 1.9-1.1 4.1-1.6 6.3-1.6q4.5 0 7.2 2.2z"></path>
  <path fill-rule="evenodd" d="m112.5 54h-1.7l-1.8-3h-1.4v3h-1.4v-8h3.5c1.6 0 2.7 1 2.7 2.5 0 1.4-1 2.2-1.9 2.4zm-2.9-4.3c0.8 0 1.4-0.5 1.4-1.3 0-0.8-0.6-1.3-1.4-1.3h-2v2.6zm6.8 4.4c-1.7 0-3-1.2-3-3.1 0-1.7 1.2-3 2.9-3 1.8 0 2.9 1.3 2.9 3.1v0.4h-4.5c0.1 0.8 0.7 1.6 1.8 1.6 0.6 0 1.3-0.3 1.7-0.7l0.6 0.8c-0.6 0.6-1.5 0.9-2.4 0.9zm1.6-3.6c-0.1-0.6-0.5-1.5-1.7-1.5-1.1 0-1.6 0.8-1.6 1.5zm5.8 3.6c-0.7 0-1.3-0.3-1.8-1v3.1h-1.3v-8.1h1.3v0.8c0.4-0.6 1.1-0.9 1.8-0.9 1.6 0 2.6 1.1 2.6 3 0 2-1 3.1-2.6 3.1zm-0.3-1.1c1 0 1.6-0.8 1.6-2 0-1.1-0.6-1.9-1.6-1.9-0.6 0-1.2 0.3-1.5 0.8v2.3c0.2 0.4 0.9 0.8 1.5 0.8zm7.1 1.1c-1.9 0-3-1.4-3-3.1 0-1.7 1.1-3 3-3 1.9 0 3 1.3 3 3 0 1.7-1.1 3.1-3 3.1zm0-1.1c1.1 0 1.7-0.9 1.7-2 0-1-0.6-1.9-1.7-1.9-1.1 0-1.7 0.9-1.7 1.9 0 1.1 0.6 2 1.7 2zm5.8 1h-1.3v-5.9h1.3v0.9c0.5-0.6 1.2-1 1.9-1v1.2q-0.2 0-0.4 0c-0.5 0-1.2 0.4-1.5 0.8zm4.9 0.1c-1 0-1.5-0.5-1.5-1.5v-3.4h-0.9v-1.1h0.9v-1.6h1.3v1.6h1.2v1.1h-1.2v3.1c0 0.4 0.2 0.7 0.6 0.7 0.2 0 0.4-0.1 0.5-0.2l0.3 0.9c-0.2 0.3-0.6 0.4-1.2 0.4zm3-6.7c-0.4 0-0.8-0.3-0.8-0.8 0-0.4 0.4-0.8 0.8-0.8 0.5 0 0.8 0.4 0.8 0.8 0 0.5-0.3 0.8-0.8 0.8zm0.6 6.6h-1.2v-5.9h1.2zm7.2 0h-1.3v-3.6c0-0.9-0.5-1.2-1.2-1.2-0.6 0-1.2 0.4-1.5 0.7v4.1h-1.3v-5.8h1.3v0.8c0.4-0.5 1.2-1 2.1-1 1.2 0 1.9 0.7 1.9 1.9zm4.2 2.4c-1 0-1.7-0.2-2.4-0.9l0.6-0.9c0.5 0.5 1.1 0.7 1.8 0.7 0.9 0 1.8-0.3 1.8-1.6v-0.6c-0.5 0.5-1.1 0.9-1.9 0.9-1.5 0-2.6-1-2.6-3 0-1.9 1.1-3 2.6-3 0.7 0 1.4 0.4 1.9 1v-0.8h1.2v5.5c0 2.1-1.5 2.7-3 2.7zm0.3-3.5c0.6 0 1.2-0.4 1.5-0.8v-2.2c-0.3-0.4-0.9-0.7-1.5-0.7-1 0-1.7 0.7-1.7 1.8 0 1.2 0.7 1.9 1.7 1.9zm9.4 1.1h-1.4v-8.1h1.4zm7.2 0h-1.3v-3.6c0-0.9-0.5-1.2-1.2-1.2-0.6 0-1.2 0.4-1.5 0.8v4h-1.2v-5.8h1.2v0.8c0.4-0.5 1.2-0.9 2.1-0.9 1.3 0 1.9 0.6 1.9 1.8zm3.6 0.2c-0.9 0-1.5-0.6-1.5-1.5v-3.4h-0.9v-1.1h0.9v-1.6h1.3v1.6h1.2v1.1h-1.2v3.1c0 0.4 0.2 0.7 0.6 0.7 0.2 0 0.4-0.2 0.5-0.3l0.3 1c-0.2 0.2-0.6 0.4-1.2 0.4zm5.1 0c-1.8 0-3.1-1.2-3.1-3.1 0-1.7 1.3-3.1 3-3.1 1.8 0 2.9 1.4 2.9 3.2v0.3h-4.5c0.1 0.9 0.7 1.6 1.8 1.6 0.6 0 1.3-0.2 1.7-0.6l0.6 0.8c-0.6 0.6-1.5 0.9-2.4 0.9zm1.5-3.6c0-0.7-0.5-1.5-1.6-1.5-1.1 0-1.6 0.8-1.6 1.5zm3.9 3.4h-1.2v-8h1.2zm3.2 0h-1.3v-8.1h1.3zm2.5-6.6c-0.4 0-0.8-0.3-0.8-0.7 0-0.5 0.4-0.8 0.8-0.8 0.5 0 0.8 0.3 0.8 0.8 0 0.4-0.3 0.7-0.8 0.7zm0.7 6.6h-1.3v-5.8h1.3zm4.2 2.3c-1 0-1.7-0.2-2.4-0.8l0.6-1c0.5 0.6 1.1 0.8 1.8 0.8 0.9 0 1.8-0.4 1.8-1.6v-0.7c-0.5 0.6-1.1 1-1.9 1-1.5 0-2.6-1.1-2.6-3 0-1.9 1.1-3 2.6-3 0.7 0 1.4 0.3 1.9 0.9v-0.8h1.2v5.6c0 2.1-1.5 2.6-3 2.6zm0.3-3.5c0.6 0 1.2-0.3 1.5-0.7v-2.2c-0.3-0.5-0.9-0.8-1.5-0.8-1.1 0-1.7 0.7-1.7 1.9 0 1.1 0.6 1.8 1.7 1.8zm7.3 1.3c-1.7 0-3-1.2-3-3.1 0-1.7 1.2-3 2.9-3 1.8 0 2.9 1.3 2.9 3.1v0.3h-4.5c0.1 0.9 0.8 1.7 1.9 1.7 0.5 0 1.2-0.3 1.6-0.7l0.6 0.8c-0.6 0.6-1.4 0.9-2.4 0.9zm1.6-3.6c-0.1-0.6-0.5-1.5-1.7-1.5-1.1 0-1.6 0.8-1.6 1.5zm7.9 3.5h-1.2v-3.7c0-0.9-0.5-1.2-1.2-1.2-0.7 0-1.2 0.4-1.5 0.8v4.1h-1.3v-5.9h1.3v0.8c0.4-0.5 1.1-0.9 2-0.9 1.3 0 1.9 0.6 1.9 1.8zm4.6 0.2c-1.8 0-3-1.3-3-3.1 0-1.8 1.2-3 3-3 1.1 0 1.8 0.4 2.2 1l-0.8 0.8q-0.5-0.7-1.4-0.7c-1 0-1.7 0.8-1.7 1.9 0 1.1 0.7 2 1.7 2q0.9 0 1.4-0.7l0.8 0.7c-0.4 0.6-1.1 1.1-2.2 1.1zm6.3 0c-1.8 0-3.1-1.2-3.1-3.1 0-1.7 1.3-3 3-3 1.8 0 2.9 1.3 2.9 3.1v0.3h-4.5c0.1 0.9 0.7 1.6 1.8 1.6 0.6 0 1.3-0.2 1.7-0.6l0.6 0.8c-0.6 0.6-1.5 0.9-2.4 0.9zm1.6-3.6c-0.1-0.7-0.6-1.5-1.7-1.5-1.1 0-1.6 0.8-1.6 1.5z"></path>
</svg>
