<?xml version="1.0" encoding="UTF-8"?>
<svg xmlns="http://www.w3.org/2000/svg" width="64" height="64" viewBox="0 0 64 64" fill="none">
  <g id="Frame" opacity="0.98" clip-path="url(#clip0_2097_39427)">
    <g id="Group">
      <path id="Vector" d="M52.5314 56.6335V62.9335C52.5314 63.2164 52.419 63.4877 52.219 63.6877C52.019 63.8877 51.7477 64.0001 51.4649 64.0001C51.182 64.0001 50.9107 63.8877 50.7107 63.6877C50.5107 63.4877 50.3984 63.2164 50.3984 62.9335V56.6335C50.3984 51.7281 46.4289 47.7585 41.5232 47.7585C39.202 47.7585 37.0959 46.576 35.8895 44.5951C35.8166 44.4755 35.7681 44.3427 35.7465 44.2043C35.725 44.0659 35.7309 43.9247 35.764 43.7886C35.797 43.6525 35.8566 43.5242 35.9392 43.4111C36.0219 43.2981 36.126 43.2024 36.2456 43.1296C36.7482 42.8229 37.4046 42.9824 37.7111 43.4856C38.5273 44.8256 39.9524 45.6255 41.5232 45.6255C47.6074 45.6252 52.5314 50.5488 52.5314 56.6335ZM60.1304 14.8567V16.6731C60.1304 18.952 58.2765 20.8059 55.9976 20.8059C53.7187 20.8059 51.8648 18.952 51.8648 16.6731V14.8573C47.2916 12.1087 46.6742 5.74689 50.5578 2.14311C55.4839 -2.42787 63.5614 0.791829 63.9805 7.49572C64.1686 10.5048 62.6739 13.3241 60.1304 14.8567ZM61.8517 7.62877C61.5438 2.7025 55.6102 0.364687 52.0088 3.70663C49.0628 6.4404 49.6567 11.3152 53.288 13.2069H55.5978C55.8806 13.2069 56.1519 13.3193 56.3519 13.5193C56.5519 13.7193 56.6643 13.9906 56.6643 14.2735C56.6643 14.5563 56.5519 14.8276 56.3519 15.0276C56.1519 15.2276 55.8806 15.34 55.5978 15.34H53.998V16.6731C53.998 17.7758 54.8951 18.6729 55.9977 18.6729C57.1004 18.6729 57.9975 17.7758 57.9975 16.6731V14.2255C57.9975 14.0265 58.0531 13.8314 58.1582 13.6624C58.2632 13.4934 58.4135 13.3572 58.5919 13.2691C60.7206 12.2183 62.0001 10.0043 61.8517 7.62877ZM36.1491 48.7375C32.3156 51.9646 26.5164 50.9733 23.9719 46.6751C25.6073 45.5952 26.7466 43.8096 26.9123 41.7079C35.8446 44.3375 44.8384 37.7992 45.1881 28.5678C47.4545 28.1055 48.6654 26.1692 48.6654 24.3333V18.1395C48.6654 17.8566 48.553 17.5853 48.353 17.3853C48.153 17.1853 47.8817 17.073 47.5989 17.073C47.316 17.073 47.0447 17.1853 46.8447 17.3853C46.6447 17.5853 46.5323 17.8566 46.5323 18.1395V24.3333C46.5323 25.1308 46.1085 25.9741 45.1992 26.3445V24.0387C45.1992 23.7558 45.0868 23.4845 44.8868 23.2845C44.6868 23.0845 44.4155 22.9722 44.1327 22.9722C43.8498 22.9722 43.5785 23.0845 43.3785 23.2845C43.1785 23.4845 43.0661 23.7558 43.0661 24.0387V28.0215C43.0661 34.711 37.6239 40.1532 30.9345 40.1532C24.245 40.1532 18.8028 34.711 18.8028 28.0215V19.3705C18.8118 17.5324 20.8911 16.7269 22.1718 17.8309C25.1783 20.4233 28.8939 21.8202 32.6148 22.0043C33.533 22.0492 34.0774 20.9815 33.4946 20.2657C32.9511 19.5981 32.6236 18.7242 32.658 17.8053C36.1348 20.1147 40.202 21.1048 44.2128 20.8027C44.4949 20.7815 44.7569 20.6491 44.9414 20.4346C45.1258 20.2201 45.2175 19.9412 45.1963 19.6591C45.175 19.3771 45.0426 19.115 44.8281 18.9306C44.6137 18.7461 44.3347 18.6544 44.0527 18.6757C40.0262 18.9783 35.9727 17.8183 32.6674 15.1735C32.119 14.735 31.3084 14.9383 31.0263 15.5733C30.4697 16.8263 30.3521 18.2729 30.7863 19.6518C28.098 19.1668 25.6196 17.9872 23.5646 16.2153C20.8778 13.8993 16.7042 15.7622 16.67 19.3009L16.6699 26.2846C15.9574 25.9152 15.47 25.1797 15.47 24.3333C15.47 24.3089 15.4701 18.7935 15.4697 18.7693C15.4163 16.3519 15.7606 10.2776 20.103 6.09178C24.9545 1.41548 32.545 1.41361 38.4468 3.4708L37.5944 3.82169C36.5765 4.24043 36.7893 5.75076 37.8867 5.86834C39.9526 6.08951 41.5198 6.15244 43.6849 7.15457C43.825 7.21971 43.9776 7.25347 44.1321 7.25349C45.2682 7.25349 45.6162 5.69796 44.5807 5.21883C43.7294 4.82453 42.842 4.51313 41.931 4.28896C42.5164 3.79596 42.4105 2.85168 41.7075 2.51106C34.5152 -0.951401 24.7278 -1.32922 18.6225 4.55612C13.68 9.32014 13.2784 16.0983 13.3368 18.8046V24.3334C13.3368 26.3736 14.7642 28.0883 16.68 28.5489C16.68 28.5489 20.1467 38.6736 24.8019 40.8996V41.1805C24.8019 43.6394 22.8096 45.6255 20.3456 45.6255C20.0628 45.6255 19.7915 45.7379 19.5915 45.9379C19.3915 46.1379 19.2791 46.4091 19.2791 46.692C19.2791 46.9749 19.3915 47.2461 19.5915 47.4462C19.7915 47.6462 20.0628 47.7585 20.3456 47.7585C20.9083 47.7585 21.4673 47.6876 22.0129 47.5463C25.1467 53.1471 32.6085 54.5063 37.5228 50.3694C37.7392 50.1872 37.8743 49.9266 37.8986 49.6447C37.9228 49.3629 37.834 49.083 37.6519 48.8666C37.4697 48.6502 37.209 48.515 36.9272 48.4908C36.6454 48.4666 36.3655 48.5553 36.1491 48.7375ZM28.2948 34.1908C29.8823 35.3811 32.038 35.3429 33.5741 34.1906C33.6862 34.1066 33.7806 34.0014 33.8519 33.8809C33.9233 33.7603 33.9702 33.627 33.99 33.4883C34.0098 33.3497 34.0021 33.2085 33.9674 33.0728C33.9326 32.9372 33.8714 32.8097 33.7874 32.6976C33.434 32.2262 32.765 32.1308 32.2944 32.4843C31.5049 33.0764 30.3949 33.099 29.5748 32.4842C29.4627 32.4002 29.3352 32.339 29.1995 32.3043C29.0638 32.2695 28.9226 32.2619 28.784 32.2817C28.6453 32.3015 28.512 32.3484 28.3914 32.4198C28.2709 32.4912 28.1657 32.5856 28.0816 32.6976C27.9976 32.8097 27.9364 32.9372 27.9016 33.0728C27.8668 33.2085 27.8591 33.3497 27.8789 33.4884C27.8987 33.627 27.9456 33.7604 28.017 33.8809C28.0883 34.0015 28.1827 34.1067 28.2948 34.1908ZM28.1347 24.5387C28.1347 24.2559 28.0223 23.9846 27.8223 23.7846C27.6223 23.5846 27.351 23.4722 27.0682 23.4722C26.7853 23.4722 26.514 23.5846 26.314 23.7846C26.114 23.9846 26.0017 24.2559 26.0017 24.5387V25.6053C26.0017 25.8881 26.114 26.1594 26.314 26.3594C26.514 26.5594 26.7853 26.6718 27.0682 26.6718C27.351 26.6718 27.6223 26.5594 27.8223 26.3594C28.0223 26.1594 28.1347 25.8881 28.1347 25.6053V24.5387ZM34.8005 26.6718C35.0833 26.6718 35.3546 26.5594 35.5546 26.3594C35.7546 26.1594 35.867 25.8881 35.867 25.6053V24.5387C35.867 24.2559 35.7546 23.9846 35.5546 23.7846C35.3546 23.5846 35.0833 23.4722 34.8005 23.4722C34.5176 23.4722 34.2463 23.5846 34.0463 23.7846C33.8463 23.9846 33.7339 24.2559 33.7339 24.5387V25.6053C33.7339 25.8881 33.8463 26.1594 34.0463 26.3594C34.2463 26.5594 34.5176 26.6718 34.8005 26.6718Z" fill="black"></path>
      <path id="Vector_2" d="M9.85338 56.6334V62.9334C9.85338 63.2163 9.96574 63.4876 10.1658 63.6876C10.3658 63.8876 10.637 64 10.9199 64C11.2028 64 11.474 63.8876 11.674 63.6876C11.8741 63.4876 11.9864 63.2163 11.9864 62.9334V56.6334C11.9864 51.728 15.9559 47.7584 20.8616 47.7584C23.1828 47.7584 24.8059 46.5206 26.0123 44.5397C26.0851 44.4201 26.1337 44.2873 26.1553 44.1489C26.1768 44.0105 26.1709 43.8693 26.1378 43.7332C26.1048 43.5971 26.0452 43.4688 25.9626 43.3558C25.8799 43.2427 25.7758 43.147 25.6562 43.0742C25.1536 42.7675 24.4971 42.927 24.1907 43.4303C23.3745 44.7702 22.4323 45.6254 20.8616 45.6254C14.7774 45.6251 9.85338 50.5487 9.85338 56.6334Z" fill="black"></path>
    </g>
  </g>
  <defs>
    <clipPath id="clip0_2097_39427">
      <rect width="64" height="64" fill="white"></rect>
    </clipPath>
  </defs>
</svg>
