<?xml version="1.0" encoding="UTF-8"?>
<svg xmlns="http://www.w3.org/2000/svg" width="65" height="63" viewBox="0 0 65 63" fill="none">
  <g id="Group">
    <path id="Vector" d="M15.0023 14.2167C15.093 14.2469 15.1838 14.2671 15.2745 14.2671C15.6273 14.2671 15.9701 14.0453 16.0911 13.6824C16.6657 11.9987 17.8352 10.3051 19.5793 8.66177C21.525 6.81686 24.116 5.71798 26.6767 5.65749C27.1505 5.6474 27.5235 5.25423 27.5134 4.7804C27.5033 4.30657 27.1102 3.92347 26.6363 3.94363C23.6522 4.0142 20.658 5.28447 18.3998 7.42175C16.454 9.25658 15.1333 11.1821 14.468 13.138C14.3167 13.5715 14.5486 14.0554 15.0023 14.2167ZM64.3512 45.187L55.8928 33.9058C55.8827 33.8857 55.8626 33.8857 55.8424 33.8655C55.792 33.805 55.7315 33.7647 55.671 33.7143C55.6307 33.6941 55.6005 33.6538 55.5601 33.6437C55.467 33.6049 55.3684 33.5811 55.2678 33.5731C55.2476 33.5731 55.2275 33.5631 55.2073 33.5631C55.1871 33.5631 55.177 33.5731 55.1569 33.5731C55.046 33.5832 54.9452 33.6034 54.8544 33.6437C54.8141 33.6639 54.7939 33.684 54.7536 33.7143C54.6831 33.7647 54.6226 33.805 54.5621 33.8756C54.552 33.8857 54.5318 33.8958 54.5218 33.9058L46.0533 45.187C45.9021 45.3786 45.8517 45.6306 45.9021 45.8726C45.9525 46.1145 46.1037 46.3162 46.3154 46.4472C50.0859 48.645 50.7412 52.8288 50.842 54.5729H49.0677C48.5062 54.5729 47.9677 54.796 47.5706 55.193C47.1736 55.59 46.9505 56.1285 46.9505 56.69V60.1984C46.9505 61.3275 47.8276 62.2449 48.9467 62.2953C48.9971 62.3054 49.0374 62.3054 49.0677 62.3054H61.357C62.5265 62.3054 63.4741 61.3577 63.4741 60.1984V56.69C63.4741 56.1285 63.2511 55.59 62.854 55.193C62.457 54.796 61.9185 54.5729 61.357 54.5729H59.5726C59.6734 52.8288 60.3287 48.645 64.0992 46.4472C64.2046 46.3859 64.2959 46.303 64.3672 46.204C64.4384 46.105 64.4879 45.992 64.5125 45.8726C64.5348 45.7534 64.5319 45.6308 64.5041 45.5128C64.4764 45.3947 64.4243 45.2838 64.3512 45.187ZM55.1972 43.5841C55.9735 43.5841 56.5985 44.2091 56.5985 44.9854C56.5985 45.7617 55.9735 46.3867 55.1972 46.3867C54.4209 46.3867 53.7959 45.7617 53.7959 44.9854C53.7985 44.6146 53.947 44.2597 54.2092 43.9974C54.4715 43.7352 54.8264 43.5867 55.1972 43.5841ZM61.7401 56.69V60.1984C61.7375 60.3036 61.6938 60.4036 61.6185 60.477C61.5431 60.5505 61.4421 60.5916 61.3368 60.5916H49.0979C49.0777 60.5916 49.0475 60.5915 49.0273 60.5815C48.9285 60.576 48.8353 60.5335 48.7662 60.4626C48.6971 60.3916 48.6572 60.2974 48.6543 60.1984V56.69C48.6543 56.4682 48.8358 56.2868 49.0576 56.2868H61.3368C61.5687 56.2868 61.7401 56.4682 61.7401 56.69ZM57.8386 54.5729H52.5659C52.4752 52.6675 51.8401 48.2316 47.9789 45.4794L54.3504 37.0009V42.0013C53.701 42.186 53.1294 42.5772 52.722 43.1155C52.3146 43.6539 52.0935 44.3103 52.0921 44.9854C52.0921 46.6993 53.4934 48.1006 55.2073 48.1006C56.9312 48.1006 58.3225 46.6993 58.3225 44.9854C58.3225 43.5639 57.3647 42.3844 56.0642 42.0013V37.0009L62.4256 45.4794C58.5644 48.2216 57.9192 52.6675 57.8386 54.5729ZM23.4304 27.4738C24.983 27.4738 26.2532 26.2036 26.2532 24.651C26.2532 24.4238 26.163 24.2058 26.0022 24.0451C25.8415 23.8844 25.6236 23.7941 25.3963 23.7941C25.169 23.7941 24.9511 23.8844 24.7904 24.0451C24.6297 24.2058 24.5394 24.4238 24.5394 24.651C24.5394 25.2559 24.0454 25.76 23.4304 25.76C22.8255 25.76 22.3215 25.266 22.3215 24.651C22.3215 24.5385 22.2993 24.4271 22.2562 24.3231C22.2132 24.2191 22.15 24.1247 22.0705 24.0451C21.9909 23.9655 21.8964 23.9024 21.7925 23.8593C21.6885 23.8163 21.5771 23.7941 21.4645 23.7941C21.352 23.7941 21.2406 23.8163 21.1366 23.8593C21.0326 23.9024 20.9382 23.9655 20.8586 24.0451C20.779 24.1247 20.7159 24.2191 20.6728 24.3231C20.6298 24.4271 20.6076 24.5385 20.6076 24.651C20.6076 26.2137 21.8779 27.4738 23.4304 27.4738ZM31.3646 27.4738C32.9171 27.4738 34.1874 26.2036 34.1874 24.651C34.1874 24.4238 34.0971 24.2058 33.9364 24.0451C33.7757 23.8844 33.5577 23.7941 33.3304 23.7941C33.1032 23.7941 32.8852 23.8844 32.7245 24.0451C32.5638 24.2058 32.4735 24.4238 32.4735 24.651C32.4735 25.2559 31.9795 25.76 31.3646 25.76C30.7496 25.76 30.2556 25.266 30.2556 24.651C30.2556 24.5385 30.2334 24.4271 30.1904 24.3231C30.1473 24.2191 30.0842 24.1247 30.0046 24.0451C29.925 23.9655 29.8306 23.9024 29.7266 23.8593C29.6226 23.8163 29.5112 23.7941 29.3987 23.7941C29.2861 23.7941 29.1747 23.8163 29.0707 23.8593C28.9668 23.9024 28.8723 23.9655 28.7927 24.0451C28.7132 24.1247 28.65 24.2191 28.607 24.3231C28.5639 24.4271 28.5417 24.5385 28.5417 24.651C28.5417 26.2137 29.8019 27.4738 31.3646 27.4738ZM24.1563 31.3653C23.8236 31.698 23.8236 32.2424 24.1563 32.5751C25.0233 33.4421 26.1726 33.9159 27.3924 33.9159C28.6123 33.9159 29.7717 33.4421 30.6286 32.5751C30.9613 32.2424 30.9613 31.698 30.6286 31.3653C30.2959 31.0326 29.7515 31.0326 29.4188 31.3653C28.3401 32.444 26.4448 32.444 25.3661 31.3653C25.2877 31.2839 25.1938 31.2192 25.0898 31.175C24.9859 31.1308 24.8741 31.108 24.7612 31.108C24.6482 31.108 24.5365 31.1308 24.4325 31.175C24.3286 31.2192 24.2346 31.2839 24.1563 31.3653Z" fill="black"></path>
    <path id="Vector_2" d="M45.3365 41.8701C45.6188 41.8701 45.901 41.7289 46.0624 41.4668C46.3144 41.0635 46.1934 40.5393 45.7901 40.2873C43.199 38.6825 40.2673 37.7087 37.231 37.4443L37.1301 35.5389C38.5416 33.7444 39.4892 31.5869 39.8118 29.2379C41.8685 28.8851 43.4412 27.1107 43.4412 24.9533C43.4412 24.1065 43.179 23.2899 42.7153 22.5741C43.5319 20.9106 43.9755 19.0657 43.9755 17.2006V13.5814C43.9755 12.2103 43.5017 10.8695 42.6246 9.80082C41.8547 8.86431 40.817 8.18543 39.6505 7.85509C39.0456 6.48401 36.8378 2.41108 31.3534 0.687148C26.0002 -1.00654 20.0017 0.485518 15.6969 4.55844C11.5332 8.50031 7.56112 14.8416 11.8861 22.8362C11.5332 23.4814 11.3417 24.1972 11.3417 24.9331C11.3417 27.0704 12.8842 28.8448 14.9206 29.2178C15.1827 31.6575 16.1405 33.946 17.7031 35.8413L17.6124 37.4644C7.6821 38.3919 0 46.7293 0 56.7907V59.3816C0 60.9947 1.31059 62.3052 2.92363 62.3052H27.3914C27.4015 62.3052 27.4116 62.3153 27.4217 62.3153C27.4519 62.3153 27.4721 62.3052 27.5023 62.2952C27.5124 62.2952 27.5326 62.3052 27.5426 62.3052H44.0158C44.2431 62.3052 44.461 62.215 44.6217 62.0543C44.7825 61.8936 44.8727 61.6756 44.8727 61.4483C44.8727 61.221 44.7825 61.0031 44.6217 60.8424C44.461 60.6817 44.2431 60.5914 44.0158 60.5914H28.2887V50.5502L31.5954 44.6525L35.376 48.423C35.6482 48.6952 36.001 48.8364 36.364 48.8364C36.5555 48.8364 36.747 48.796 36.9386 48.7154C37.4729 48.4734 37.7955 47.9492 37.7653 47.3645L37.3318 39.1783C40.0034 39.4505 42.6044 40.3276 44.8929 41.7491C45.024 41.8297 45.1853 41.8701 45.3365 41.8701ZM27.4317 48.5642L22.2398 39.2993C23.8427 40.0251 25.5868 40.4183 27.3914 40.4183H27.4015C29.2867 40.4183 31.0913 39.9445 32.7145 39.138L27.4317 48.5642ZM16.5639 21.4248V19.5194C16.5639 19.2976 16.7454 19.1262 16.9571 19.1262H25.2138C27.2301 19.1262 29.1154 18.2189 30.3856 16.626L31.3434 15.4162C31.4341 15.3053 31.545 15.2751 31.6055 15.2751C31.666 15.265 31.787 15.2751 31.8979 15.3658C33.7024 16.8881 36.4345 17.5132 37.9064 17.7551C38.098 17.7854 38.229 17.9467 38.229 18.1382V27.5039C38.2189 33.5528 33.2689 38.6641 27.4015 38.6742H27.3914C24.498 38.6742 21.776 37.5451 19.7295 35.4986C18.7256 34.4974 17.9292 33.3078 17.386 31.9982C16.8428 30.6886 16.5634 29.2847 16.5639 27.8669V21.4248C16.5639 21.4349 16.5639 21.4349 16.5639 21.4248ZM19.3262 37.6257L22.391 43.0899L18.8524 46.6084L19.3262 37.6257ZM39.9429 27.4334V22.4329C40.3764 22.5842 40.7696 22.8463 41.0821 23.1991C41.4954 23.6931 41.7273 24.3081 41.7273 24.9331C41.7273 26.0925 40.9813 27.0805 39.9429 27.4334ZM16.8764 5.80855C20.7276 2.15905 26.0808 0.828288 30.8494 2.31027C36.495 4.08461 38.1484 8.65153 38.2089 8.84308C38.3097 9.13544 38.5516 9.34715 38.8541 9.40764C39.8017 9.59919 40.6788 10.1133 41.2938 10.8695C41.9088 11.6256 42.2515 12.5833 42.2515 13.5612V17.1805C42.2515 18.5919 41.9592 19.9831 41.4148 21.2836C40.9611 20.9913 40.4671 20.7796 39.9328 20.6687V18.1483C39.9328 17.1099 39.1868 16.2328 38.1685 16.0614C36.868 15.8497 34.4787 15.3053 32.9867 14.0552C32.7706 13.8724 32.5201 13.7345 32.2501 13.6497C31.98 13.5648 31.6958 13.5348 31.4139 13.5612C30.8393 13.6217 30.3352 13.904 29.9723 14.3476L29.0145 15.5574C28.5576 16.1327 27.9767 16.5974 27.3151 16.9169C26.6535 17.2363 25.9283 17.4022 25.1937 17.4023H16.9369C15.7775 17.4023 14.8299 18.3499 14.8299 19.5093V20.6485C14.2048 20.7796 13.61 21.0417 13.0959 21.4248C9.78913 14.6702 13.2572 9.22617 16.8764 5.80855ZM13.0656 24.9432C13.0656 24.3787 13.237 23.8443 13.5697 23.3806C13.8923 22.937 14.346 22.6144 14.85 22.443V27.4434C14.3305 27.2624 13.88 26.9248 13.5604 26.477C13.2408 26.0292 13.0679 25.4933 13.0656 24.9432ZM1.71385 59.3816V56.7907C1.71385 47.6972 8.58943 40.1562 17.5216 39.1884L17.0881 47.3443C17.0579 47.929 17.3805 48.4634 17.9148 48.6952C18.0963 48.7759 18.2979 48.8162 18.4895 48.8162C18.8524 48.8162 19.2052 48.6751 19.4674 48.4029L23.258 44.6324L26.5647 50.52V60.5712H2.92363C2.25826 60.5914 1.71385 60.047 1.71385 59.3816ZM32.4624 43.0899L35.5272 37.6257L36.001 46.6084L32.4624 43.0899Z" fill="black"></path>
  </g>
</svg>
