<?xml version="1.0" encoding="UTF-8"?>
<svg xmlns="http://www.w3.org/2000/svg" width="217" height="57" viewBox="0 0 217 57" fill="none">
  <path fill-rule="evenodd" clip-rule="evenodd" d="M39.8227 6.73702L39.4473 6.51253L41.0849 3.59961L41.4604 3.82409L39.8227 6.73702Z" fill="#010101"></path>
  <path fill-rule="evenodd" clip-rule="evenodd" d="M3.56754 14.5053C5.89815 10.2335 9.25887 6.65463 13.3245 4.11548L15.0159 6.9956C11.4313 9.23435 8.4681 12.3898 6.41316 16.1564C4.35821 19.923 3.28116 24.173 3.2866 28.4947V28.4968V28.5698H0.0215063V28.4981C0.0155171 23.5967 1.23709 18.7769 3.56754 14.5053Z" fill="#010101"></path>
  <path fill-rule="evenodd" clip-rule="evenodd" d="M15.4471 50.2615L15.8334 50.4914L14.2008 53.4075L13.8145 53.1774L15.4471 50.2615Z" fill="#010101"></path>
  <path fill-rule="evenodd" clip-rule="evenodd" d="M15.4486 6.73997L14.9859 7.01494L13.3555 4.09773L13.818 3.82275L15.4486 6.73997Z" fill="#010101"></path>
  <path fill-rule="evenodd" clip-rule="evenodd" d="M3.26509 28.5679C3.26952 33.021 4.42774 37.3918 6.61983 41.2284L3.80676 42.9377C1.31931 38.5842 0.00503393 33.6244 0 28.5714L3.26509 28.5679Z" fill="#010101"></path>
  <path fill-rule="evenodd" clip-rule="evenodd" d="M55.2728 28.498C55.2787 23.4485 53.9764 18.4889 51.5007 14.1323L48.6836 15.8349C50.8655 19.6741 52.013 24.0448 52.0076 28.4949V28.5755H55.2728V28.498Z" fill="#010101"></path>
  <path fill-rule="evenodd" clip-rule="evenodd" d="M40.0168 50.1481C40.1144 50.0922 40.1827 50.0529 40.2623 50.002L41.9842 52.8628C41.8346 52.9585 41.6629 53.0572 41.5395 53.1281C41.5026 53.1493 41.47 53.1679 41.4437 53.1834L39.834 50.2538C39.9068 50.2112 39.9658 50.1774 40.0168 50.1481Z" fill="#010101"></path>
  <path fill-rule="evenodd" clip-rule="evenodd" d="M48.8598 40.8649C50.914 37.1134 51.998 32.8799 52.0072 28.5718L55.2723 28.5792C55.2619 33.4651 54.0326 38.2661 51.7029 42.5204C49.3732 46.7749 46.0215 50.3399 41.9698 52.8724L40.2773 49.9929C43.8501 47.7597 46.8055 44.6164 48.8598 40.8649Z" fill="#010101"></path>
  <path fill-rule="evenodd" clip-rule="evenodd" d="M13.8145 3.82417C18.0135 1.31416 22.782 -0.00517988 27.6354 1.52836e-05C28.5364 0.000979695 29.2662 0.754452 29.2662 1.68358V28.5699H26.0012V3.42202C22.2917 3.67597 18.6808 4.8072 15.4518 6.7373L13.8145 3.82417Z" fill="#010101"></path>
  <path fill-rule="evenodd" clip-rule="evenodd" d="M26.002 55.3167V28.5706H29.2672V53.5785C32.9784 53.3252 36.5913 52.1938 39.8218 50.263L41.4591 53.1761C37.2582 55.6869 32.488 57.0062 27.6326 57.0002C26.7318 56.9991 26.002 56.2458 26.002 55.3167Z" fill="#010101"></path>
  <path fill-rule="evenodd" clip-rule="evenodd" d="M42.2729 5.28101V28.5758H39.0078V5.28101H42.2729Z" fill="#010101"></path>
  <path fill-rule="evenodd" clip-rule="evenodd" d="M42.2729 28.5759V51.7248H39.0078V28.5759H42.2729Z" fill="#010101"></path>
  <path fill-rule="evenodd" clip-rule="evenodd" d="M16.2651 28.5759V51.7248H13V28.5759H16.2651Z" fill="#010101"></path>
  <path fill-rule="evenodd" clip-rule="evenodd" d="M13 28.5758V5.28101H16.2651V28.5758H13Z" fill="#010101"></path>
  <path fill-rule="evenodd" clip-rule="evenodd" d="M39.5795 3.55636C40.0625 3.32563 40.6243 3.35217 41.0847 3.62749L41.4594 3.85156C41.4597 3.8517 41.4599 3.85183 41.4601 3.85198C45.6162 6.33429 49.0766 9.8864 51.5026 14.1609L48.6849 15.8618C46.8533 12.6348 44.3536 9.87437 41.3729 7.77257C40.0582 13.1867 36.8176 21.5151 28.8224 29.7601C28.5162 30.0759 28.1011 30.2532 27.668 30.2532H27.6353V28.5359L26.5137 27.3792C35.2346 18.3858 37.8607 9.37027 38.6589 4.78633C38.7531 4.24609 39.0966 3.78708 39.5795 3.55636Z" fill="#010101"></path>
  <path fill-rule="evenodd" clip-rule="evenodd" d="M13.9225 49.2712C15.2563 43.893 18.5125 35.6102 26.478 27.3809L28.7888 29.7597C20.0968 38.7397 17.4434 47.7039 16.6243 52.2565C16.5276 52.794 16.1839 53.2496 15.7025 53.4783C15.2211 53.7072 14.6619 53.6806 14.2028 53.4074L13.8152 53.1765C9.68018 50.7092 6.23276 47.1828 3.80664 42.9387L6.61936 41.2288C8.45377 44.4377 10.9499 47.1817 13.9225 49.2712Z" fill="#010101"></path>
  <path fill-rule="evenodd" clip-rule="evenodd" d="M15.7816 29.768C12.0583 33.5618 8.98155 37.9757 6.68077 42.8239L3.74805 41.3438C6.21008 36.1557 9.50248 31.4325 13.4868 27.3728L15.7816 29.768Z" fill="#010101"></path>
  <path fill-rule="evenodd" clip-rule="evenodd" d="M26.49 2.00257C26.49 2.00328 26.49 2.00404 28.1225 2.00754C29.7551 2.01105 29.7551 2.01191 29.7551 2.01282V2.01492V2.02002L29.7549 2.03396L29.7542 2.07655C29.7537 2.11144 29.7526 2.15924 29.7507 2.21954C29.7467 2.34012 29.7392 2.51073 29.7248 2.72802C29.6962 3.1625 29.6406 3.78395 29.5321 4.56532C29.3152 6.12772 28.8869 8.33218 28.0406 10.9607C26.3464 16.2234 22.9808 23.1733 16.3093 30.0561C16.0031 30.372 15.5877 30.5495 15.1546 30.5495H15.1219V28.8322L14 27.6758C20.2691 21.2079 23.3873 14.7287 24.9419 9.89979C25.7201 7.48256 26.1073 5.47568 26.3 4.08816C26.3963 3.39457 26.4437 2.85643 26.4673 2.50004C26.4789 2.32189 26.4847 2.18927 26.4874 2.10547C26.4888 2.06358 26.4895 2.0339 26.4897 2.01685L26.49 2.00081V2V2.00257Z" fill="#010101"></path>
  <path fill-rule="evenodd" clip-rule="evenodd" d="M51.5618 15.7456C49.1127 20.9602 45.8152 25.7033 41.8128 29.7693C41.5911 29.9946 41.3116 30.1497 41.0072 30.2166C40.774 30.2678 40.5331 30.2678 40.2999 30.2166L40.6448 28.5466L39.5215 27.3706C43.2582 23.5745 46.3368 19.1462 48.6233 14.2778L51.5618 15.7456ZM40.6535 28.5044L40.9801 26.9234C40.7648 26.8761 40.5423 26.8761 40.327 26.9234L40.6535 28.5044Z" fill="#010101"></path>
  <path fill-rule="evenodd" clip-rule="evenodd" d="M27.7457 46.409C29.4531 41.1747 32.8278 34.2558 39.483 27.3809L41.7938 29.7598C35.5357 36.2244 32.4075 42.6785 30.8403 47.4826C30.0559 49.8873 29.6616 51.8819 29.4637 53.26C29.3647 53.9489 29.315 54.4831 29.29 54.8368C29.2775 55.0136 29.2712 55.1452 29.2681 55.2282C29.2664 55.2697 29.2657 55.2991 29.2653 55.316L29.2651 55.3301C29.2651 55.3293 29.2651 55.3286 27.6326 55.3165C26 55.3046 26 55.3038 26 55.3028L26.0001 55.3008V55.2956L26.0003 55.2818L26.0011 55.2393C26.0019 55.2047 26.0032 55.1572 26.0055 55.0973C26.01 54.9775 26.0182 54.8079 26.0335 54.5921C26.0641 54.1604 26.1224 53.5431 26.2338 52.7668C26.4567 51.2142 26.8928 49.0233 27.7457 46.409Z" fill="#010101"></path>
  <path d="M78.3535 19.5012V42.4299H84.6824V28.7866C84.6824 25.3265 86.6534 24.0782 89.128 24.0782C91.4712 24.0782 92.6538 25.2827 92.6538 27.4726V42.4299H99.0046V28.7866C99.0046 25.3265 100.954 24.0782 103.45 24.0782C105.772 24.0782 106.976 25.2827 106.976 27.4726V42.4299H113.305V26.8594C113.305 22.0416 110.349 19.0632 105.377 19.0632C100.932 19.0632 99.136 20.5962 97.9754 22.2387H97.625C96.8804 20.8371 95.1941 19.0632 91.2742 19.0632C87.4856 19.0632 85.6679 20.4429 84.7481 21.6693H84.3977V19.5012H78.3535ZM117.099 30.9546C117.099 38.9479 121.83 42.9555 128.947 42.9555C136.064 42.9555 138.912 38.8822 139.634 35.7287V35.0717H134.027C133.677 36.4732 132.276 38.2033 128.837 38.2033C125.355 38.2033 123.341 35.8382 123.253 32.7285H140.072V30.1224C140.072 23.0708 135.867 18.9756 128.881 18.9756C121.808 18.9756 117.099 22.9613 117.099 30.9546ZM123.319 28.3486C123.581 25.8301 125.377 23.6621 128.794 23.6621C132.319 23.6621 134.006 25.7645 134.049 28.3486H123.319ZM143.088 25.9396C143.088 30.0786 146.044 32.0934 150.446 32.7941L155.001 33.5387C156.972 33.8672 158.089 34.4585 158.089 35.882C158.089 37.3492 156.665 38.3347 153.862 38.3347C151.081 38.3347 148.869 37.393 148.694 35.1155H142.737V35.7725C143.044 39.7362 146.854 42.9336 153.862 42.9336C160.892 42.9336 164.199 39.7144 164.199 35.5316C164.199 31.3488 161.089 29.4435 156.446 28.6771L151.891 27.9325C150.292 27.6697 149.176 27.2098 149.176 25.7864C149.176 24.3848 150.577 23.5745 153.271 23.5745C155.964 23.5745 157.892 24.341 158.045 26.6404H163.892V25.9834C163.498 21.7788 159.819 19.0194 153.227 19.0194C146.679 19.0194 143.088 21.7788 143.088 25.9396ZM167.919 10.8948V42.4299H174.357V29.5968C174.357 25.6769 176.744 24.122 179.635 24.122C182.307 24.122 183.818 25.4579 183.818 28.1296V42.4299H190.256V27.5821C190.256 21.9102 186.862 19.0632 181.387 19.0632C178.518 19.0632 176.219 19.7859 174.707 21.516H174.357V10.8948H167.919ZM195.272 26.0929V26.7499H201.251C201.448 24.6695 203.025 23.5745 205.806 23.5745C208.587 23.5745 209.945 24.6695 209.945 27.166V27.5821L202.193 28.5457C197.659 29.0932 194.046 31.1736 194.046 35.7944C194.046 40.218 197.572 42.8241 202.784 42.8241C207.098 42.8241 209.025 41.3787 209.814 40.0647H210.164V42.4299H216.121V28.0639C216.121 21.8007 212.222 18.9756 205.894 18.9756C199.543 18.9756 195.732 21.8007 195.272 26.0929ZM200.463 35.4221C200.463 33.8015 201.776 32.9912 203.66 32.7285L209.945 31.8963V32.8379C209.945 36.3856 207.536 38.1157 204.207 38.1157C201.842 38.1157 200.463 37.0645 200.463 35.4221Z" fill="#010101"></path>
</svg>
