<?xml version="1.0" encoding="UTF-8"?>
<svg xmlns="http://www.w3.org/2000/svg" width="427" height="432" viewBox="0 0 427 432" fill="none">
  <path d="M385.812 70.9854C385.601 70.9854 385.389 70.9375 385.187 70.8389C384.77 70.6333 384.344 70.4304 383.922 70.2389C383.592 70.0867 383.248 69.9374 382.831 69.7628C382.465 69.6078 382.181 69.3064 382.048 68.9317C381.758 68.109 381.448 67.2893 381.121 66.4948C380.826 65.7736 381.172 64.951 381.89 64.658C382.609 64.3622 383.431 64.7087 383.727 65.4271C383.992 66.075 384.248 66.7399 384.494 67.4104C384.702 67.5006 384.896 67.5879 385.088 67.6752C385.533 67.878 385.99 68.095 386.435 68.3147C387.13 68.6612 387.415 69.5064 387.071 70.2022C386.829 70.6981 386.33 70.9854 385.812 70.9854Z" fill="black"></path>
  <path d="M378.745 60.1023C378.272 60.1023 377.81 59.8656 377.545 59.4318C376.722 58.0964 375.827 56.7949 374.88 55.5638C374.407 54.9468 374.522 54.0622 375.139 53.5889C375.756 53.1156 376.641 53.2311 377.114 53.8481C378.117 55.1553 379.069 56.5357 379.943 57.9528C380.351 58.6148 380.145 59.4825 379.483 59.891C379.252 60.0347 378.996 60.1023 378.745 60.1023ZM370.488 50.1153C370.15 50.1153 369.809 49.9941 369.539 49.749C368.389 48.701 367.166 47.7009 365.91 46.7741C365.282 46.312 365.149 45.4302 365.609 44.8048C366.068 44.1766 366.95 44.0442 367.578 44.5034C368.916 45.4866 370.215 46.5515 371.437 47.6643C372.012 48.1883 372.054 49.0785 371.53 49.6533C371.251 49.9603 370.871 50.1153 370.488 50.1153ZM359.788 42.8102C359.577 42.8102 359.363 42.7624 359.16 42.6609C359.047 42.6046 358.935 42.5482 358.822 42.4947C357.523 41.8608 356.191 41.2861 354.855 40.7847C354.128 40.5114 353.759 39.7 354.033 38.9704C354.306 38.2435 355.117 37.8745 355.847 38.1478C357.264 38.6802 358.681 39.2915 360.056 39.9649C360.174 40.024 360.295 40.0832 360.416 40.1423C361.112 40.4889 361.397 41.334 361.047 42.0327C360.802 42.5229 360.304 42.8102 359.788 42.8102ZM347.502 38.6999C347.418 38.6999 347.333 38.6915 347.246 38.6774C345.719 38.3985 344.153 38.1956 342.592 38.0773C341.817 38.0182 341.234 37.342 341.293 36.5645C341.352 35.7897 342.026 35.2038 342.806 35.2686C344.465 35.3953 346.128 35.6094 347.753 35.9052C348.519 36.0461 349.026 36.7786 348.886 37.5449C348.762 38.2238 348.17 38.6999 347.502 38.6999Z" fill="black"></path>
  <path d="M331.893 38.4711C331.504 38.4711 331.133 38.3105 330.862 38.0231C330.282 37.4005 329.668 36.7808 329.039 36.1835C328.476 35.6482 328.453 34.7552 328.989 34.1917C329.524 33.6283 330.417 33.6058 330.98 34.141C331.471 34.6059 331.952 35.0848 332.417 35.5665C333.085 35.4792 333.755 35.4031 334.423 35.3412C335.201 35.2707 335.882 35.8398 335.956 36.6145C336.026 37.3893 335.457 38.0738 334.682 38.1471C333.823 38.226 332.955 38.3302 332.099 38.4542C332.028 38.4654 331.961 38.4711 331.893 38.4711Z" fill="black"></path>
  <path d="M322.513 30.7577C322.254 30.7577 321.995 30.6872 321.758 30.5379C320.246 29.5773 318.637 28.6673 316.978 27.8334C316.282 27.4841 316.003 26.6361 316.352 25.9431C316.701 25.2472 317.549 24.9683 318.243 25.3176C319.986 26.1938 321.68 27.1516 323.271 28.163C323.928 28.58 324.122 29.4505 323.705 30.1069C323.435 30.5267 322.978 30.7577 322.513 30.7577ZM308.822 24.419C308.689 24.419 308.557 24.3992 308.422 24.3598C306.692 23.8499 304.906 23.4583 303.114 23.1963C302.345 23.0836 301.813 22.368 301.925 21.5989C302.038 20.8298 302.753 20.2974 303.523 20.4101C305.447 20.6918 307.362 21.1116 309.219 21.6581C309.966 21.8778 310.391 22.661 310.171 23.4076C309.991 24.0217 309.43 24.419 308.822 24.419Z" fill="black"></path>
  <path d="M291.19 23.232C290.835 23.232 290.492 23.0968 290.23 22.8517C289.714 22.37 289.196 21.8995 288.689 21.4572C288.556 21.3417 288.421 21.2234 288.283 21.1079C287.691 20.6036 287.621 19.7134 288.128 19.1217C288.632 18.5301 289.522 18.4597 290.114 18.9668C290.258 19.0879 290.399 19.2119 290.539 19.3359C290.909 19.6598 291.283 19.9951 291.658 20.3388C292.351 20.2486 293.047 20.1754 293.731 20.1162C294.5 20.0514 295.188 20.6289 295.253 21.4037C295.317 22.1784 294.74 22.8602 293.965 22.925C293.117 22.9954 292.25 23.094 291.393 23.218C291.325 23.2264 291.258 23.232 291.19 23.232Z" fill="black"></path>
  <path d="M282.67 16.6158C282.411 16.6158 282.149 16.5453 281.915 16.3932C280.6 15.5537 279.23 14.7592 277.847 14.0324C277.16 13.669 276.895 12.8182 277.256 12.1308C277.619 11.4434 278.47 11.1785 279.157 11.5391C280.608 12.3026 282.045 13.1365 283.428 14.0183C284.084 14.4353 284.276 15.3086 283.859 15.9622C283.591 16.3848 283.135 16.6158 282.67 16.6158ZM271.075 10.9335C270.917 10.9335 270.759 10.9081 270.601 10.8518C269.131 10.3278 267.618 9.86009 266.111 9.46286C265.358 9.26566 264.911 8.49375 265.108 7.74155C265.305 6.98935 266.074 6.5386 266.829 6.73862C268.412 7.15557 270.001 7.64576 271.548 8.19794C272.28 8.45994 272.663 9.26566 272.401 9.99814C272.196 10.5729 271.652 10.9335 271.075 10.9335ZM240.826 8.77828C240.173 8.77828 239.589 8.3219 239.449 7.65986C239.288 6.89921 239.775 6.15265 240.539 5.99207C242.145 5.65401 243.787 5.38637 245.421 5.1948C246.199 5.10464 246.894 5.65682 246.985 6.42874C247.075 7.20065 246.523 7.90213 245.751 7.99229C244.201 8.1754 242.643 8.42895 241.119 8.75012C241.021 8.76702 240.922 8.77828 240.826 8.77828ZM258.499 8.00919C258.445 8.00919 258.389 8.00636 258.335 8.00073C256.772 7.82043 255.194 7.70211 253.647 7.65422C252.87 7.62886 252.258 6.98091 252.284 6.20336C252.309 5.42581 252.963 4.8201 253.735 4.83982C255.363 4.89053 257.02 5.01448 258.659 5.20324C259.431 5.29339 259.986 5.99207 259.896 6.76398C259.811 7.48237 259.203 8.00919 258.499 8.00919Z" fill="black"></path>
  <path d="M230.544 12.0306C230.257 12.0306 229.97 11.9432 229.727 11.7714C229.003 11.2586 228.279 10.7685 227.57 10.3205C226.913 9.90358 226.716 9.03305 227.133 8.37664C227.55 7.72023 228.42 7.52303 229.077 7.93998C229.618 8.28086 230.167 8.64427 230.716 9.0246C231.063 8.88092 231.392 8.74851 231.716 8.62174C231.987 8.51468 232.26 8.41045 232.536 8.30903C233.266 8.03576 234.077 8.40763 234.348 9.13447C234.621 9.86413 234.249 10.6755 233.522 10.9459C233.263 11.0445 233.001 11.1431 232.742 11.2446C232.224 11.4474 231.685 11.6671 231.097 11.9179C230.919 11.9939 230.73 12.0306 230.544 12.0306Z" fill="black"></path>
  <path d="M175.069 9.81251C174.591 9.81251 174.126 9.56739 173.861 9.12791C173.461 8.46023 173.678 7.59535 174.343 7.1953C175.872 6.27689 177.47 5.43454 179.087 4.6908C179.794 4.36682 180.631 4.6739 180.955 5.38102C181.279 6.08814 180.969 6.92485 180.264 7.24883C178.74 7.95032 177.236 8.74477 175.794 9.60966C175.565 9.7477 175.317 9.81251 175.069 9.81251ZM220.528 6.51636C220.351 6.51636 220.17 6.48256 219.996 6.41213C218.697 5.88249 217.359 5.40355 216.02 4.99224C215.753 4.91054 215.485 4.82885 215.215 4.75279C214.468 4.53586 214.037 3.75549 214.254 3.00893C214.471 2.26237 215.251 1.83134 215.998 2.04827C216.282 2.12997 216.567 2.21447 216.849 2.30181C218.266 2.73847 219.683 3.24558 221.06 3.80621C221.782 4.0992 222.125 4.92181 221.832 5.64302C221.61 6.18674 221.083 6.51636 220.528 6.51636ZM187.941 4.4598C187.313 4.4598 186.741 4.03722 186.578 3.40053C186.386 2.64551 186.84 1.87923 187.595 1.68766C189.302 1.25099 191.066 0.896017 192.843 0.628382C193.612 0.512876 194.331 1.04252 194.446 1.81161C194.562 2.58071 194.032 3.2991 193.263 3.41461C191.581 3.66816 189.908 4.00341 188.293 4.41754C188.172 4.44571 188.057 4.4598 187.941 4.4598ZM207.005 3.11881C206.955 3.11881 206.904 3.11598 206.853 3.11035C205.188 2.93004 203.487 2.83145 201.791 2.81736C201.013 2.81173 200.388 2.17503 200.393 1.39748C200.399 0.619924 201.03 -0.0111202 201.813 0.000148613C203.602 0.0170519 205.397 0.121282 207.155 0.310035C207.929 0.394552 208.487 1.08759 208.403 1.86232C208.327 2.58353 207.715 3.11881 207.005 3.11881Z" fill="black"></path>
  <path d="M166.034 16.8173C165.949 16.8173 165.865 16.8089 165.78 16.7948C164.921 16.637 164.051 16.499 163.197 16.3807C162.425 16.2736 161.887 15.5637 161.994 14.7918C162.101 14.0198 162.811 13.4817 163.583 13.5888C164.239 13.679 164.904 13.7832 165.569 13.8959C166.056 13.431 166.558 12.9718 167.062 12.5267C167.645 12.014 168.536 12.0703 169.051 12.6535C169.564 13.2366 169.508 14.1269 168.924 14.6424C168.276 15.2115 167.637 15.8088 167.023 16.4117C166.755 16.6737 166.4 16.8173 166.034 16.8173Z" fill="black"></path>
  <path d="M126.485 24.2479C126.017 24.2479 125.561 24.0168 125.293 23.5914C124.876 22.935 125.073 22.0645 125.732 21.6476C127.116 20.7742 128.547 19.9516 129.986 19.2079C130.677 18.8501 131.527 19.1205 131.885 19.8107C132.243 20.501 131.972 21.3518 131.282 21.7095C129.913 22.4195 128.552 23.1998 127.237 24.0309C127 24.1774 126.741 24.2479 126.485 24.2479ZM138.035 18.7008C137.449 18.7008 136.903 18.3317 136.703 17.7485C136.452 17.0132 136.843 16.2103 137.579 15.9596L137.739 15.9061C139.23 15.4018 140.762 14.9567 142.292 14.582C143.047 14.3989 143.81 14.8609 143.994 15.6159C144.177 16.3709 143.715 17.1344 142.96 17.3175C141.509 17.6725 140.055 18.0922 138.641 18.5712L138.489 18.6219C138.339 18.6754 138.187 18.7008 138.035 18.7008ZM150.572 16.0469C149.851 16.0469 149.236 15.4948 149.172 14.7623C149.104 13.9875 149.676 13.303 150.451 13.2354C152.068 13.0917 153.719 13.0184 155.353 13.0156C155.353 13.0156 155.353 13.0156 155.355 13.0156C156.133 13.0156 156.764 13.6467 156.764 14.4214C156.764 15.199 156.136 15.83 155.358 15.8328C153.803 15.8357 152.237 15.9033 150.701 16.0413C150.653 16.0441 150.611 16.0469 150.572 16.0469Z" fill="black"></path>
  <path d="M117.984 30.7951C117.931 30.7951 117.88 30.7923 117.827 30.7867C116.965 30.6881 116.088 30.612 115.224 30.5529C114.446 30.5022 113.86 29.8288 113.914 29.0541C113.964 28.2794 114.635 27.6906 115.412 27.7441C116.105 27.7892 116.804 27.8483 117.5 27.9216C118.018 27.4511 118.545 26.9891 119.075 26.5411C119.669 26.0369 120.557 26.1101 121.061 26.7045C121.565 27.299 121.489 28.1864 120.897 28.6907C120.235 29.2513 119.579 29.8345 118.942 30.4233C118.68 30.6627 118.339 30.7951 117.984 30.7951Z" fill="black"></path>
  <path d="M70.6868 45.9241C70.3206 45.9241 69.9515 45.7805 69.6754 45.4959C69.1345 44.9381 69.1458 44.0451 69.7036 43.5042C71.1601 42.0871 72.7518 40.7348 74.4309 39.4868C75.0563 39.022 75.9381 39.1516 76.4029 39.777C76.8677 40.4024 76.7382 41.2842 76.1127 41.749C74.5323 42.9238 73.0363 44.1972 71.6672 45.5269C71.3939 45.7917 71.0389 45.9241 70.6868 45.9241ZM83.9587 36.8133C83.4347 36.8133 82.9304 36.5203 82.6881 36.016C82.35 35.3145 82.6459 34.4722 83.3473 34.1369C83.9953 33.8242 84.6658 33.5172 85.3363 33.2242C86.5505 32.6917 87.7844 32.1902 89.0099 31.7338C89.7396 31.4606 90.5509 31.8324 90.8214 32.5593C91.0947 33.2889 90.7228 34.1003 89.996 34.3708C88.8212 34.8103 87.6351 35.292 86.4688 35.8019C85.8293 36.0836 85.1898 36.3766 84.57 36.6724C84.37 36.7682 84.1643 36.8133 83.9587 36.8133ZM99.2364 31.6522C98.58 31.6522 97.994 31.1929 97.8588 30.5253C97.7039 29.7618 98.194 29.0181 98.9575 28.8631C100.972 28.4518 103.02 28.1363 105.046 27.9278C105.82 27.8433 106.51 28.4095 106.592 29.1843C106.671 29.959 106.11 30.6492 105.336 30.7309C103.403 30.9309 101.445 31.2324 99.521 31.624C99.4252 31.6437 99.3322 31.6522 99.2364 31.6522Z" fill="black"></path>
  <path d="M60.3815 56.7831C59.7758 56.7831 59.2151 56.3887 59.032 55.7773C58.8095 55.0308 59.232 54.2476 59.9758 54.0222C60.6519 53.8194 61.345 53.6363 62.0408 53.4729C62.3845 52.8559 62.7451 52.2446 63.117 51.6473C63.5283 50.9881 64.3988 50.7852 65.058 51.1994C65.7173 51.6107 65.9201 52.4812 65.506 53.1404C65.0524 53.8673 64.6157 54.6195 64.2101 55.3745C64.0157 55.7379 63.6691 55.9999 63.2635 56.0872C62.4268 56.2675 61.59 56.4816 60.7815 56.7239C60.6519 56.7634 60.5167 56.7831 60.3815 56.7831Z" fill="black"></path>
  <path d="M45.8642 65.9892C45.529 65.9892 45.1937 65.8709 44.9261 65.6314C44.3458 65.1131 44.2979 64.2228 44.8162 63.6425C46.3263 61.955 48.0081 60.4252 49.8168 59.0899C50.4422 58.6278 51.324 58.7603 51.786 59.3885C52.248 60.0139 52.1156 60.8957 51.4874 61.3577C49.8337 62.5776 48.2927 63.9777 46.9122 65.5215C46.6362 65.8314 46.2502 65.9892 45.8642 65.9892Z" fill="black"></path>
  <path d="M36.5345 78.6266C35.9851 78.6266 35.4639 78.3026 35.2357 77.7645C34.9343 77.049 35.2695 76.2207 35.9851 75.9192C36.619 75.6516 37.2697 75.3896 37.9233 75.1417C38.1769 74.474 38.4445 73.8176 38.7262 73.1809C39.0389 72.4682 39.87 72.1442 40.5828 72.4597C41.2955 72.7724 41.6195 73.6035 41.304 74.3162C40.9631 75.0881 40.6419 75.8967 40.3461 76.7137C40.2053 77.1024 39.8982 77.4123 39.5094 77.556C38.6896 77.8575 37.8726 78.1814 37.081 78.5167C36.9035 78.5928 36.7176 78.6266 36.5345 78.6266Z" fill="black"></path>
  <path d="M3.69767 133.715C2.92575 133.715 2.29751 133.092 2.28906 132.317V132.027C2.28906 130.382 2.41302 128.714 2.65812 127.063C2.77362 126.294 3.49203 125.762 4.25831 125.877C5.02741 125.993 5.55985 126.708 5.44434 127.477C5.21897 128.99 5.10628 130.52 5.10628 132.027V132.292C5.11191 133.07 4.48932 133.706 3.70895 133.712C3.70895 133.715 3.7033 133.715 3.69767 133.715ZM6.32049 120.505C6.14301 120.505 5.9599 120.471 5.78523 120.398C5.06684 120.102 4.72313 119.279 5.01894 118.558C5.66972 116.978 6.44445 115.397 7.32342 113.862C7.70938 113.186 8.57145 112.952 9.24476 113.341C9.92089 113.727 10.1547 114.589 9.76596 115.262C8.94896 116.69 8.22774 118.158 7.62204 119.629C7.4023 120.178 6.87548 120.505 6.32049 120.505ZM11.0816 108.087C10.9999 108.087 10.9182 108.081 10.8365 108.064C10.0702 107.929 9.55748 107.199 9.69271 106.433C9.76595 106.007 9.85047 105.579 9.9378 105.157C10.2083 103.872 10.5491 102.587 10.952 101.345C11.1915 100.604 11.9859 100.198 12.7268 100.438C13.4678 100.677 13.8734 101.472 13.634 102.213C13.2621 103.362 12.9466 104.548 12.6958 105.74C12.6141 106.131 12.5353 106.529 12.4677 106.92C12.3465 107.605 11.7521 108.087 11.0816 108.087ZM15.8511 95.4852C15.6004 95.4852 15.344 95.4176 15.113 95.2767C14.451 94.8682 14.2453 94.0005 14.6538 93.3385C15.561 91.865 16.5864 90.4311 17.702 89.0788C18.1951 88.4788 19.0853 88.3914 19.6854 88.8873C20.2854 89.3803 20.3727 90.2705 19.8769 90.8706C18.843 92.1243 17.8936 93.454 17.0541 94.8175C16.7864 95.2485 16.3244 95.4852 15.8511 95.4852ZM24.8606 85.4475C24.4464 85.4475 24.0351 85.2643 23.7562 84.915C23.2717 84.3065 23.3759 83.4191 23.9844 82.9373C25.3141 81.8809 26.7453 80.8723 28.2356 79.937C28.8948 79.5229 29.7654 79.7229 30.1767 80.3821C30.5908 81.0413 30.3908 81.9118 29.7315 82.3232C28.3286 83.2049 26.9819 84.1543 25.7339 85.1432C25.4775 85.3488 25.1676 85.4475 24.8606 85.4475Z" fill="black"></path>
  <path d="M4.66197 147.109C4.48731 147.109 4.30701 147.076 4.13516 147.005C3.41395 146.715 3.06461 145.892 3.3576 145.171C3.62524 144.506 3.91261 143.839 4.21405 143.182C3.96895 142.489 3.74639 141.788 3.54919 141.089C3.3379 140.34 3.77174 139.562 4.52111 139.351C5.27049 139.14 6.04806 139.573 6.25935 140.323C6.49036 141.137 6.75798 141.957 7.05661 142.757C7.18901 143.112 7.17212 143.506 7.01154 143.847C6.64248 144.627 6.29315 145.43 5.97199 146.228C5.74661 146.777 5.21978 147.109 4.66197 147.109Z" fill="black"></path>
  <path d="M9.17872 188.786C8.75051 188.786 8.3251 188.592 8.04902 188.22C6.90523 186.693 5.87132 185.107 4.97545 183.512C4.59512 182.833 4.83458 181.974 5.51353 181.594C6.19247 181.213 7.05172 181.453 7.43205 182.132C8.26876 183.622 9.23507 185.101 10.3056 186.532C10.7704 187.155 10.6437 188.037 10.0211 188.504C9.76752 188.693 9.47171 188.786 9.17872 188.786ZM2.73858 175.773C2.11597 175.773 1.54689 175.357 1.37786 174.728C1.18065 173.985 1.00317 173.227 0.853862 172.474C0.639753 171.39 0.459442 170.291 0.315764 169.209C0.214345 168.437 0.758066 167.73 1.52998 167.629C2.3019 167.527 3.00903 168.071 3.11045 168.843C3.24568 169.866 3.41471 170.903 3.61755 171.928C3.75559 172.621 3.91616 173.32 4.09928 174.004C4.2993 174.756 3.85137 175.528 3.10199 175.728C2.98085 175.759 2.85972 175.773 2.73858 175.773ZM1.40884 161.287C1.37785 161.287 1.34688 161.287 1.31589 161.285C0.538338 161.234 -0.047652 160.563 0.0030578 159.786C0.124198 157.926 0.360844 156.053 0.707361 154.222C0.851039 153.458 1.58634 152.954 2.35262 153.098C3.11609 153.241 3.62036 153.977 3.47669 154.743C3.15271 156.464 2.93014 158.222 2.81463 159.972C2.76392 160.715 2.14695 161.287 1.40884 161.287Z" fill="black"></path>
  <path d="M17.5343 200.011C16.8243 200.011 16.2158 199.479 16.1369 198.757C16.0581 198.047 15.9989 197.326 15.9623 196.608C15.4214 196.14 14.8889 195.667 14.3818 195.196C13.8099 194.667 13.7761 193.776 14.3058 193.205C14.8354 192.633 15.7256 192.599 16.2975 193.129C16.9229 193.706 17.5794 194.289 18.2555 194.858C18.5598 195.115 18.74 195.489 18.7541 195.887C18.7823 196.74 18.8471 197.602 18.9401 198.45C19.0246 199.222 18.4668 199.921 17.6949 200.005C17.6385 200.008 17.5878 200.011 17.5343 200.011Z" fill="black"></path>
  <path d="M107.515 258.538C107.507 258.538 107.501 258.538 107.493 258.538C105.687 258.51 103.864 258.428 102.081 258.296C101.306 258.236 100.723 257.563 100.782 256.786C100.841 256.011 101.517 255.43 102.292 255.484C104.022 255.614 105.785 255.692 107.538 255.718C108.315 255.729 108.938 256.369 108.924 257.149C108.91 257.921 108.281 258.538 107.515 258.538ZM93.277 257.172C93.1953 257.172 93.1108 257.163 93.0263 257.149C91.2486 256.828 89.4625 256.445 87.7215 256.014C86.9664 255.828 86.5072 255.061 86.6932 254.306C86.8791 253.551 87.6454 253.089 88.4004 253.278C90.0823 253.695 91.8092 254.064 93.5277 254.374C94.294 254.512 94.8011 255.245 94.6631 256.011C94.5363 256.693 93.9447 257.172 93.277 257.172ZM79.4755 253.411C79.3121 253.411 79.1487 253.382 78.9853 253.323C77.2949 252.698 75.6046 252.005 73.9594 251.267C73.2494 250.948 72.9339 250.114 73.2523 249.404C73.5706 248.695 74.4045 248.379 75.1144 248.697C76.7005 249.41 78.3317 250.078 79.9629 250.683C80.6925 250.954 81.0644 251.765 80.7939 252.495C80.5854 253.058 80.0474 253.411 79.4755 253.411ZM66.5698 247.246C66.3247 247.246 66.0768 247.182 65.8514 247.046C64.302 246.122 62.7638 245.136 61.2819 244.111C60.6424 243.669 60.4818 242.79 60.9241 242.15C61.3664 241.511 62.2454 241.35 62.8849 241.792C64.3132 242.781 65.7951 243.733 67.291 244.624C67.9587 245.021 68.1785 245.886 67.7812 246.553C67.5164 246.999 67.0487 247.246 66.5698 247.246ZM55.0023 238.831C54.6727 238.831 54.3403 238.716 54.0727 238.479C52.7119 237.282 51.3822 236.026 50.1201 234.749C49.5736 234.194 49.5792 233.304 50.1342 232.758C50.6892 232.211 51.5794 232.217 52.126 232.772C53.3402 234.003 54.622 235.211 55.932 236.366C56.5152 236.879 56.5743 237.769 56.0588 238.355C55.7827 238.671 55.3939 238.831 55.0023 238.831ZM43.2687 231.555C43.125 231.555 42.9757 231.532 42.832 231.484C41.7727 231.14 40.7191 230.746 39.6992 230.312C39.0287 230.028 38.3583 229.721 37.7075 229.399C37.0088 229.056 36.7243 228.211 37.068 227.512C37.4117 226.813 38.2568 226.529 38.9555 226.872C39.5584 227.171 40.1782 227.456 40.8008 227.718C41.7474 228.118 42.7249 228.484 43.7081 228.802C44.4491 229.044 44.8519 229.839 44.6097 230.577C44.4124 231.177 43.8603 231.555 43.2687 231.555ZM30.8363 224.627C30.5151 224.627 30.1911 224.517 29.9263 224.295C28.5318 223.114 27.1993 221.813 25.9681 220.432C25.4498 219.852 25.5033 218.962 26.0837 218.443C26.664 217.925 27.5542 217.978 28.0726 218.559C29.2164 219.841 30.4503 221.049 31.7462 222.145C32.3407 222.647 32.4139 223.537 31.9125 224.131C31.6336 224.458 31.2363 224.627 30.8363 224.627ZM21.855 213.575C21.3564 213.575 20.8746 213.31 20.6183 212.846C19.7252 211.22 18.9476 209.53 18.3053 207.822C18.032 207.096 18.3983 206.281 19.128 206.008C19.8548 205.732 20.669 206.101 20.9422 206.831C21.5395 208.417 22.2607 209.983 23.089 211.49C23.4636 212.172 23.2129 213.029 22.5311 213.403C22.317 213.519 22.0832 213.575 21.855 213.575Z" fill="black"></path>
  <path d="M120.711 260.187C120.277 260.187 119.852 259.987 119.576 259.613C119.204 259.106 118.838 258.59 118.48 258.074C117.86 258.134 117.235 258.19 116.618 258.238C115.843 258.3 115.164 257.72 115.102 256.945C115.04 256.17 115.621 255.491 116.395 255.429C117.269 255.362 118.153 255.28 119.024 255.187C119.542 255.131 120.049 255.37 120.339 255.804C120.818 256.519 121.325 257.238 121.844 257.945C122.303 258.573 122.168 259.455 121.542 259.914C121.292 260.1 121.001 260.187 120.711 260.187Z" fill="black"></path>
  <path d="M207.537 310.62C207.461 310.62 207.385 310.614 207.306 310.6C205.607 310.321 203.883 309.932 202.185 309.448C201.438 309.234 201.004 308.453 201.218 307.707C201.432 306.957 202.213 306.526 202.959 306.74C204.554 307.197 206.171 307.56 207.763 307.822C208.532 307.949 209.05 308.673 208.923 309.439C208.813 310.13 208.216 310.62 207.537 310.62ZM179.472 307.752C178.32 307.752 177.154 307.715 176.01 307.642C175.232 307.591 174.643 306.924 174.694 306.146C174.745 305.368 175.413 304.782 176.19 304.83C177.824 304.935 179.492 304.96 181.143 304.909C181.915 304.881 182.571 305.495 182.596 306.273C182.622 307.05 182.01 307.701 181.233 307.726C180.647 307.743 180.055 307.752 179.472 307.752ZM189.699 306.802C189.031 306.802 188.439 306.326 188.315 305.647C188.175 304.881 188.682 304.149 189.448 304.008C190.724 303.774 192.017 303.492 193.293 303.171C193.626 303.086 193.975 303.129 194.282 303.284C194.584 303.439 194.891 303.594 195.206 303.746C195.905 304.087 196.195 304.932 195.854 305.63C195.513 306.329 194.668 306.619 193.97 306.278C193.8 306.197 193.634 306.112 193.468 306.03C192.299 306.315 191.121 306.566 189.958 306.78C189.868 306.794 189.783 306.802 189.699 306.802ZM167.631 306.383C167.524 306.383 167.415 306.371 167.305 306.343C166.406 306.129 165.507 305.89 164.628 305.628C163.848 305.397 163.059 305.14 162.284 304.867C161.549 304.608 161.163 303.805 161.422 303.07C161.681 302.334 162.484 301.951 163.217 302.208C163.947 302.464 164.693 302.706 165.428 302.923C166.259 303.171 167.11 303.396 167.955 303.599C168.713 303.78 169.181 304.54 168.998 305.295C168.848 305.949 168.271 306.383 167.631 306.383ZM154.951 301.416C154.717 301.416 154.481 301.357 154.264 301.236C152.757 300.39 151.269 299.452 149.841 298.449C149.204 298.001 149.049 297.125 149.497 296.489C149.945 295.852 150.821 295.697 151.458 296.145C152.81 297.094 154.219 297.982 155.644 298.782C156.323 299.162 156.563 300.021 156.182 300.7C155.923 301.157 155.444 301.416 154.951 301.416ZM144.049 293.249C143.694 293.249 143.341 293.116 143.068 292.849C141.814 291.632 140.617 290.344 139.507 289.023C139.006 288.429 139.085 287.538 139.679 287.04C140.273 286.538 141.164 286.614 141.665 287.211C142.716 288.46 143.849 289.679 145.035 290.832C145.592 291.373 145.604 292.266 145.063 292.823C144.781 293.105 144.415 293.249 144.049 293.249ZM135.662 282.521C135.174 282.521 134.704 282.27 134.442 281.817C134.273 281.524 134.107 281.231 133.943 280.935C133.264 279.709 132.63 278.436 132.058 277.154C131.74 276.444 132.058 275.61 132.768 275.292C133.478 274.974 134.312 275.292 134.631 276.002C135.171 277.21 135.769 278.411 136.408 279.568C136.563 279.847 136.718 280.123 136.879 280.399C137.268 281.073 137.039 281.935 136.366 282.324C136.146 282.459 135.901 282.521 135.662 282.521ZM129.81 270.345C129.467 270.345 129.123 270.221 128.85 269.967C127.573 268.778 126.34 267.55 125.176 266.316C124.644 265.75 124.669 264.86 125.235 264.324C125.801 263.792 126.692 263.817 127.227 264.384C128.348 265.572 129.54 266.759 130.771 267.905C131.34 268.435 131.371 269.328 130.841 269.897C130.565 270.196 130.188 270.345 129.81 270.345Z" fill="black"></path>
  <path d="M219.756 313.364C219.206 313.364 218.685 313.04 218.457 312.505C218.246 312.006 218.04 311.496 217.837 310.987C217.285 311.037 216.727 311.08 216.172 311.108C215.398 311.15 214.733 310.55 214.693 309.775C214.654 309 215.251 308.336 216.026 308.296C216.885 308.251 217.75 308.178 218.595 308.074C219.243 307.992 219.86 308.369 220.085 308.981C220.39 309.801 220.714 310.617 221.049 311.409C221.353 312.125 221.018 312.953 220.3 313.254C220.125 313.328 219.939 313.364 219.756 313.364Z" fill="black"></path>
  <path d="M249.314 341.966C249.151 341.966 248.984 341.938 248.821 341.876C247.128 341.245 245.46 340.529 243.866 339.751C243.167 339.411 242.877 338.568 243.218 337.867C243.558 337.168 244.401 336.878 245.102 337.219C246.615 337.957 248.198 338.636 249.807 339.236C250.537 339.506 250.906 340.318 250.635 341.047C250.424 341.614 249.886 341.966 249.314 341.966ZM236.899 335.345C236.611 335.345 236.321 335.258 236.07 335.075C234.617 334.018 233.202 332.872 231.873 331.669C231.295 331.148 231.25 330.257 231.771 329.68C232.292 329.102 233.183 329.057 233.76 329.578C235.017 330.714 236.352 331.796 237.724 332.796C238.352 333.252 238.493 334.134 238.037 334.762C237.763 335.142 237.335 335.345 236.899 335.345ZM226.813 325.541C226.39 325.541 225.976 325.353 225.697 324.995C224.607 323.586 223.573 322.096 222.615 320.563C222.204 319.904 222.407 319.034 223.066 318.622C223.725 318.211 224.596 318.411 225.007 319.073C225.911 320.527 226.895 321.938 227.926 323.274C228.402 323.888 228.289 324.775 227.672 325.248C227.419 325.446 227.114 325.541 226.813 325.541Z" fill="black"></path>
  <path d="M261.313 347.445C260.741 347.445 260.203 347.096 259.992 346.53C259.772 345.944 259.563 345.344 259.369 344.741C258.755 344.631 258.141 344.51 257.538 344.383C256.777 344.222 256.29 343.476 256.448 342.715C256.608 341.954 257.355 341.467 258.115 341.625C258.963 341.802 259.828 341.966 260.688 342.107C261.217 342.194 261.651 342.577 261.806 343.09C262.054 343.915 262.33 344.741 262.629 345.541C262.899 346.27 262.53 347.082 261.8 347.352C261.643 347.414 261.476 347.445 261.313 347.445Z" fill="black"></path>
  <path d="M342.071 431.424C340.891 431.424 339.721 431.365 338.595 431.247C337.82 431.165 337.259 430.472 337.341 429.7C337.423 428.926 338.116 428.365 338.888 428.447C339.921 428.554 340.986 428.607 342.079 428.61C342.68 428.61 343.285 428.596 343.936 428.565C344.711 428.531 345.373 429.131 345.407 429.909C345.443 430.686 344.84 431.346 344.063 431.379C343.37 431.41 342.719 431.427 342.077 431.427C342.077 431.424 342.074 431.424 342.071 431.424ZM352.807 430.405C352.165 430.405 351.585 429.962 351.435 429.312C351.261 428.554 351.734 427.799 352.492 427.624C354.148 427.244 355.734 426.708 357.205 426.035C357.912 425.711 358.749 426.024 359.073 426.731C359.397 427.438 359.084 428.275 358.377 428.599C356.735 429.351 354.965 429.945 353.123 430.371C353.019 430.393 352.912 430.405 352.807 430.405ZM330.219 428.945C330.019 428.945 329.816 428.903 329.625 428.813C327.954 428.033 326.354 427.066 324.869 425.942C324.249 425.472 324.128 424.587 324.599 423.967C325.069 423.347 325.954 423.226 326.574 423.697C327.898 424.703 329.326 425.565 330.816 426.261C331.521 426.59 331.825 427.427 331.498 428.134C331.256 428.644 330.749 428.945 330.219 428.945ZM364.989 423.632C364.637 423.632 364.285 423.5 364.011 423.238C363.451 422.697 363.437 421.804 363.978 421.246C364.589 420.615 365.178 419.93 365.727 419.218C366.192 418.615 366.634 417.984 367.043 417.336C367.46 416.679 368.33 416.482 368.987 416.899C369.643 417.316 369.84 418.186 369.423 418.843C368.97 419.561 368.477 420.265 367.958 420.936C367.344 421.733 366.685 422.497 366.003 423.204C365.724 423.488 365.355 423.632 364.989 423.632ZM319.669 419.798C319.218 419.798 318.773 419.581 318.502 419.178C317.511 417.713 316.606 416.104 315.815 414.392C315.488 413.684 315.795 412.848 316.502 412.521C317.209 412.194 318.046 412.504 318.373 413.208C319.099 414.78 319.928 416.257 320.835 417.595C321.272 418.24 321.102 419.116 320.457 419.55C320.215 419.719 319.942 419.798 319.669 419.798ZM371.748 411.391C371.624 411.391 371.5 411.374 371.373 411.341C370.623 411.135 370.181 410.36 370.387 409.611C370.812 408.056 371.15 406.382 371.393 404.633C371.5 403.864 372.207 403.32 372.981 403.43C373.753 403.537 374.291 404.247 374.184 405.019C373.928 406.889 373.565 408.684 373.105 410.357C372.934 410.98 372.364 411.391 371.748 411.391ZM314.262 406.822C313.623 406.822 313.045 406.385 312.893 405.737C312.6 404.495 312.335 403.185 312.104 401.841C312.025 401.379 311.949 400.931 311.87 400.494C311.735 399.728 312.245 398.996 313.011 398.86C313.778 398.725 314.51 399.235 314.645 400.001C314.724 400.446 314.803 400.9 314.882 401.37C315.102 402.655 315.353 403.906 315.634 405.092C315.815 405.85 315.344 406.608 314.589 406.788C314.479 406.81 314.369 406.822 314.262 406.822ZM373.269 397.384C372.503 397.384 371.874 396.77 371.86 395.998C371.832 394.358 371.748 392.617 371.604 390.826C371.542 390.051 372.122 389.372 372.897 389.31C373.672 389.248 374.351 389.828 374.413 390.603C374.559 392.454 374.649 394.251 374.677 395.95C374.691 396.728 374.069 397.37 373.291 397.381C373.283 397.384 373.277 397.384 373.269 397.384ZM310.955 393.122C310.394 393.122 309.865 392.786 309.645 392.231C309.081 390.812 308.38 389.29 307.501 387.577C307.146 386.884 307.419 386.036 308.112 385.681C308.805 385.326 309.653 385.6 310.008 386.293C310.927 388.084 311.665 389.687 312.262 391.192C312.549 391.916 312.197 392.733 311.473 393.02C311.304 393.088 311.13 393.122 310.955 393.122ZM371.95 383.321C371.269 383.321 370.669 382.825 370.561 382.129C370.305 380.484 370.006 378.754 369.671 376.985C369.528 376.221 370.029 375.483 370.792 375.339C371.559 375.193 372.294 375.697 372.438 376.461C372.779 378.258 373.083 380.019 373.342 381.695C373.46 382.464 372.936 383.185 372.167 383.304C372.094 383.315 372.021 383.321 371.95 383.321ZM304.416 380.619C303.937 380.619 303.47 380.374 303.205 379.931L302.813 379.275C302.191 378.244 301.374 377.495 300.075 376.771C299.396 376.393 299.151 375.534 299.531 374.855C299.909 374.176 300.768 373.931 301.447 374.311C303.182 375.277 304.349 376.362 305.227 377.824L305.625 378.486C306.025 379.154 305.805 380.019 305.137 380.419C304.909 380.554 304.661 380.619 304.416 380.619ZM292.511 373.728C292.361 373.728 292.209 373.705 292.063 373.655C290.316 373.069 288.733 372.531 287.045 371.9C286.316 371.626 285.946 370.815 286.22 370.085C286.493 369.358 287.304 368.987 288.034 369.26C289.679 369.877 291.24 370.406 292.958 370.984C293.697 371.232 294.094 372.032 293.846 372.767C293.649 373.356 293.099 373.728 292.511 373.728ZM369.102 369.482C368.48 369.482 367.91 369.068 367.741 368.437C367.291 366.753 366.795 365.079 366.268 363.459C366.029 362.718 366.431 361.924 367.172 361.684C367.913 361.445 368.708 361.848 368.947 362.589C369.488 364.254 369.998 365.975 370.463 367.708C370.663 368.46 370.218 369.232 369.466 369.432C369.347 369.468 369.223 369.482 369.102 369.482ZM279.467 368.327C279.236 368.327 278.999 368.271 278.782 368.15C277.168 367.251 275.627 366.268 274.199 365.228C273.57 364.769 273.432 363.89 273.892 363.259C274.351 362.631 275.233 362.493 275.861 362.952C277.193 363.924 278.639 364.845 280.154 365.688C280.833 366.065 281.078 366.924 280.701 367.603C280.442 368.068 279.96 368.327 279.467 368.327ZM268.502 359.524C268.111 359.524 267.722 359.36 267.443 359.042C266.243 357.673 265.13 356.213 264.136 354.706C263.707 354.058 263.885 353.182 264.536 352.754C265.186 352.326 266.06 352.503 266.488 353.154C267.415 354.554 268.449 355.912 269.564 357.185C270.077 357.771 270.018 358.661 269.432 359.174C269.162 359.408 268.829 359.524 268.502 359.524ZM364.485 356.137C363.938 356.137 363.417 355.816 363.189 355.284C362.555 353.805 361.89 352.343 361.034 350.539C360.698 349.838 360.997 348.996 361.701 348.663C362.406 348.331 363.245 348.629 363.578 349.331C364.118 350.472 364.938 352.213 365.778 354.174C366.085 354.889 365.752 355.718 365.037 356.025C364.859 356.101 364.671 356.137 364.485 356.137Z" fill="black"></path>
  <path d="M358.622 343.198C358.042 343.198 357.498 342.837 357.295 342.26L357.236 342.088C356.977 341.327 356.735 340.468 356.52 339.533C356.374 338.899 356.684 338.245 357.27 337.958C358.056 337.569 358.85 337.172 359.65 336.766C360.343 336.414 361.191 336.693 361.544 337.386C361.896 338.079 361.617 338.927 360.924 339.279C360.459 339.513 359.997 339.747 359.535 339.978C359.65 340.406 359.774 340.806 359.901 341.175L359.955 341.324C360.214 342.057 359.831 342.863 359.095 343.122C358.935 343.173 358.777 343.198 358.622 343.198Z" fill="black"></path>
  <path d="M368.409 335.085C367.919 335.085 367.443 334.829 367.183 334.373C366.8 333.697 367.037 332.837 367.713 332.451C369.35 331.522 370.916 330.589 372.364 329.682C373.023 329.271 373.894 329.468 374.305 330.127C374.717 330.786 374.517 331.657 373.86 332.068C372.378 332.995 370.778 333.947 369.108 334.899C368.885 335.026 368.645 335.085 368.409 335.085ZM380.675 327.028C380.255 327.028 379.841 326.842 379.565 326.487C379.086 325.876 379.193 324.988 379.807 324.51C380.027 324.338 380.244 324.166 380.458 323.994C381.672 323.019 382.819 322.025 383.867 321.039C384.433 320.506 385.323 320.534 385.859 321.101C386.391 321.667 386.363 322.56 385.797 323.092C384.695 324.126 383.492 325.169 382.222 326.191C381.996 326.372 381.771 326.552 381.543 326.73C381.283 326.93 380.979 327.028 380.675 327.028ZM390.865 316.531C390.592 316.531 390.313 316.452 390.07 316.283C389.428 315.844 389.265 314.968 389.704 314.325C390.115 313.725 390.51 313.105 390.876 312.491C391.4 311.607 391.882 310.697 392.304 309.787C392.631 309.083 393.471 308.775 394.175 309.102C394.879 309.429 395.186 310.269 394.86 310.973C394.398 311.97 393.871 312.965 393.296 313.931C392.899 314.599 392.471 315.266 392.026 315.92C391.755 316.317 391.316 316.531 390.865 316.531ZM396.094 302.964C396.04 302.964 395.989 302.961 395.936 302.955C395.164 302.868 394.606 302.172 394.693 301.397C394.798 300.459 394.851 299.51 394.851 298.571C394.851 297.791 394.815 296.999 394.741 296.222C394.668 295.447 395.237 294.76 396.012 294.689C396.784 294.619 397.474 295.185 397.544 295.96C397.626 296.825 397.666 297.704 397.666 298.571C397.666 299.614 397.606 300.667 397.491 301.71C397.409 302.431 396.801 302.964 396.094 302.964ZM394.26 288.489C393.648 288.489 393.085 288.089 392.907 287.472C392.434 285.832 391.873 284.108 391.248 282.344C390.986 281.612 391.369 280.806 392.104 280.544C392.837 280.282 393.643 280.665 393.905 281.401C394.55 283.218 395.127 284.995 395.617 286.688C395.834 287.435 395.403 288.215 394.657 288.432C394.519 288.472 394.386 288.489 394.26 288.489ZM393.493 274.498C393.395 274.498 393.293 274.487 393.192 274.465C392.431 274.298 391.949 273.546 392.116 272.788C392.485 271.101 392.778 269.332 392.983 267.534C393.071 266.762 393.769 266.21 394.544 266.295C395.316 266.385 395.871 267.081 395.784 267.855C395.567 269.749 395.26 271.611 394.868 273.391C394.724 274.05 394.141 274.498 393.493 274.498Z" fill="black"></path>
  <path d="M394.755 259.895C393.995 259.895 393.369 259.289 393.347 258.526C393.321 257.663 393.282 256.782 393.226 255.903C393.2 255.505 393.344 255.114 393.623 254.829C394.223 254.215 394.817 253.57 395.392 252.919C395.905 252.336 396.795 252.277 397.381 252.792C397.964 253.305 398.023 254.195 397.508 254.781C397.04 255.311 396.561 255.838 396.074 256.348C396.113 257.052 396.144 257.756 396.164 258.449C396.186 259.227 395.572 259.875 394.795 259.898C394.781 259.895 394.769 259.895 394.755 259.895Z" fill="black"></path>
  <path d="M401.662 248.253C401.406 248.253 401.147 248.183 400.916 248.039C400.257 247.625 400.057 246.758 400.471 246.098C401.352 244.692 402.192 243.211 402.967 241.695C403.322 241.002 404.17 240.729 404.863 241.081C405.556 241.436 405.829 242.284 405.477 242.977C404.666 244.566 403.784 246.118 402.86 247.594C402.589 248.02 402.133 248.253 401.662 248.253ZM407.666 235.725C407.508 235.725 407.35 235.7 407.193 235.644C406.46 235.382 406.077 234.576 406.336 233.843C406.894 232.277 407.409 230.643 407.871 228.995C408.08 228.246 408.858 227.809 409.607 228.017C410.356 228.226 410.793 229.003 410.585 229.753C410.106 231.466 409.57 233.159 408.99 234.787C408.787 235.365 408.243 235.725 407.666 235.725ZM411.12 222.262C411.041 222.262 410.965 222.256 410.886 222.242C410.12 222.113 409.601 221.386 409.731 220.619C409.807 220.163 409.88 219.707 409.951 219.245C409.987 218.994 410.094 218.76 410.255 218.563C411.021 217.625 411.768 216.644 412.466 215.644C412.912 215.008 413.79 214.853 414.427 215.298C415.064 215.743 415.219 216.622 414.774 217.258C414.106 218.211 413.405 219.146 412.678 220.048C412.624 220.394 412.568 220.741 412.509 221.084C412.393 221.774 411.796 222.262 411.12 222.262ZM417.997 210.32C417.794 210.32 417.588 210.275 417.394 210.182C416.692 209.846 416.394 209.007 416.726 208.305C417.439 206.809 418.098 205.24 418.684 203.646C418.952 202.916 419.763 202.541 420.493 202.809C421.222 203.077 421.597 203.888 421.329 204.618C420.712 206.294 420.019 207.942 419.273 209.517C419.03 210.021 418.523 210.32 417.997 210.32ZM422.425 197.155C422.327 197.155 422.228 197.144 422.127 197.124C421.366 196.96 420.881 196.211 421.048 195.45C421.397 193.825 421.696 192.14 421.929 190.447C422.036 189.675 422.749 189.137 423.518 189.244C424.29 189.351 424.828 190.061 424.721 190.833C424.476 192.597 424.169 194.349 423.803 196.042C423.659 196.704 423.076 197.155 422.425 197.155ZM424.023 183.348C424.011 183.348 424 183.348 423.986 183.348C423.208 183.328 422.594 182.683 422.614 181.905C422.631 181.226 422.639 180.533 422.639 179.84C422.639 178.835 422.622 177.815 422.586 176.806C422.558 176.029 423.166 175.375 423.944 175.35C424.721 175.327 425.375 175.93 425.4 176.708C425.437 177.75 425.457 178.804 425.457 179.843C425.457 180.559 425.448 181.277 425.431 181.979C425.411 182.742 424.786 183.348 424.023 183.348ZM423.256 169.464C422.56 169.464 421.958 168.952 421.862 168.242C421.772 167.566 421.673 166.89 421.569 166.239C421.538 166.047 421.546 165.853 421.597 165.664C421.85 164.684 422.079 163.684 422.273 162.698C422.422 161.934 423.166 161.438 423.927 161.588C424.69 161.737 425.189 162.478 425.037 163.241C424.851 164.188 424.637 165.143 424.397 166.087C424.487 166.67 424.575 167.267 424.656 167.87C424.761 168.642 424.22 169.349 423.448 169.453C423.383 169.459 423.318 169.464 423.256 169.464ZM424.586 155.705C424.578 155.705 424.569 155.705 424.558 155.705C423.78 155.691 423.161 155.049 423.177 154.271C423.183 153.978 423.186 153.682 423.186 153.389C423.186 152.009 423.124 150.615 423.003 149.243C422.935 148.468 423.507 147.783 424.282 147.716C425.056 147.648 425.741 148.22 425.809 148.995C425.938 150.448 426.003 151.927 426.003 153.389C426.003 153.702 426 154.012 425.995 154.325C425.981 155.091 425.352 155.705 424.586 155.705ZM422.718 141.971C422.112 141.971 421.555 141.58 421.372 140.971C420.898 139.405 420.321 137.813 419.659 136.235C419.357 135.517 419.695 134.692 420.411 134.39C421.126 134.089 421.955 134.427 422.256 135.142C422.955 136.81 423.566 138.495 424.068 140.151C424.293 140.895 423.873 141.681 423.13 141.909C422.992 141.952 422.853 141.971 422.718 141.971ZM420.577 128.401C419.873 128.401 419.267 127.874 419.18 127.158C418.98 125.485 418.684 123.823 418.298 122.217C418.118 121.459 418.583 120.701 419.34 120.518C420.095 120.338 420.856 120.803 421.039 121.561C421.45 123.271 421.766 125.043 421.98 126.823C422.073 127.595 421.521 128.297 420.749 128.39C420.69 128.398 420.633 128.401 420.577 128.401ZM416.788 115.07C416.258 115.07 415.754 114.771 415.512 114.261C414.802 112.757 413.99 111.281 413.097 109.875C412.68 109.218 412.875 108.348 413.531 107.931C414.188 107.514 415.058 107.708 415.475 108.365C416.43 109.869 417.298 111.45 418.059 113.058C418.391 113.763 418.09 114.602 417.385 114.935C417.194 115.027 416.988 115.07 416.788 115.07ZM408.88 103.691C408.514 103.691 408.148 103.55 407.871 103.266C407.497 102.88 407.105 102.494 406.711 102.119C406.463 101.885 406.311 101.57 406.277 101.229C406.17 100.093 406.018 98.9665 405.823 97.8791C405.685 97.1128 406.198 96.3804 406.962 96.2451C407.725 96.1099 408.46 96.6198 408.596 97.3833C408.773 98.3806 408.92 99.4061 409.029 100.44C409.322 100.725 409.61 101.012 409.889 101.299C410.432 101.857 410.418 102.747 409.863 103.291C409.59 103.559 409.235 103.691 408.88 103.691ZM404.711 90.6924C404.167 90.6924 403.649 90.3769 403.418 89.8472C403.218 89.388 403.003 88.926 402.781 88.4725C402.268 87.4301 401.705 86.4018 401.11 85.4186C400.707 84.7537 400.919 83.886 401.586 83.4832C402.254 83.0803 403.119 83.2916 403.522 83.9593C404.161 85.0129 404.764 86.1144 405.311 87.2301C405.553 87.7203 405.784 88.2217 406.004 88.7232C406.314 89.4359 405.99 90.267 405.277 90.5769C405.088 90.6558 404.899 90.6924 404.711 90.6924ZM397.014 79.1784C396.642 79.1784 396.273 79.032 395.997 78.7446C394.848 77.5473 393.608 76.412 392.312 75.3696C391.706 74.8822 391.608 73.9976 392.095 73.3891C392.582 72.7806 393.467 72.6848 394.076 73.1722C395.47 74.2906 396.803 75.5076 398.034 76.7951C398.572 77.3557 398.552 78.2488 397.992 78.7869C397.715 79.0489 397.363 79.1784 397.014 79.1784Z" fill="black"></path>
  <path d="M235.246 308.99C235.246 308.99 279.04 312.993 316.709 299.998C353.49 287.312 379.363 262.416 379.363 262.416" stroke="#FEC00F" stroke-width="1.77327" stroke-miterlimit="10" stroke-linecap="round" stroke-linejoin="round"></path>
  <path d="M242.074 317.678C242.074 317.678 288.651 318.762 322.455 305.817C353.388 293.971 377.005 274.121 377.005 274.121" stroke="#FEC00F" stroke-width="1.77327" stroke-miterlimit="10" stroke-linecap="round" stroke-linejoin="round"></path>
  <path d="M255.449 326.507C255.449 326.507 297.313 323.382 328.705 311.052C353.567 301.284 376.434 282.524 376.434 282.524" stroke="#FEC00F" stroke-width="1.77327" stroke-miterlimit="10" stroke-linecap="round" stroke-linejoin="round"></path>
  <path d="M284.961 331.322C284.961 331.322 309.133 328.032 337.761 315.126C362.536 303.959 378.856 289.036 378.856 289.036" stroke="#FEC00F" stroke-width="1.77327" stroke-miterlimit="10" stroke-linecap="round" stroke-linejoin="round"></path>
  <path d="M291.891 338.84C291.891 338.84 321.088 331.16 342.623 320.227C363.679 309.535 380.571 296.664 380.571 296.664" stroke="#FEC00F" stroke-width="1.77327" stroke-miterlimit="10" stroke-linecap="round" stroke-linejoin="round"></path>
  <path d="M321.629 287.796C321.629 287.796 303.711 297.397 277.691 299.437" stroke="#FEC00F" stroke-width="1.77327" stroke-miterlimit="10" stroke-linecap="round" stroke-linejoin="round"></path>
  <path d="M73.5934 76.1328C73.5934 76.1328 70.517 57.9674 92.0461 48.5326C115.959 38.0525 133.254 50.4201 133.254 50.4201" stroke="black" stroke-width="4.13762" stroke-miterlimit="10" stroke-linecap="round" stroke-linejoin="round"></path>
  <path d="M167.695 40.747C167.695 40.747 173.919 19.2826 197.183 16.9218C218.887 14.7187 228.353 29.4528 228.353 29.4528" stroke="black" stroke-width="4.13762" stroke-miterlimit="10" stroke-linecap="round" stroke-linejoin="round"></path>
  <path d="M124.977 45.7595C124.977 45.7595 138.829 21.4892 171.308 32.7693" stroke="black" stroke-width="4.13762" stroke-miterlimit="10" stroke-linecap="round" stroke-linejoin="round"></path>
  <path d="M73.8209 69.5184C73.8209 69.5184 54.6892 65.3405 51.7621 88.5459C51.7621 88.5459 18.8571 93.4985 27.1594 122.043" stroke="black" stroke-width="4.13762" stroke-miterlimit="10" stroke-linecap="round" stroke-linejoin="round"></path>
  <path d="M25.8184 116.852C25.8184 116.852 9.07009 128.253 23.2153 143.35" stroke="black" stroke-width="4.13762" stroke-miterlimit="10" stroke-linecap="round" stroke-linejoin="round"></path>
  <path d="M28.3879 138.322C28.3879 138.322 13.3947 149.774 17.2514 169.224C19.7785 181.963 33.3095 187.86 33.3095 187.86" stroke="black" stroke-width="4.13762" stroke-miterlimit="10" stroke-linecap="round" stroke-linejoin="round"></path>
  <path d="M35.4556 184.321C35.4556 184.321 27.6406 195.035 35.7176 205.585C44.1805 216.637 56.6748 216.637 56.6748 216.637C56.6748 216.637 76.0291 250.708 125.956 239.606" stroke="black" stroke-width="4.13762" stroke-miterlimit="10" stroke-linecap="round" stroke-linejoin="round"></path>
  <path d="M125.959 232.976C125.959 232.976 125.365 246.532 144.71 261.393" stroke="black" stroke-width="4.13762" stroke-miterlimit="10" stroke-linecap="round" stroke-linejoin="round"></path>
  <path d="M144.571 252.112C144.571 252.112 141.109 271.472 158.962 284.431C178.462 298.585 200.479 285.611 200.479 285.611" stroke="black" stroke-width="4.13762" stroke-miterlimit="10" stroke-linecap="round" stroke-linejoin="round"></path>
  <path d="M196.078 287.686C196.078 287.686 207.561 298.112 221.715 293.157C235.868 288.204 239.407 271.574 239.407 271.574" stroke="black" stroke-width="4.13762" stroke-miterlimit="10" stroke-linecap="round" stroke-linejoin="round"></path>
  <path d="M229.699 288.398C229.699 288.398 240.805 299.957 262.999 300C290.128 300.05 300.27 287.452 300.27 287.452" stroke="black" stroke-width="4.13762" stroke-miterlimit="10" stroke-linecap="round" stroke-linejoin="round"></path>
  <path d="M269.84 266.03C269.84 266.03 291.856 298.113 326.928 286.317C361.971 274.53 352.404 245.978 352.404 245.978" stroke="black" stroke-width="4.13762" stroke-miterlimit="10" stroke-linecap="round" stroke-linejoin="round"></path>
  <path d="M396.988 201.866C396.988 201.866 399.819 237.25 376.228 250.934C359.519 260.625 353.273 259.213 353.273 259.213" stroke="black" stroke-width="4.13762" stroke-miterlimit="10" stroke-linecap="round" stroke-linejoin="round"></path>
  <path d="M407.218 165.194C407.218 165.194 415.833 195.496 397.09 212.481" stroke="black" stroke-width="4.13762" stroke-miterlimit="10" stroke-linecap="round" stroke-linejoin="round"></path>
  <path d="M401.105 131.804C401.105 131.804 408.264 140.571 409.151 150.44C410.332 163.562 403.123 173.558 403.123 173.558" stroke="black" stroke-width="4.13762" stroke-miterlimit="10" stroke-linecap="round" stroke-linejoin="round"></path>
  <path d="M392.562 108.847C392.562 108.847 408.438 116.118 405.186 138.154" stroke="black" stroke-width="4.13762" stroke-miterlimit="10" stroke-linecap="round" stroke-linejoin="round"></path>
  <path d="M370.754 80.7593C370.754 80.7593 384.015 81.8185 390.305 94.6087C395.399 104.965 390.305 118.986 390.305 118.986" stroke="black" stroke-width="4.13762" stroke-miterlimit="10" stroke-linecap="round" stroke-linejoin="round"></path>
  <path d="M317.492 58.5945C317.492 58.5945 334.773 46.21 352.719 54.9772C373.321 65.0431 371.276 89.5754 371.276 89.5754" stroke="black" stroke-width="4.13762" stroke-miterlimit="10" stroke-linecap="round" stroke-linejoin="round"></path>
  <path d="M325.288 54.5741C325.288 54.5741 322.217 44.3842 306.328 38.3075C295.634 34.2197 286.042 39.0935 286.042 39.0935C286.042 39.0935 277.511 25.6132 259.78 22.2663C237.29 18.0208 224.023 33.2985 224.023 33.2985" stroke="black" stroke-width="4.13762" stroke-miterlimit="10" stroke-linecap="round" stroke-linejoin="round"></path>
  <path d="M43.3984 177.256C43.3984 177.256 68.0772 154.893 89.612 168.052C102.695 176.047 121.686 200.109 112.102 207.642C99.0497 217.903 79.8616 193.844 79.8616 193.844" stroke="#FEC00F" stroke-width="1.77327" stroke-miterlimit="10" stroke-linecap="round" stroke-linejoin="round"></path>
  <path d="M37.7148 131.251C37.7148 131.251 63.4557 108.846 89.1966 123.687" stroke="#FEC00F" stroke-width="1.77327" stroke-miterlimit="10" stroke-linecap="round" stroke-linejoin="round"></path>
  <path d="M87.3711 130.388C87.3711 130.388 90.3263 110.431 108.785 98.4013C127.243 86.3718 143.16 93.2289 143.16 93.2289C143.16 93.2289 148.113 75.4213 162.74 68.3445C177.367 61.2676 196.003 64.0989 196.003 64.0989" stroke="#FEC00F" stroke-width="1.77327" stroke-miterlimit="10" stroke-linecap="round" stroke-linejoin="round"></path>
  <path d="M99.6758 165.995C99.6758 165.995 101.738 177.692 109.201 187.025C116.661 196.361 124.053 200.291 130.186 201.077" stroke="#FEC00F" stroke-width="1.77327" stroke-miterlimit="10" stroke-linecap="round" stroke-linejoin="round"></path>
  <path d="M125.961 224.587C125.961 224.587 132.167 201.077 150.003 195.493C166.45 190.346 187.748 187.473 204.26 193.369C204.26 193.369 216.289 189.831 228.322 191.245C240.351 192.659 248.608 195.989 248.608 195.989C248.608 195.989 261.818 195.964 271.726 196.908C281.634 197.851 295.081 204.745 295.081 204.745" stroke="#FEC00F" stroke-width="1.77327" stroke-miterlimit="10" stroke-linecap="round" stroke-linejoin="round"></path>
  <path d="M322.368 189.942C322.368 189.942 296.904 201.006 271.729 196.912C253.84 194.002 248.124 191.314 248.124 191.314C248.124 191.314 236.643 192.219 225.172 190.988C213.697 189.756 203.789 181.736 203.789 181.736" stroke="#FEC00F" stroke-width="1.77327" stroke-miterlimit="10" stroke-linecap="round" stroke-linejoin="round"></path>
  <path d="M87.3711 141.788C87.3711 141.788 93.3859 164.277 123.423 160.029" stroke="#FEC00F" stroke-width="1.77327" stroke-miterlimit="10" stroke-linecap="round" stroke-linejoin="round"></path>
  <path d="M130.98 157.987C130.98 157.987 135.068 141.788 150.011 136.756C164.95 131.724 174.23 133.218 174.23 133.218C174.23 133.218 178.169 125.039 188.226 121.568C198.45 118.041 216.221 120.399 227.386 137.542" stroke="#FEC00F" stroke-width="1.77327" stroke-miterlimit="10" stroke-linecap="round" stroke-linejoin="round"></path>
  <path d="M161.801 121.568C161.801 121.568 174.842 126.952 188.221 121.568C198.549 117.413 202.69 113.01 202.69 113.01C202.69 113.01 206.761 120.089 215.167 125.225C227.383 132.688 240.277 131.254 240.277 131.254" stroke="#FEC00F" stroke-width="1.77327" stroke-miterlimit="10" stroke-linecap="round" stroke-linejoin="round"></path>
  <path d="M172.812 162.865C172.812 162.865 182.878 153.743 197.818 153.43C212.758 153.115 224.396 156.262 224.396 156.262" stroke="#FEC00F" stroke-width="1.77327" stroke-miterlimit="10" stroke-linecap="round" stroke-linejoin="round"></path>
  <path d="M199.312 153.408C199.312 153.408 213.075 158.459 221.095 167.897" stroke="#FEC00F" stroke-width="1.77327" stroke-miterlimit="10" stroke-linecap="round" stroke-linejoin="round"></path>
  <path d="M146.074 243.069C146.074 243.069 158.814 241.339 164.947 238.981C171.08 236.623 185.391 234.578 193.727 236.071C202.063 237.564 222.192 245.114 222.192 245.114C222.192 245.114 231.053 244.117 242.479 245.114C253.906 246.111 263.081 249.884 263.081 249.884C263.081 249.884 278.337 247.472 289.031 247.157C299.725 246.841 318.44 251.089 326.46 264.928" stroke="#FEC00F" stroke-width="1.77327" stroke-miterlimit="10" stroke-linecap="round" stroke-linejoin="round"></path>
  <path d="M172.395 229.545C172.395 229.545 182.241 234.892 193.721 236.072C205.201 237.253 213.222 234.892 213.222 234.892" stroke="#FEC00F" stroke-width="1.77327" stroke-miterlimit="10" stroke-linecap="round" stroke-linejoin="round"></path>
  <path d="M155.664 212.244C155.664 212.244 158.966 224.984 163.056 228.601C167.144 232.218 172.807 236.931 172.807 236.931" stroke="#FEC00F" stroke-width="1.77327" stroke-miterlimit="10" stroke-linecap="round" stroke-linejoin="round"></path>
  <path d="M218.258 238.561C218.258 238.561 231.259 244.747 242.477 245.113C253.696 245.48 263.08 242.722 263.08 242.722" stroke="#FEC00F" stroke-width="1.77327" stroke-miterlimit="10" stroke-linecap="round" stroke-linejoin="round"></path>
  <path d="M269.844 242.754C269.844 242.754 278.022 247.473 289.029 247.157C300.039 246.842 309.631 244.247 309.631 244.247" stroke="#FEC00F" stroke-width="1.77327" stroke-miterlimit="10" stroke-linecap="round" stroke-linejoin="round"></path>
  <path d="M311.723 240.081C311.723 240.081 336.368 232.767 340.613 203.279C340.613 203.279 356.184 193.371 362.787 174.972C370.636 153.105 367.033 141.788 367.033 141.788" stroke="#FEC00F" stroke-width="1.77327" stroke-miterlimit="10" stroke-linecap="round" stroke-linejoin="round"></path>
  <path d="M320.324 245.979C320.324 245.979 324.113 235.045 332.244 224.588C340.374 214.13 348.161 210.192 348.161 210.192" stroke="#FEC00F" stroke-width="1.77327" stroke-miterlimit="10" stroke-linecap="round" stroke-linejoin="round"></path>
  <path d="M346.062 205.956C346.062 205.956 358.695 196.102 382.968 195.998" stroke="#FEC00F" stroke-width="1.77327" stroke-miterlimit="10" stroke-linecap="round" stroke-linejoin="round"></path>
  <path d="M274.652 158.933C274.652 158.933 291.553 164.122 302.906 162.235C314.26 160.347 333.611 147.137 333.611 147.137" stroke="#FEC00F" stroke-width="1.77327" stroke-miterlimit="10" stroke-linecap="round" stroke-linejoin="round"></path>
  <path d="M274.652 168.839C274.652 168.839 287.166 163.492 302.906 162.233C318.646 160.973 335.515 168.839 335.515 168.839" stroke="#FEC00F" stroke-width="1.77327" stroke-miterlimit="10" stroke-linecap="round" stroke-linejoin="round"></path>
  <path d="M287.613 108.92C287.613 108.92 302.204 112.357 314.737 107.638C327.271 102.919 336.207 91.7773 336.207 91.7773" stroke="#FEC00F" stroke-width="1.77327" stroke-miterlimit="10" stroke-linecap="round" stroke-linejoin="round"></path>
  <path d="M248.609 101.4C248.609 101.4 270.941 107.82 263.079 139.903" stroke="#FEC00F" stroke-width="1.77327" stroke-miterlimit="10" stroke-linecap="round" stroke-linejoin="round"></path>
  <path d="M229.977 60.6411C229.977 60.6411 241.457 74.637 261.743 76.2879C282.03 77.9388 294.77 75.5808 294.77 75.5808" stroke="#FEC00F" stroke-width="1.77327" stroke-miterlimit="10" stroke-linecap="round" stroke-linejoin="round"></path>
  <path d="M238.855 76.5277C238.855 76.5277 249.155 74.7191 261.737 76.2911C274.319 77.8631 283.911 85.0188 283.911 85.0188" stroke="#FEC00F" stroke-width="1.77327" stroke-miterlimit="10" stroke-linecap="round" stroke-linejoin="round"></path>
  <path d="M215.818 40.7471C215.818 40.7471 208.504 46.4097 204.574 52.3061" stroke="#FEC00F" stroke-width="1.77327" stroke-miterlimit="10" stroke-linecap="round" stroke-linejoin="round"></path>
  <path d="M213.779 62.453L210.711 45.2314" stroke="#FEC00F" stroke-width="1.77327" stroke-miterlimit="10" stroke-linecap="round" stroke-linejoin="round"></path>
  <path d="M165.578 99.8713C165.578 99.8713 177.374 85.881 190.584 85.0161" stroke="#FEC00F" stroke-width="1.77327" stroke-miterlimit="10" stroke-linecap="round" stroke-linejoin="round"></path>
  <path d="M177.695 89.5791C177.695 89.5791 185.158 89.2636 188.226 91.7822" stroke="#FEC00F" stroke-width="1.77327" stroke-miterlimit="10" stroke-linecap="round" stroke-linejoin="round"></path>
  <path d="M110.684 133.621C110.684 133.621 127.48 125.649 131.258 113.287" stroke="#FEC00F" stroke-width="1.77327" stroke-miterlimit="10" stroke-linecap="round" stroke-linejoin="round"></path>
  <path d="M115.559 136.317C115.559 136.317 118.063 129.513 124.799 123.495C131.535 117.478 136.141 116.582 136.141 116.582" stroke="#FEC00F" stroke-width="1.77327" stroke-miterlimit="10" stroke-linecap="round" stroke-linejoin="round"></path>
  <path d="M206.617 280.629C206.617 280.629 218.647 273.217 223.129 262.522" stroke="#FEC00F" stroke-width="1.77327" stroke-miterlimit="10" stroke-linecap="round" stroke-linejoin="round"></path>
  <path d="M286.98 45.2314C286.98 45.2314 289.812 48.8488 290.598 55.7678" stroke="#FEC00F" stroke-width="1.77327" stroke-miterlimit="10" stroke-linecap="round" stroke-linejoin="round"></path>
  <path d="M306.016 116.628C306.016 116.628 307.39 110.997 316.087 107.103C324.784 103.21 333.613 104.782 333.613 104.782" stroke="#FEC00F" stroke-width="1.77327" stroke-miterlimit="10" stroke-linecap="round" stroke-linejoin="round"></path>
  <path d="M89.1992 80.3305C89.1992 80.3305 96.6705 60.4185 120.975 62.4497" stroke="#FEC00F" stroke-width="1.77327" stroke-miterlimit="10" stroke-linecap="round" stroke-linejoin="round"></path>
  <path d="M55.7344 101.399C55.7344 101.399 72.3785 96.6208 85.2926 103.506" stroke="#FEC00F" stroke-width="1.77327" stroke-miterlimit="10" stroke-linecap="round" stroke-linejoin="round"></path>
  <path d="M35.3672 160.566C35.3672 160.566 43.3821 148.7 60.2375 147.136" stroke="#FEC00F" stroke-width="1.77327" stroke-miterlimit="10" stroke-linecap="round" stroke-linejoin="round"></path>
  <path d="M387.188 139.079C387.188 139.079 390.63 153.824 387.188 168.84" stroke="#FEC00F" stroke-width="1.77327" stroke-miterlimit="10" stroke-linecap="round" stroke-linejoin="round"></path>
  <path d="M367.855 236.932C367.855 236.932 378.952 229.77 383.784 214.848" stroke="#FEC00F" stroke-width="1.77327" stroke-miterlimit="10" stroke-linecap="round" stroke-linejoin="round"></path>
  <path d="M159.926 262.522C159.926 262.522 166.501 279.414 184.867 277.978" stroke="#FEC00F" stroke-width="1.77327" stroke-miterlimit="10" stroke-linecap="round" stroke-linejoin="round"></path>
  <path d="M47.0352 194.284C47.0352 194.284 47.6099 201.442 52.5822 204.75" stroke="#FEC00F" stroke-width="1.77327" stroke-miterlimit="10" stroke-linecap="round" stroke-linejoin="round"></path>
  <path d="M79.0547 220.827C79.0547 220.827 89.053 230.019 104.117 228.081" stroke="#FEC00F" stroke-width="1.77327" stroke-miterlimit="10" stroke-linecap="round" stroke-linejoin="round"></path>
  <path d="M378.543 251.117C378.543 251.117 382.177 264.899 374.886 278.985C374.886 278.985 379.647 289.062 380.825 296.874C382.616 308.755 365.569 318.474 348.649 326.7C317.744 341.727 295.765 351.542 282.025 328.159C282.025 328.159 234.324 338.837 229.695 288.397" stroke="black" stroke-width="4.13762" stroke-miterlimit="10" stroke-linecap="round" stroke-linejoin="round"></path>
  <path d="M274.89 329.441C274.89 329.441 271.377 340.279 281.916 349.976C292.458 359.672 308.916 357.002 317.134 370.66C325.352 384.317 327.014 389.808 328.583 399.037C331.567 416.569 340.419 414.85 345.988 414.501C351.558 414.152 362.7 413.459 355.775 378.317C352.459 361.481 346.943 354.883 344.092 346.615C341.241 338.343 342.005 329.906 342.005 329.906" stroke="black" stroke-width="4.13762" stroke-miterlimit="10" stroke-linecap="round" stroke-linejoin="round"></path>
  <path d="M295.469 348.334C295.469 348.334 311.944 348.427 320.956 359.719C329.968 371.01 335.028 392.976 335.028 392.976" stroke="black" stroke-width="1.77327" stroke-miterlimit="10" stroke-linecap="round" stroke-linejoin="round"></path>
  <path d="M328.219 346.383C328.219 346.383 335.084 361.283 337.949 371.121C340.817 380.958 342.618 403.13 342.618 403.13" stroke="black" stroke-width="1.77327" stroke-miterlimit="10" stroke-linecap="round" stroke-linejoin="round"></path>
  <path d="M344.375 367.548C344.375 367.548 350.111 382.418 349.835 394.292" stroke="black" stroke-width="1.77327" stroke-miterlimit="10" stroke-linecap="round" stroke-linejoin="round"></path>
  <path d="M337.883 281.322C337.883 281.322 368.007 265.777 377.932 254.161" stroke="black" stroke-width="1.77327" stroke-miterlimit="10" stroke-linecap="round" stroke-linejoin="round"></path>
  <path d="M231.609 299.438C231.609 299.438 255.029 302.576 264.171 300.968" stroke="black" stroke-width="1.77327" stroke-miterlimit="10" stroke-linecap="round" stroke-linejoin="round"></path>
</svg>
