<?xml version="1.0" encoding="UTF-8"?>
<svg xmlns="http://www.w3.org/2000/svg" width="443" height="570" viewBox="0 0 443 570" fill="none">
  <path d="M354.387 119.163C351.017 137.971 359.548 159.064 376.423 168.067C385.615 172.97 396.315 174.148 405.86 178.296C415.405 182.444 424.385 191.518 422.829 201.817C421.816 208.652 415.523 223.547 434.542 235.826C450.239 245.937 439.893 285.838 384.979 294.699C368.151 297.41 380.524 285.908 364.286 280.747C348.259 275.656 334.802 264.037 325.351 250.108C315.9 236.179 310.22 220.012 306.379 203.632C301.948 184.777 299.968 164.391 307.345 146.455C314.698 128.496 333.741 114.238 354.387 119.163Z" fill="black"></path>
  <path d="M380.71 296.255C375.478 296.255 374.252 293.898 373.168 290.551C372.202 287.534 371.094 284.117 363.929 281.831C348.751 277.023 334.704 265.969 324.382 250.721C315.991 238.348 309.722 223.005 305.244 203.867C299.588 179.804 299.918 161.421 306.258 145.984C313.422 128.543 332.796 112.823 354.643 118.032C355.232 118.173 355.633 118.762 355.515 119.352C352.074 138.513 361.077 158.569 376.939 167.03C381.935 169.693 387.568 171.296 393.012 172.828C397.419 174.077 401.992 175.35 406.305 177.235C415.968 181.43 425.607 190.975 423.957 201.982C423.816 202.877 423.604 203.891 423.368 204.975C421.695 212.752 419.173 224.537 435.152 234.836C441.044 238.63 443.566 246.408 441.751 255.128C438.593 270.188 421.883 289.891 385.141 295.83C383.444 296.113 381.959 296.255 380.71 296.255ZM346.135 119.328C328.907 119.328 314.318 132.479 308.402 146.856C302.251 161.822 301.968 179.757 307.507 203.325C311.938 222.203 318.089 237.263 326.314 249.425C336.354 264.225 349.953 274.949 364.636 279.615C372.932 282.255 374.346 286.639 375.36 289.82C376.397 293.026 376.962 294.793 384.787 293.521C420.375 287.77 436.496 268.986 439.489 254.633C441.115 246.879 438.97 240.021 433.903 236.745C416.58 225.574 419.409 212.352 421.105 204.456C421.341 203.372 421.553 202.43 421.671 201.605C423.132 191.8 414.247 183.174 405.386 179.309C401.238 177.494 396.736 176.245 392.399 175.02C386.837 173.441 381.087 171.838 375.855 169.033C359.428 160.266 349.977 139.785 353.04 120.012C350.731 119.564 348.421 119.328 346.135 119.328Z" fill="black"></path>
  <path d="M288.335 73.6299C293.897 100.78 263.447 139.267 252.323 164.65C248.717 172.899 243.461 180.417 240.492 188.926C236.956 199.036 236.862 210.019 237.805 220.695C239.62 240.846 245.677 261.539 259.865 275.986C274.053 290.434 297.763 296.726 315.25 286.545C330.593 277.589 337.616 258.381 336.65 240.634C335.684 222.887 328.118 206.248 320.129 190.387C300.944 152.301 314.402 106.508 288.335 73.6299Z" fill="black"></path>
  <path d="M295.927 292.672C282.917 292.672 269.13 287.11 259.019 276.811C246.363 263.919 238.821 245.065 236.629 220.813C235.427 207.591 236.299 197.339 239.363 188.548C241.107 183.528 243.676 178.791 246.151 174.242C247.918 170.99 249.733 167.62 251.241 164.202C254.447 156.872 259.231 148.506 264.298 139.644C276.836 117.702 291.072 92.8376 287.183 73.8652C287.065 73.3467 287.348 72.8047 287.819 72.5925C288.314 72.3569 288.88 72.4983 289.21 72.9225C303.775 91.2586 306.108 113.036 308.606 136.062C310.562 154.186 312.589 172.922 321.121 189.891C328.993 205.541 336.77 222.345 337.76 240.61C338.844 260.737 330.242 279.168 315.795 287.582C309.926 291.023 303.044 292.672 295.927 292.672ZM290.082 77.9425C291.378 96.9856 278.133 120.153 266.348 140.799C261.305 149.613 256.544 157.933 253.386 165.145C251.854 168.657 249.992 172.074 248.225 175.35C245.797 179.828 243.275 184.471 241.578 189.326C238.632 197.787 237.807 207.709 238.962 220.601C241.107 244.31 248.413 262.694 260.692 275.185C275.587 290.363 298.778 294.817 314.663 285.555C328.356 277.565 336.535 259.983 335.474 240.705C334.508 222.887 326.848 206.342 319.071 190.905C310.35 173.559 308.3 154.61 306.32 136.274C304.034 115.11 301.866 95.0059 290.082 77.9425Z" fill="black"></path>
  <path d="M325.618 213.578C325.124 199.107 325.359 184.825 325.948 174.007C320.103 171.084 313.811 169.058 307.353 167.997C304.454 167.526 301.178 167.337 298.963 169.105C297.572 170.212 290.95 164.367 290.266 165.97C285.553 177.024 280.745 203.632 276.031 214.686C275.677 215.534 253.523 218.574 253.17 219.423C251.638 223.029 262.951 237.547 264.105 238.301C324.534 278.461 357.129 218.315 357.129 218.315C357.129 218.315 342.635 216.83 325.618 213.578Z" fill="white"></path>
  <path d="M304.124 253.29C291.091 253.29 277.469 248.6 263.422 239.267C262.645 238.748 250.106 223.57 252.062 218.951C252.416 218.103 252.487 217.938 264.389 215.887C268.372 215.204 273.722 214.285 275.089 213.837C277.351 208.345 279.708 199.036 281.994 190.033C284.351 180.723 286.778 171.108 289.159 165.498C289.347 165.074 289.677 164.744 290.125 164.603C291.233 164.226 292.623 165.003 294.957 166.37C295.994 166.983 297.714 167.997 298.35 168.067C300.99 166.111 304.62 166.394 307.495 166.842C314.094 167.902 320.457 169.953 326.42 172.946C326.821 173.158 327.08 173.582 327.056 174.054C326.42 185.908 326.302 199.908 326.703 212.611C343.083 215.699 357.035 217.16 357.177 217.16C357.554 217.207 357.907 217.419 358.072 217.773C358.261 218.126 358.261 218.527 358.072 218.857C357.931 219.116 343.601 245.065 316.899 251.711C312.751 252.771 308.461 253.29 304.124 253.29ZM254.136 220.224C253.854 223.523 263.139 236.062 264.742 237.358C282.842 249.401 300.236 253.478 316.356 249.472C338.393 244.004 351.732 224.796 355.173 219.257C350.766 218.739 338.817 217.254 325.383 214.709C324.841 214.614 324.464 214.143 324.44 213.601C323.993 200.851 324.11 186.71 324.723 174.69C319.161 171.98 313.245 170.118 307.141 169.128C304.667 168.727 301.579 168.468 299.647 170C298.327 171.037 296.324 169.859 293.802 168.374C292.953 167.879 291.751 167.172 291.091 166.936C288.829 172.451 286.495 181.69 284.256 190.622C281.9 199.932 279.472 209.547 277.092 215.157C276.738 216.005 276.668 216.17 264.813 218.197C260.877 218.857 255.621 219.776 254.136 220.224Z" fill="black"></path>
  <path d="M269.937 73.0178C266.661 86.1453 263.998 100.216 255.867 111.34C251.436 117.42 237.979 151.877 261.688 172.617C274.156 183.506 291.243 189.044 309.814 185.91C322.4 183.765 342.315 169.53 347.382 149.567C354.853 155.224 365.412 152.843 368.499 145.325C370.29 140.989 367.651 133.635 362.466 131.868C358.459 130.501 357.988 130.359 354.075 131.467C355.56 121.757 357.917 112.188 362.136 102.007C356.762 87.7008 343.564 76.2702 329.164 67.9035C324.403 65.146 319.383 62.6242 313.986 61.2102C298.572 57.2271 273.307 59.5604 269.937 73.0178Z" fill="white"></path>
  <path d="M299.395 187.936C285.16 187.936 271.797 182.963 260.932 173.489C237.175 152.725 249.478 118.103 254.922 110.656C261.945 101.064 264.821 89.1146 267.625 77.5661C268.026 75.9399 268.403 74.3373 268.804 72.7347C269.746 68.9402 272.315 65.782 276.393 63.3545C286.338 57.4389 303.331 57.2504 314.29 60.0785C320.253 61.6105 325.697 64.5329 329.751 66.8898C341.677 73.7952 357.137 85.4379 363.218 101.582C363.312 101.865 363.312 102.171 363.194 102.431C359.588 111.104 357.137 119.871 355.488 129.888C358.174 129.251 359.235 129.558 362.817 130.76C365.386 131.632 367.625 133.823 368.968 136.769C370.359 139.81 370.571 143.251 369.558 145.749C368.049 149.426 364.82 152.16 360.72 153.291C356.501 154.446 351.882 153.739 348.063 151.429C342.148 171.485 322.398 184.943 310.001 187.064C306.419 187.653 302.883 187.936 299.395 187.936ZM269.935 73.0175L271.066 73.3003C270.666 74.8794 270.288 76.482 269.888 78.1082C267.036 89.8923 264.09 102.054 256.807 112.023C253.767 116.194 238.353 150.675 262.464 171.745C275.45 183.105 292.207 187.724 309.624 184.754C321.431 182.751 341.252 168.964 346.249 149.261C346.343 148.884 346.626 148.577 346.979 148.459C347.333 148.341 347.757 148.389 348.063 148.624C351.528 151.264 356.029 152.16 360.107 151.052C363.524 150.109 366.187 147.87 367.413 144.877C368.191 142.968 367.979 140.21 366.871 137.736C365.787 135.379 364.043 133.635 362.087 132.951C358.198 131.632 357.962 131.561 354.403 132.551C354.026 132.645 353.626 132.574 353.319 132.315C353.036 132.056 352.871 131.655 352.942 131.278C354.592 120.507 357.114 111.198 360.908 101.983C354.969 86.687 340.097 75.5629 328.596 68.9166C324.66 66.6305 319.405 63.8259 313.725 62.3647C303.237 59.6543 286.998 59.7957 277.595 65.3814C274.059 67.479 271.868 70.1657 271.066 73.3239L269.935 73.0175Z" fill="black"></path>
  <path d="M316.745 148.6C315.307 148.6 313.846 148.435 312.408 148.058C307.388 146.785 303.216 143.415 300.671 138.607C298.149 133.823 297.537 128.166 298.927 122.675C301.826 111.315 312.549 104.174 322.896 106.813C333.219 109.43 339.276 120.813 336.377 132.196C333.879 141.977 325.606 148.6 316.745 148.6ZM318.536 108.581C310.735 108.581 303.382 114.52 301.166 123.24C299.917 128.166 300.459 133.233 302.722 137.523C304.961 141.765 308.59 144.711 312.974 145.819C322.047 148.128 331.545 141.765 334.114 131.631C336.683 121.496 331.38 111.386 322.307 109.076C321.058 108.746 319.785 108.581 318.536 108.581Z" fill="black"></path>
  <path d="M265.957 131.137C264.519 131.137 263.058 130.973 261.62 130.595C251.297 127.979 245.24 116.596 248.139 105.212C251.014 93.8526 261.761 86.735 272.108 89.351C277.128 90.6237 281.299 93.994 283.845 98.8019C286.367 103.586 286.979 109.243 285.589 114.734C283.091 124.515 274.795 131.137 265.957 131.137ZM267.724 91.1187C259.923 91.1187 252.57 97.0579 250.354 105.778C247.786 115.912 253.088 126.023 262.162 128.333C271.236 130.643 280.734 124.279 283.303 114.145C284.552 109.219 284.01 104.152 281.747 99.8625C279.508 95.6202 275.879 92.6742 271.495 91.5665C270.246 91.2836 268.997 91.1187 267.724 91.1187Z" fill="black"></path>
  <path d="M404.253 38.1129C405.809 19.3054 391.809 2.83126 373.002 1.27576C354.195 -0.279741 337.72 13.7198 336.165 32.5036C334.609 51.2875 348.609 67.7852 367.393 69.3407C386.2 70.8962 402.698 56.9203 404.253 38.1129Z" fill="black"></path>
  <path d="M370.266 70.6136C369.276 70.6136 368.31 70.5664 367.32 70.4957C347.923 68.8931 333.429 51.8062 335.031 32.4095C336.634 13.0129 353.721 -1.48155 373.117 0.121088C392.514 1.72373 407.008 18.8107 405.406 38.2073C404.628 47.611 400.244 56.1427 393.056 62.2469C386.598 67.6911 378.609 70.6136 370.266 70.6136ZM370.195 2.31293C353.226 2.31293 338.755 15.3933 337.341 32.5981C335.856 50.722 349.384 66.7013 367.532 68.1861C376.323 68.9167 384.854 66.1592 391.571 60.4557C398.288 54.7522 402.389 46.7861 403.12 37.9952C403.85 29.2042 401.093 20.6726 395.389 13.9556C389.686 7.23869 381.72 3.13782 372.929 2.40721C371.986 2.36007 371.091 2.31293 370.195 2.31293Z" fill="black"></path>
  <path d="M352.477 132.314C349.366 116.618 347.999 105.682 351.393 89.42C314.674 95.2649 285.331 86.804 257.285 74.4542C258.605 69.3635 263.861 59.0406 267.702 55.2461C277.106 45.9367 287.122 38.6306 307.368 37.7585C321.556 37.1458 339.185 39.974 351.487 47.0209C363.719 54.0206 372.086 65.4276 377.813 77.4474C382.385 86.9925 384.129 100.403 381.984 112.093C380.146 122.109 375.15 128.072 367.231 135.897C365.392 133.705 363.696 131.56 360.773 131.018C357.827 130.476 355.541 131.159 352.477 132.314Z" fill="black"></path>
  <path d="M367.203 137.052C367.179 137.052 367.156 137.052 367.156 137.052C366.826 137.028 366.543 136.887 366.331 136.651L366.095 136.368C364.398 134.341 362.937 132.597 360.533 132.149C357.823 131.631 355.655 132.338 352.874 133.399C352.567 133.516 352.19 133.493 351.907 133.328C351.601 133.163 351.389 132.88 351.342 132.55C348.561 118.433 346.793 107.073 349.928 90.8109C342.315 91.9421 335.032 92.4371 328.056 92.4371C299.751 92.4371 276.465 84.1646 256.81 75.4915C256.291 75.2558 256.008 74.6902 256.15 74.1481C257.54 68.7982 262.984 58.2632 266.873 54.4215C275.452 45.9134 285.657 37.5232 307.293 36.604C320.019 36.0619 338.45 38.2302 352.049 46.0313C363.031 52.324 372.034 62.7175 378.846 76.9527C383.63 86.9928 385.28 100.545 383.111 112.305C381.132 123.076 375.358 129.486 368.028 136.722C367.792 136.934 367.509 137.052 367.203 137.052ZM358.718 129.675C359.425 129.675 360.18 129.746 360.957 129.887C363.809 130.429 365.624 132.267 367.274 134.2C375.098 126.375 379.176 120.837 380.802 111.904C382.852 100.757 381.25 87.417 376.725 77.9662C370.125 64.1552 361.429 54.0916 350.87 48.0346C337.696 40.4927 319.76 38.3716 307.363 38.9137C286.553 39.8093 276.748 47.8932 268.476 56.0713C265.106 59.418 260.274 68.586 258.648 73.7946C283.017 84.4474 313.02 94.3461 351.177 88.2655C351.554 88.2183 351.931 88.3362 352.19 88.619C352.449 88.9018 352.567 89.2789 352.496 89.656C349.126 105.847 350.658 117.066 353.321 130.759C355.16 130.123 356.857 129.675 358.718 129.675Z" fill="black"></path>
  <path d="M295.128 163.801C290.815 163.801 287.209 161.916 285.465 158.711C285.158 158.145 285.37 157.438 285.936 157.132C286.502 156.825 287.209 157.037 287.515 157.603C288.882 160.101 291.852 161.539 295.363 161.492C299.346 161.421 303.235 159.771 306.323 156.872C306.794 156.425 307.525 156.448 307.949 156.92C308.397 157.391 308.373 158.122 307.902 158.546C304.39 161.845 299.959 163.731 295.387 163.801C295.316 163.801 295.222 163.801 295.128 163.801Z" fill="black"></path>
  <path d="M316.484 127.955C316.908 126.305 315.847 124.632 314.103 124.184C312.383 123.736 310.639 124.726 310.214 126.352C309.79 128.002 310.851 129.675 312.595 130.123C314.315 130.571 316.059 129.605 316.484 127.955Z" fill="black"></path>
  <path d="M271.117 112.707C271.541 111.057 270.48 109.384 268.736 108.936C267.016 108.488 265.272 109.478 264.847 111.104C264.423 112.754 265.484 114.427 267.228 114.875C268.948 115.323 270.692 114.333 271.117 112.707Z" fill="black"></path>
  <path d="M281.011 137.57C280.728 137.57 280.445 137.476 280.233 137.264L276.792 134.129C276.368 133.752 275.59 133.022 275.59 131.938C275.613 130.641 276.745 129.934 277.334 129.557C282 126.682 285.111 121.78 285.677 116.453C285.748 115.817 286.313 115.346 286.95 115.416C287.586 115.487 288.057 116.053 287.987 116.689C287.374 122.722 283.839 128.261 278.559 131.537C278.418 131.608 278.064 131.843 277.923 132.008C277.97 132.055 278.088 132.197 278.347 132.432L281.788 135.567C282.26 135.991 282.283 136.722 281.859 137.193C281.647 137.452 281.317 137.57 281.011 137.57Z" fill="black"></path>
  <path d="M302.292 116.1C301.868 116.1 301.468 115.864 301.255 115.463C299.417 111.904 295.552 109.241 291.451 108.723C289.377 108.464 286.973 109.006 286.384 110.538C286.148 111.127 285.488 111.433 284.899 111.221C284.31 110.985 284.004 110.325 284.216 109.736C285.276 106.932 288.764 106.06 291.734 106.437C296.589 107.049 301.114 110.184 303.306 114.403C303.589 114.968 303.377 115.675 302.811 115.958C302.646 116.053 302.457 116.1 302.292 116.1Z" fill="black"></path>
  <path d="M351.456 131.985C351.315 131.985 351.174 131.961 351.032 131.914L336.302 126.14C335.713 125.904 335.407 125.244 335.642 124.631C335.878 124.042 336.538 123.736 337.151 123.971L351.881 129.746C352.47 129.981 352.776 130.641 352.541 131.254C352.352 131.702 351.928 131.985 351.456 131.985Z" fill="black"></path>
  <path d="M350.093 143.275C349.951 143.275 349.81 143.251 349.645 143.181C349.056 142.945 348.773 142.261 349.009 141.672C350.47 138.113 351.177 134.178 351.083 130.336C351.059 129.7 351.578 129.158 352.214 129.158C352.85 129.134 353.392 129.652 353.392 130.289C353.487 134.46 352.709 138.703 351.13 142.568C350.988 142.992 350.564 143.275 350.093 143.275Z" fill="black"></path>
  <path d="M380.599 340.423C394.904 332.103 418.614 302.62 412.133 278.721C408.668 265.995 402.564 220.155 335.725 215.865C334.381 237.171 313.594 246.787 300.349 248.366C293.137 249.238 265.892 248.413 265.892 216.808C247.862 217.798 225.096 220.579 190.026 234.555C163.465 245.137 118.19 252.137 118.19 252.137C118.19 252.137 72.3972 193.57 55.9701 169.554C46.9435 156.379 30.6579 211.01 20.5707 187.937C19.0388 184.449 67.4714 281.29 71.4073 288.62C91.9823 326.895 186.939 302.667 205.298 302.667C203.507 329.346 214.89 345.113 224.153 353.197C227.005 414.781 211.968 457.392 211.968 457.392C211.968 457.392 296.177 488.691 383.38 462.931C390.073 460.951 366.693 407.027 380.599 340.423Z" fill="#FEC00F"></path>
  <path d="M309.73 474.196C292.714 474.196 277.371 472.758 264.809 470.943C233.11 466.371 211.781 458.546 211.569 458.452C210.979 458.24 210.673 457.58 210.885 456.991C211.026 456.567 225.757 414.097 223.046 353.739C215.127 346.692 202.66 331.137 204.097 303.845C200.256 304.033 193.939 304.929 186.162 306.06C151.587 311.08 87.1991 320.39 70.4185 289.138C68.3917 285.367 54.9814 258.665 41.9953 232.857C33.3222 215.582 24.4134 197.859 20.996 191.189C20.4775 190.387 19.9826 189.468 19.5348 188.384C19.1577 187.489 19.7234 186.947 20.0769 186.782C21.0903 186.31 21.5145 187.111 22.1037 188.243C22.3394 188.691 22.6458 189.28 22.9993 190.01C24.0128 191.566 25.0969 192.391 26.2046 192.509C29.9755 192.862 35.0191 185.65 39.4735 179.287C44.3285 172.311 48.5473 166.301 52.7424 166.301H52.766C54.3686 166.301 55.7592 167.173 56.9376 168.893C72.3276 191.377 114.043 244.924 118.71 250.887C124.437 249.968 165.257 243.204 189.627 233.494C224.602 219.565 247.793 216.666 265.846 215.676C266.152 215.676 266.482 215.77 266.695 215.983C266.93 216.195 267.048 216.501 267.048 216.831C267.048 227.177 270.041 235.096 275.933 240.329C283.64 247.163 294.811 247.894 300.208 247.258C311.498 245.914 333.204 237.595 334.571 215.818C334.595 215.511 334.736 215.228 334.972 215.016C335.207 214.804 335.514 214.71 335.82 214.733C398.794 218.764 408.74 259.843 412.487 275.304C412.77 276.482 413.03 277.543 413.265 278.438C419.935 302.973 396.107 332.457 381.637 341.177C372.681 384.566 379.728 423.218 383.522 444.028C385.902 457.109 386.987 463.072 383.711 464.038C357.88 471.65 332.332 474.196 309.73 474.196ZM213.43 456.685C218.073 458.287 237.682 464.721 265.21 468.681C294.222 472.852 338.248 475.044 383.051 461.822C383.051 461.822 383.687 461.469 383.357 457.651C383.074 454.516 382.273 450.086 381.236 444.429C377.394 423.383 370.253 384.236 379.468 340.187C379.539 339.857 379.728 339.598 380.01 339.433C394.434 331.043 417.177 301.747 411.003 279.027C410.767 278.132 410.508 277.048 410.201 275.846C406.242 259.537 397.027 221.45 336.786 217.114C334.642 239.551 312.228 248.13 300.468 249.544C298.865 249.732 284.606 251.146 274.378 242.049C268.203 236.581 264.951 228.497 264.738 218.057C247.039 219.094 224.342 222.157 190.451 235.638C164.079 246.15 118.804 253.22 118.356 253.291C117.932 253.362 117.531 253.197 117.272 252.867C116.824 252.278 71.2906 193.993 55.005 170.213C53.9209 168.634 53.0252 168.634 52.7424 168.634C49.7492 168.634 45.2948 175.021 41.3589 180.63C36.0796 188.196 31.1068 195.337 25.969 194.818C25.7568 194.795 25.5683 194.771 25.3797 194.724C26.2753 196.515 27.3359 198.589 28.4908 200.875C32.6388 209.124 38.2479 220.248 44.0457 231.82C56.419 256.426 70.4185 284.307 72.4218 288.054C88.4482 317.868 151.776 308.7 185.809 303.774C194.576 302.501 201.505 301.512 205.299 301.512C205.629 301.512 205.936 301.653 206.148 301.889C206.36 302.124 206.478 302.431 206.454 302.761C204.592 330.265 217.225 345.631 224.908 352.348C225.144 352.56 225.285 352.843 225.309 353.173C227.925 408.841 215.716 449.591 213.43 456.685Z" fill="black"></path>
  <path d="M65.7134 38.1348L20.6039 86.0253L1.16016 305.351L182.8 323.593L206.793 52.7942L65.7134 38.1348Z" fill="white"></path>
  <path d="M182.798 324.748C182.751 324.748 182.728 324.748 182.681 324.748L1.04041 306.506C0.404066 306.435 -0.0437357 305.893 0.00340068 305.257L19.4472 85.9312C19.4707 85.672 19.5886 85.4363 19.7536 85.2477L64.8867 37.3571C65.146 37.0979 65.4994 36.9565 65.853 37.0036L206.932 51.663C207.569 51.7337 208.016 52.2758 207.969 52.9121L183.953 323.711C183.93 324.017 183.765 324.3 183.529 324.512C183.317 324.654 183.058 324.748 182.798 324.748ZM2.4074 304.314L181.761 322.32L205.565 53.8077L66.183 39.3369L21.7333 86.4968L2.4074 304.314Z" fill="black"></path>
  <path d="M20.5898 86.0253L61.6221 89.1364L65.6993 38.1348L20.5898 86.0253Z" fill="#FEC00F"></path>
  <path d="M61.6264 90.2917C61.6029 90.2917 61.5556 90.2917 61.5321 90.2917L20.4999 87.1807C20.0521 87.1572 19.675 86.8508 19.51 86.4501C19.345 86.0259 19.4393 85.5545 19.7457 85.2481L64.8789 37.3576C65.2088 37.004 65.7509 36.8862 66.1987 37.0983C66.6465 37.2869 66.9292 37.7582 66.8821 38.2531L62.8049 89.2312C62.7341 89.8204 62.2156 90.2917 61.6264 90.2917ZM23.0924 85.0596L60.5658 87.8878L64.2897 41.3406L23.0924 85.0596Z" fill="black"></path>
  <path d="M168.962 89.2788C168.938 89.2788 168.938 89.2788 168.914 89.2788L135.778 85.8378C135.565 85.8142 135.401 85.6257 135.424 85.4136C135.448 85.2015 135.636 85.0601 135.848 85.0601L168.985 88.501C169.197 88.5246 169.362 88.7131 169.339 88.9252C169.339 89.1138 169.15 89.2788 168.962 89.2788Z" fill="black"></path>
  <path d="M167.828 102.005C167.805 102.005 167.805 102.005 167.781 102.005L120.998 97.1498C120.786 97.1263 120.645 96.9377 120.645 96.7256C120.668 96.5135 120.857 96.3721 121.069 96.3721L167.852 101.227C168.064 101.251 168.229 101.439 168.205 101.651C168.205 101.863 168.04 102.005 167.828 102.005Z" fill="black"></path>
  <path d="M162.834 158.381C162.81 158.381 162.81 158.381 162.787 158.381L47.7738 146.432C47.5617 146.408 47.3966 146.219 47.4202 146.007C47.4438 145.795 47.6323 145.654 47.8444 145.654L162.857 157.603C163.069 157.626 163.234 157.815 163.211 158.027C163.211 158.239 163.022 158.381 162.834 158.381Z" fill="black"></path>
  <path d="M159.15 200.049C159.127 200.049 159.127 200.049 159.103 200.049L44.0902 188.1C43.8781 188.076 43.7131 187.888 43.7366 187.676C43.7602 187.464 43.9487 187.299 44.1608 187.322L159.174 199.271C159.386 199.295 159.551 199.483 159.527 199.695C159.504 199.884 159.339 200.049 159.15 200.049Z" fill="black"></path>
  <path d="M155.463 241.695C155.439 241.695 155.439 241.695 155.415 241.695L40.4027 229.746C40.1906 229.722 40.0256 229.534 40.0491 229.322C40.0727 229.109 40.2612 228.944 40.4733 228.968L155.486 240.917C155.698 240.941 155.863 241.129 155.84 241.341C155.816 241.553 155.651 241.695 155.463 241.695Z" fill="black"></path>
  <path d="M247.17 248.363C241.066 242.259 234.09 236.556 227.703 221.684C223.602 212.186 209.862 191.281 204.794 188.736C196.31 184.446 191.196 180.558 183.206 179.497C176.536 178.602 163.432 180.322 163.055 182.632C161.877 189.867 179.27 185.271 180.755 185.79C185.893 187.605 190.96 189.655 195.556 195.476C188.438 195.736 175.994 197.338 172.836 199.318C169.513 201.392 160.84 212.139 159.85 214.048C158.129 217.348 159.921 220.624 164.045 217.159C164.257 216.971 172.647 211.079 175.688 207.331C176.913 205.823 189.428 204.668 195.155 205.776C189.239 203.82 178.092 205.139 175.617 207.355C175.028 207.873 165.766 217.984 165.2 218.997C162.772 223.263 166.92 224.842 170.196 222.391C173.897 219.61 177.809 215.085 178.775 214.59C184.031 211.903 189.451 213.435 193.977 213.977C189.546 213.129 184.432 212.233 179.034 214.307C178.068 214.684 168.169 222.58 170.456 226.492C171.681 228.59 176.395 227.482 182.145 221.024C185.563 221.519 187.495 222.297 190.347 222.98C192.327 223.452 199.067 238.418 206.727 242.778C208.259 243.65 213.467 256.636 222.824 274.194C224.851 277.989 234.16 283.928 244.365 269.74C248.018 264.625 252.944 254.138 247.17 248.363Z" fill="white"></path>
  <path d="M230.953 279.898C230.694 279.898 230.458 279.898 230.222 279.875C226.145 279.592 222.963 277.023 221.761 274.76C217.283 266.346 213.725 258.946 211.132 253.525C208.87 248.812 206.725 244.334 206.065 243.768C201.045 240.916 196.591 233.94 193.315 228.849C192.018 226.822 190.534 224.513 189.968 224.112C189.002 223.876 188.153 223.641 187.328 223.405C185.843 222.981 184.453 222.58 182.591 222.297C178.679 226.54 174.743 228.897 171.985 228.614C170.878 228.496 169.982 227.977 169.487 227.105C169.016 226.304 168.874 225.408 169.063 224.371C167.342 225.008 165.575 224.843 164.444 223.829C163.949 223.382 162.464 221.708 164.161 218.597C161.474 220.53 159.848 219.705 159.235 219.21C157.844 218.102 157.703 215.769 158.858 213.53C159.942 211.432 168.757 200.544 172.245 198.352C175.544 196.278 186.503 194.911 193.173 194.463C189.284 190.292 185.089 188.548 180.47 186.922C180.093 186.898 178.749 187.063 177.571 187.228C171.538 188.029 165.457 188.618 162.959 186.05C162.346 185.413 161.663 184.258 161.945 182.444C162.558 178.626 177.665 177.565 183.392 178.343C189.614 179.191 194.234 181.713 199.607 184.659C201.398 185.649 203.26 186.662 205.334 187.699C210.731 190.433 224.613 211.597 228.785 221.237C234.37 234.223 240.239 239.95 245.919 245.489C246.626 246.172 247.333 246.879 248.016 247.563C254.333 253.879 249.289 264.909 245.306 270.447C239.744 278.13 234.535 279.898 230.953 279.898ZM182.143 219.87C182.19 219.87 182.261 219.87 182.308 219.87C184.642 220.2 186.315 220.671 187.965 221.143C188.789 221.378 189.661 221.614 190.604 221.85C191.759 222.132 192.796 223.711 195.271 227.577C198.24 232.196 202.695 239.172 207.267 241.765C208.328 242.378 209.553 244.829 213.23 252.488C215.822 257.885 219.357 265.286 223.812 273.629C224.566 275.067 226.97 277.282 230.387 277.518C233.381 277.706 238.094 276.41 243.397 269.033C246.697 264.437 251.575 254.374 246.343 249.142C245.66 248.458 244.953 247.775 244.269 247.091C238.707 241.647 232.414 235.496 226.64 222.085C222.445 212.328 208.822 191.989 204.274 189.703C202.153 188.642 200.291 187.605 198.476 186.615C193.103 183.669 188.86 181.359 183.062 180.558C176.393 179.663 165.386 181.43 164.208 182.821C164.09 183.693 164.373 184.093 164.609 184.329C166.494 186.262 173.777 185.295 177.265 184.824C179.716 184.494 180.588 184.4 181.177 184.612C186.574 186.521 191.806 188.713 196.496 194.675C196.756 195.029 196.826 195.477 196.638 195.877C196.449 196.278 196.072 196.537 195.624 196.537C187.776 196.844 176.157 198.541 173.47 200.214C170.406 202.123 161.898 212.587 160.908 214.496C160.201 215.887 160.319 217.018 160.673 217.301C160.955 217.513 161.875 217.395 163.336 216.193C163.359 216.17 163.524 216.052 163.76 215.887C168.214 212.658 170.995 210.348 172.739 208.699C173.894 207.449 174.719 206.577 174.884 206.436C177.901 203.702 189.685 202.665 195.554 204.621C196.143 204.81 196.473 205.423 196.308 206.012C196.143 206.601 195.577 206.978 194.964 206.86C189.19 205.729 177.807 207.049 176.581 208.039C176.133 208.604 175.426 209.358 174.342 210.372C171.467 213.483 166.683 218.786 166.235 219.516C165.598 220.648 165.481 221.59 165.952 222.015C166.565 222.557 168.097 222.486 169.511 221.425C170.029 221.048 170.548 220.624 171.066 220.176C173.635 216.735 177.783 213.506 178.608 213.177C179.48 212.847 180.328 212.587 181.177 212.399C182.685 211.998 184.17 211.857 185.631 211.857C188.86 211.762 191.783 212.352 194.21 212.799C194.823 212.917 195.224 213.506 195.129 214.119C195.035 214.732 194.469 215.156 193.857 215.086C193.079 214.991 192.301 214.873 191.476 214.756C189.497 214.449 187.47 214.143 185.443 214.166C184.288 214.214 183.11 214.331 181.931 214.591C181.059 214.803 180.187 215.133 179.315 215.58C179.032 215.745 177.995 216.759 177.1 217.678C175.874 218.88 174.342 220.412 172.716 221.802C172.103 222.651 171.632 223.499 171.396 224.277C171.208 224.937 171.208 225.456 171.443 225.856C171.514 225.998 171.703 226.186 172.174 226.233C173.753 226.398 177.076 224.913 181.248 220.2C181.483 220.011 181.813 219.87 182.143 219.87Z" fill="black"></path>
  <path d="M312.52 306.366C312.45 306.366 312.402 306.366 312.355 306.366C309.174 305.989 260.269 262.647 246.388 249.189C245.916 248.741 245.916 248.011 246.364 247.563C246.812 247.092 247.543 247.092 247.99 247.54C264.512 263.542 308.749 302.171 312.685 304.08C317.422 303.703 358.973 271.885 374.67 259.866C375.188 259.489 375.895 259.583 376.296 260.078C376.673 260.596 376.579 261.303 376.084 261.704C333.684 294.134 316.291 306.366 312.52 306.366Z" fill="black"></path>
  <path d="M304.936 379.591C302.461 379.591 300.222 379.261 298.266 378.601C283.984 373.84 239.558 312.233 224.969 291.988L223.272 289.655C219.666 284.658 216.037 274.147 218.936 268.231C219.218 267.665 219.902 267.43 220.491 267.689C221.057 267.972 221.292 268.655 221.033 269.244C218.653 274.1 221.905 283.763 225.181 288.288L226.878 290.621C265.766 344.521 290.041 373.369 299.044 376.386C313.161 381.099 343.211 366.652 388.391 333.468C388.909 333.091 389.64 333.209 390.017 333.727C390.394 334.246 390.276 334.976 389.758 335.353C349.315 365.026 321.434 379.591 304.936 379.591Z" fill="black"></path>
  <path d="M231.161 288.007C230.972 288.007 230.807 287.865 230.784 287.677C230.76 287.464 230.902 287.276 231.114 287.252C239.316 286.121 245.49 279.734 251.618 272.734C251.76 272.569 251.995 272.569 252.16 272.687C252.325 272.829 252.349 273.064 252.207 273.229C245.985 280.347 239.693 286.852 231.208 288.007C231.208 288.007 231.185 288.007 231.161 288.007Z" fill="black"></path>
  <path d="M235.808 294.323C235.619 294.323 235.478 294.206 235.431 294.017C235.384 293.805 235.525 293.593 235.714 293.546C239.155 292.792 242.289 291.095 244.835 288.667C244.976 288.526 245.235 288.526 245.377 288.667C245.518 288.809 245.518 289.068 245.377 289.209C242.737 291.755 239.461 293.499 235.902 294.3C235.855 294.3 235.832 294.323 235.808 294.323Z" fill="black"></path>
  <path d="M311.581 460.43C270.383 460.43 233.971 452.77 220.277 449.494C220.065 449.447 219.948 449.235 219.995 449.023C220.042 448.811 220.254 448.693 220.466 448.74C241.041 453.666 312.995 468.514 375.285 452.252C375.498 452.181 375.71 452.323 375.757 452.535C375.804 452.747 375.686 452.959 375.474 453.006C354.475 458.474 332.415 460.43 311.581 460.43Z" fill="black"></path>
  <path d="M204.785 304.975C204.644 304.975 204.502 304.952 204.361 304.905C203.772 304.669 203.465 304.009 203.701 303.396L212.209 281.501C212.445 280.912 213.105 280.606 213.717 280.841C214.307 281.077 214.613 281.737 214.377 282.35L205.869 304.245C205.681 304.692 205.233 304.975 204.785 304.975Z" fill="black"></path>
  <path d="M204.512 558.686C204.465 558.686 204.394 558.686 204.347 558.662C203.71 558.568 203.286 557.979 203.38 557.343C205.949 540.161 208.754 521.071 211.464 502.594C213.798 486.732 215.989 471.766 217.71 460.242C217.804 459.605 218.393 459.181 219.03 459.275C219.666 459.37 220.09 459.959 219.996 460.595C218.275 472.12 216.084 487.086 213.75 502.947C211.04 521.425 208.235 540.538 205.666 557.72C205.572 558.285 205.077 558.686 204.512 558.686Z" fill="black"></path>
  <path d="M249.479 563.495C249.432 563.495 249.384 563.495 249.337 563.495C248.701 563.424 248.253 562.835 248.324 562.199L253.98 517.348C254.051 516.712 254.64 516.264 255.276 516.335C255.913 516.406 256.361 516.995 256.29 517.631L250.634 562.482C250.563 563.071 250.068 563.495 249.479 563.495Z" fill="black"></path>
  <path d="M283.557 570C282.921 570 282.402 569.482 282.402 568.846V538.678C282.402 538.042 282.921 537.523 283.557 537.523C284.194 537.523 284.712 538.042 284.712 538.678V568.846C284.736 569.482 284.217 570 283.557 570Z" fill="black"></path>
  <path d="M405.522 558.686C405.098 558.686 404.697 558.45 404.485 558.05C397.98 545.252 393.055 527.717 387.87 509.146C383.792 494.628 379.597 479.615 374.271 465.521C374.035 464.932 374.342 464.248 374.954 464.036C375.544 463.8 376.227 464.107 376.439 464.72C381.789 478.908 386.008 493.968 390.085 508.533C395.247 526.987 400.149 544.404 406.536 557.013C406.819 557.578 406.607 558.285 406.017 558.568C405.876 558.662 405.687 558.686 405.522 558.686Z" fill="black"></path>
</svg>
