<svg xmlns="http://www.w3.org/2000/svg" xmlns:xlink="http://www.w3.org/1999/xlink" width="476.902" height="731" viewBox="0 0 476.902 731">
  <defs>
    <clipPath id="clip-path">
      <rect id="Rectangle_147" data-name="Rectangle 147" width="159.405" height="193.473" fill="none"/>
    </clipPath>
  </defs>
  <g id="Group_512" data-name="Group 512" transform="translate(-8138.665 13653)">
    <g id="Group_494" data-name="Group 494" transform="translate(6841.882 -14048.306)">
      <g id="Group_3" data-name="Group 3" transform="translate(1407.725 690.531)">
        <g id="Path_22" data-name="Path 22" transform="translate(158.812 198.672)">
          <path id="Path_1845" data-name="Path 1845" d="M361.481,554.472H344.146l-.488-1.829L284.991,333.456l-.828-3.1H316.11l.4,1.975,44.372,219.188Z" transform="translate(-280.953 -327.889)" fill="#fff"/>
          <path id="Path_1846" data-name="Path 1846" d="M360.374,553.472,316,334.281H289.278l58.662,219.19h12.434M366.4,558.4H344.158l-.979-3.655-58.662-219.19-1.658-6.2h37.173l.8,3.95,44.376,219.19Z" transform="translate(-282.86 -329.353)"/>
        </g>
        <path id="Path_23" data-name="Path 23" d="M242.594,552.592,282.86,331.349h26.722L255.028,552.592Z" transform="translate(-226.491 -127.753)" fill="#fff" stroke="#000" stroke-width="2"/>
        <path id="Path_26" data-name="Path 26" d="M361.239,521.712c-104.432,0-124.157-27.565-124.157-64.7,0-52.883,27.6-186.483,124.162-186.483s124.161,133.6,124.161,186.483C485.4,494.147,465.671,521.712,361.239,521.712Z" transform="translate(-237.082 -270.531)" fill="none" stroke="#000" stroke-width="3"/>
        <path id="Path_28" data-name="Path 28" d="M351.476,317.249c-73.9,0-111.156,30.219-111.156,45.223S271.769,403.7,351.476,403.7s111.156-26.222,111.156-41.224S425.371,317.249,351.476,317.249Z" transform="translate(-229.262 -157.706)"/>
      </g>
      <g id="Group_6" data-name="Group 6" transform="translate(1392.995 395.306)">
        <path id="Path_98" data-name="Path 98" d="M314.493,336.3V267.421c-23.194,3.38-31.875,18.973-72.742,89.672-12.508,21.651-11.849,43.789,3.245,50.1s30.148-7.759,40.657-29.184S307.852,341.086,314.493,336.3Z" transform="translate(-232.282 17.181)" fill="#dfc6ab"/>
        <path id="Path_99" data-name="Path 99" d="M314.493,336.3V267.421c-23.194,3.38-31.875,18.973-72.742,89.672-12.508,21.651-11.849,43.789,3.245,50.1s30.148-7.759,40.657-29.184S307.852,341.086,314.493,336.3Z" transform="translate(-232.282 17.181)" fill="#dfc6ab" opacity="0.5"/>
        <path id="Path_100" data-name="Path 100" d="M314.493,336.3V267.421c-23.194,3.38-31.875,18.973-72.742,89.672-12.508,21.651-11.849,43.789,3.245,50.1s30.148-7.759,40.657-29.184S307.852,341.086,314.493,336.3Z" transform="translate(-232.282 17.181)" fill="#fff" stroke="#000" stroke-width="2"/>
        <path id="Path_101" data-name="Path 101" d="M290.035,336.3V267.421c23.2,3.38,31.88,18.973,72.742,89.672,12.508,21.651,11.857,43.789-3.24,50.1s-30.15-7.751-40.654-29.184S296.678,341.086,290.035,336.3Z" transform="translate(-94.47 17.181)" fill="#dfc6ab"/>
        <path id="Path_102" data-name="Path 102" d="M290.035,336.3V267.421c23.2,3.38,31.88,18.973,72.742,89.672,12.508,21.651,11.857,43.789-3.24,50.1s-30.15-7.751-40.654-29.184S296.678,341.086,290.035,336.3Z" transform="translate(-94.47 17.181)" fill="#dfc6ab" opacity="0.5"/>
        <path id="Path_103" data-name="Path 103" d="M290.035,336.3V267.421c23.2,3.38,31.88,18.973,72.742,89.672,12.508,21.651,11.857,43.789-3.24,50.1s-30.15-7.751-40.654-29.184S296.678,341.086,290.035,336.3Z" transform="translate(-94.47 17.181)" fill="#fff" stroke="#000" stroke-width="2"/>
        <path id="Path_104" data-name="Path 104" d="M360.994,349.278c-36.665-63.428-46.12-78.823-69.282-82.2l-2.255-.329v72.17a109.066,109.066,0,0,1,18.266,37.171C331.05,372.547,354.7,356.239,360.994,349.278Z" transform="translate(-95.862 15.57)" fill="#d7a090"/>
        <path id="Path_105" data-name="Path 105" d="M360.994,349.278c-36.665-63.428-46.12-78.823-69.282-82.2l-2.255-.329v72.17a109.066,109.066,0,0,1,18.266,37.171C331.05,372.547,354.7,356.239,360.994,349.278Z" transform="translate(-95.862 15.57)"/>
        <path id="Path_107" data-name="Path 107" d="M236.472,349.278c36.663-63.428,46.12-78.823,69.282-82.2l2.255-.329v72.17a109.018,109.018,0,0,0-18.263,37.171C266.416,372.547,242.765,356.239,236.472,349.278Z" transform="translate(-223.826 15.57)" fill="#d7a090"/>
        <path id="Path_108" data-name="Path 108" d="M236.472,349.278c36.663-63.428,46.12-78.823,69.282-82.2l2.255-.329v72.17a109.018,109.018,0,0,0-18.263,37.171C266.416,372.547,242.765,356.239,236.472,349.278Z" transform="translate(-223.826 15.57)"/>
        <path id="Path_110" data-name="Path 110" d="M285.213,313.717a114.374,114.374,0,0,1-47.192-24.327" transform="translate(-220.085 70.237)" fill="none" stroke="#d7a090" stroke-linecap="round" stroke-linejoin="round" stroke-width="0.577" opacity="0.5"/>
        <rect id="Rectangle_5" data-name="Rectangle 5" width="35.507" height="42.611" transform="translate(121.271 249.095)" fill="#dfc6ab"/>
        <path id="Path_112" data-name="Path 112" d="M271.484,283.138c2.523-.069,5.047-.267,7.547-.564a121.3,121.3,0,0,0,14.846-2.853c3.319-.823,6.611-1.742,9.908-2.646V257.023H268.28v26.166C269.352,283.211,270.432,283.164,271.484,283.138Z" transform="translate(-147.009 -7.928)" fill="#dfc6ab" opacity="0.5"/>
        <path id="Path_113" data-name="Path 113" d="M283.084,277.456c6.946-.219,13.813-1.165,20.7-1.984V257.024h-35.5v19.529a66.525,66.525,0,0,0,14.8.9Z" transform="translate(-147.009 -7.927)" fill="#dfc6ab" opacity="0.5"/>
        <path id="Path_114" data-name="Path 114" d="M300.876,231.224l-2.316,42.628s12.114,3.384,23.423-15.975c10.992-18.805,1.838-33.512-8.546-33.512a16.438,16.438,0,0,0-12.561,6.857Z" transform="translate(-73.882 -86.799)" fill="#fff" stroke="#000" stroke-width="2"/>
        <path id="Path_116" data-name="Path 116" d="M266.168,231.224l2.316,42.628s-12.11,3.384-23.423-15.975c-10.992-18.805-1.838-33.512,8.546-33.512a16.438,16.438,0,0,1,12.561,6.857Z" transform="translate(-215.12 -86.799)" fill="#fff" stroke="#000" stroke-width="2"/>
        <path id="Path_118" data-name="Path 118" d="M340.834,431.937h0a92.776,92.776,0,0,1-92.688-88.692l-2.464-55.906a92.775,92.775,0,0,1,92.684-96.86h4.928a92.775,92.775,0,0,1,92.684,96.859l-2.464,55.912a92.777,92.777,0,0,1-92.679,88.687Z" transform="translate(-201.805 -168.638)" fill="#fff" stroke="#000" stroke-width="2"/>
        <path id="Path_121" data-name="Path 121" d="M305.609,236.557a10.652,10.652,0,1,1-3.094-7.58,10.652,10.652,0,0,1,3.094,7.58Z" transform="translate(-108.31 -76.309)"/>
        <path id="Path_123" data-name="Path 123" d="M256.413,236.557a10.652,10.652,0,1,0,3.094-7.58,10.652,10.652,0,0,0-3.094,7.58Z" transform="translate(-175.668 -76.309)"/>
        <path id="Path_125" data-name="Path 125" d="M264.535,247.044s10.026,8.131,30.555,8.131,30.535-8.131,30.535-8.131" transform="translate(-156.052 -32.03)" fill="none" stroke="#000" stroke-linecap="round" stroke-linejoin="round" stroke-width="3"/>
        <path id="Path_127" data-name="Path 127" d="M251.536,328.308a52.155,52.155,0,0,0,51.953,56.613H350.38a52.154,52.154,0,0,0,51.953-56.613l-.53-6.144H252.064Z" transform="translate(-187.908 149.389)" fill="#6d777b"/>
        <path id="Path_128" data-name="Path 128" d="M251.536,328.308a52.155,52.155,0,0,0,51.953,56.613H350.38a52.154,52.154,0,0,0,51.953-56.613l-.53-6.144H252.064Z" transform="translate(-187.908 149.389)"/>
        <path id="Path_130" data-name="Path 130" d="M326.66,383.041c-.761,41.712-5.882,75.945-13.356,113.716,4.519,14.084,8.06,40.334,8.06,56.557h-78.2c0-13.026,29.463-32.388,29.463-56.557L268.71,372.141c-2.989-23.283,7.971-42.1,27.952-42.1C327.821,330.039,327.152,356.277,326.66,383.041Z" transform="translate(-207.662 168.406)" fill="#fff"/>
        <path id="Path_132" data-name="Path 132" d="M279.005,383.041c.761,41.712,5.884,75.945,13.356,113.716-4.519,14.084-8.06,40.334-8.06,56.557h78.2c0-13.026-29.465-32.388-29.465-56.557l3.918-124.615c2.992-23.283-7.971-42.1-27.95-42.1C277.848,330.039,278.518,356.277,279.005,383.041Z" transform="translate(-121.418 168.406)" fill="#dfc6ab"/>
        <path id="Path_133" data-name="Path 133" d="M279.005,383.041c.761,41.712,5.884,75.945,13.356,113.716-4.519,14.084-8.06,40.334-8.06,56.557h78.2c0-13.026-29.465-32.388-29.465-56.557l3.918-124.615c2.992-23.283-7.971-42.1-27.95-42.1C277.848,330.039,278.518,356.277,279.005,383.041Z" transform="translate(-121.418 168.406)" fill="#fff"/>
        <path id="Path_134" data-name="Path 134" d="M405.582,268.921c-14.989,27.812-39.117,41.613-69.427,50.513-6.594,1.939-14.629,2.974-19.529-1.843-5.3-5.209-3.762-13.944-1.826-21.112a99.944,99.944,0,0,1-35.941,28.7c-3.627,1.71-11.157,5.059-15.15-2.018-7.557-.831-11.024-1.523-15.085-9.753-4.219-8.558.174-21.03,6.857-27.844-17.953-5.451-19.483-33.3-14.568-45.659,4.468-11.228,20.619-28.554,36.936-33.415,30.779-9.177,36.279-2.085,62.358-12.017,11.088-4.221,27.477-12.813,48.3-9.741,22.061,3.248,30.862,19.567,31.414,30.035a52.21,52.21,0,0,1,37.907,19.185c15.186,17.929,9.9,38.67,14.2,52.253,3.1,9.778,17.3,28.226,3.09,40.432-6.453,5.546-20.54,1.4-22.9-3.489-4.122,4.3-6.816,6.054-12.355,3.869a33.291,33.291,0,0,1-13.494-11.367C415.424,301.416,405.488,286.893,405.582,268.921Z" transform="translate(-218.933 -184.083)"/>
        <path id="Path_142" data-name="Path 142" d="M327.793,266.508a41.862,41.862,0,0,1-63.635,0" transform="translate(-156.957 14.974)" fill="none" stroke="#d7a090" stroke-linecap="round" stroke-linejoin="round" stroke-width="0.577" opacity="0.5"/>
        <g id="Component_1_1" data-name="Component 1 – 1" transform="translate(58.586 471.554)" clip-path="url(#clip-path)">
          <path id="Path_129" data-name="Path 129" d="M390.127,344.7a.394.394,0,0,1,.143-.54,72.075,72.075,0,0,1,11.564-3.435,51.807,51.807,0,0,0,.493-12.417l-.53-6.144H252.049l-.53,6.144a51.86,51.86,0,0,0,.549,12.757c4.31,2.787,10.1,2.777,14.942,4.043a.4.4,0,0,1,.174.658c-3.627,3.05-7.282,6.094-10.842,9.228a51.992,51.992,0,0,0,47.137,29.928h46.889a51.949,51.949,0,0,0,47.617-30.988,86.333,86.333,0,0,1-7.858-9.23Z" transform="translate(-246.48 -322.164)" stroke="#000" stroke-width="2"/>
          <path id="Path_143" data-name="Path 143" d="M312.306,384.478v-.493c.342-18.761.67-36.468-9.3-46.623-5.219-5.312-12.636-7.9-22.669-7.9a27.662,27.662,0,0,0-21.395,9.436c-7.2,8.186-10.3,20.9-8.523,34.7l3.908,124.228c-.02.064-.054.126-.079.188h44.768a621.72,621.72,0,0,0,13.289-113.537Z" transform="translate(-249.923 -306.294)" fill="#ffc92d" stroke="#000" stroke-width="2"/>
          <path id="Path_144" data-name="Path 144" d="M336.41,497.83,340.3,373.789c1.8-13.989-1.3-26.706-8.5-34.89a27.667,27.667,0,0,0-21.395-9.436c-10.041,0-17.46,2.585-22.669,7.9-9.97,10.152-9.644,27.868-9.3,46.623v.493a622.211,622.211,0,0,0,13.288,113.549h44.772C336.465,497.959,336.43,497.9,336.41,497.83Z" transform="translate(-181.392 -306.292)" fill="#ffc92d" stroke="#000" stroke-width="2"/>
        </g>
        <path id="Path_147" data-name="Path 147" d="M310.57,387.094c-5.148,1.335-2.838,4.874-4.436,8.442s-2.814,5.174-4.857,3.768c-3.072-2.1,1.1-8.75,2.464-9.984A13.55,13.55,0,0,0,305.265,383a1.4,1.4,0,0,0-1.045-1.478c-9.216-2.257-24.641-2.114-30.986-1.681a1.375,1.375,0,0,0-1.264,1.232c-1.594,11.959-9.958,22.632-17.51,32.147-6.22,7.828-11.582,14.585-11.582,20.452v.987h80.168v-.987a243,243,0,0,0-5.785-48.217,1.2,1.2,0,0,0-1.877-.658A15.4,15.4,0,0,1,310.57,387.094Z" transform="translate(-208.354 288.069)"/>
        <path id="Path_149" data-name="Path 149" d="M292.681,387.094c5.148,1.335,2.838,4.874,4.436,8.442s2.814,5.174,4.852,3.768c3.072-2.1-1.1-8.75-2.464-9.984A13.585,13.585,0,0,1,297.973,383a1.4,1.4,0,0,1,1.05-1.478c9.216-2.257,24.641-2.114,30.988-1.681a1.37,1.37,0,0,1,1.26,1.232c1.594,11.959,9.957,22.632,17.512,32.147,6.214,7.828,11.582,14.585,11.582,20.452v.987H280.213v-.987A242.978,242.978,0,0,1,286,385.458a1.2,1.2,0,0,1,1.883-.658,15.376,15.376,0,0,0,4.8,2.294Z" transform="translate(-118.191 288.069)"/>
        <path id="Path_154" data-name="Path 154" d="M276.551,294.253c21.533,2.329,77.488,20.223,77.488,20.223v31.172H252.332c-14.725,0-24.256-18.387-17.175-35.236S262.382,292.724,276.551,294.253Z" transform="translate(-232.769 80.717)" fill="#dfc6ab"/>
        <path id="Path_155" data-name="Path 155" d="M276.551,294.253c21.533,2.329,77.488,20.223,77.488,20.223v31.172H252.332c-14.725,0-24.256-18.387-17.175-35.236S262.382,292.724,276.551,294.253Z" transform="translate(-232.769 80.717)" fill="#fff" stroke="#000" stroke-width="2"/>
        <path id="Path_156" data-name="Path 156" d="M356.085,294.253c-21.536,2.328-77.487,20.223-77.487,20.223v31.172H380.3c14.723,0,24.256-18.387,17.172-35.236S370.266,292.724,356.085,294.253Z" transform="translate(-122.09 80.717)" fill="#dfc6ab"/>
        <path id="Path_157" data-name="Path 157" d="M356.085,294.253c-21.536,2.328-77.487,20.223-77.487,20.223v31.172H380.3c14.723,0,24.256-18.387,17.172-35.236S370.266,292.724,356.085,294.253Z" transform="translate(-122.09 80.717)" fill="#fff" stroke="#000" stroke-width="2"/>
      </g>
      <g id="Group_37" data-name="Group 37" transform="translate(1296.783 817.564)">
        <path id="Path_209" data-name="Path 209" d="M661.145,342.426H247.187a28.173,28.173,0,0,1-26.731-19.269l-4.743-14.226h476.9l-4.743,14.229a28.174,28.174,0,0,1-26.727,19.266Z" transform="translate(-215.713 -308.931)"/>
        <path id="Path_211" data-name="Path 211" d="M225.083,318.743,190.946,586.669h20.779l56.613-267.933Z" transform="translate(-183.515 -285.249)"/>
        <path id="Path_212" data-name="Path 212" d="M376.531,318.741,410.66,586.674H389.881L333.268,318.741Z" transform="translate(52.108 -285.246)"/>
      </g>
      <g id="Group_38" data-name="Group 38" transform="translate(1401.903 652.332)">
        <path id="Path_215" data-name="Path 215" d="M240.749,308.064a5.8,5.8,0,0,0,5.8,5.8H458.225a5.8,5.8,0,0,0,5.8-5.8v-2.4H240.748Z" transform="translate(-222.405 -147.484)" fill="#ba6b5a" opacity="0.5"/>
        <path id="Path_216" data-name="Path 216" d="M466.865,425.73H264.072a11.533,11.533,0,0,1-11.453-10.17l-17.2-144.4a11.537,11.537,0,0,1,11.451-12.9h237.19a11.539,11.539,0,0,1,11.453,12.9l-17.2,144.395a11.532,11.532,0,0,1-11.448,10.166Z" transform="translate(-235.339 -258.262)" fill="#fff" stroke="#000" stroke-width="2"/>
      </g>
      <path id="Path_1843" data-name="Path 1843" d="M-6876,750.985c15.522,18.481,79.734,0,79.734,0l-7.753-15.735h-7.146s-22.027,2.878-23.579,3.84S-6876,750.985-6876,750.985Z" transform="translate(8303.912 367.107)"/>
      <path id="Path_1844" data-name="Path 1844" d="M-6795.26,750.985c-15.708,18.481-80.738,0-80.738,0l7.854-15.735h7.227s22.3,2.878,23.874,3.84S-6795.26,750.985-6795.26,750.985Z" transform="translate(8431.048 367.107)"/>
    </g>
    <g id="love" transform="translate(8355 -13361)">
      <path id="Path_1855" data-name="Path 1855" d="M27.8,31c-4.032,0-7.024,2.476-8.871,5.989C17.079,33.477,14.087,31,10.054,31,4.243,31,0,35.88,0,41.832,0,49.7,7.509,54.643,18.2,63.994a1.109,1.109,0,0,0,1.461,0c10.677-9.342,18.2-14.291,18.2-22.162C37.852,35.879,33.608,31,27.8,31ZM18.926,61.688C9.084,53.139,2.218,48.39,2.218,41.832c0-4.911,3.369-8.614,7.836-8.614,4.307,0,6.975,3.988,7.8,6.949a1.11,1.11,0,0,0,2.138,0c.816-2.922,3.454-6.949,7.8-6.949,4.468,0,7.836,3.7,7.836,8.614C35.634,48.394,28.756,53.149,18.926,61.688Z" transform="translate(0 0)"/>
    </g>
  </g>
</svg>
