<svg width="127" height="49" viewBox="0 0 127 49" fill="none" xmlns="http://www.w3.org/2000/svg">
<path d="M84.2763 9.64429C84.5031 9.64429 84.6811 9.70553 84.8107 9.82803C84.9404 9.95054 85.0051 10.119 85.0051 10.3333V16.3969C85.0051 16.6114 84.9404 16.7797 84.8107 16.9022C84.6811 17.0248 84.5031 17.086 84.2763 17.086H76.1139C75.952 17.086 75.871 17.1626 75.871 17.3157V41.1108C75.871 41.3252 75.8063 41.4935 75.6766 41.6161C75.547 41.7386 75.369 41.7998 75.1422 41.7998H67.4657C67.2389 41.7998 67.0608 41.7386 66.9312 41.6161C66.8016 41.4935 66.7369 41.3252 66.7369 41.1108V17.3157C66.7369 17.1626 66.6558 17.086 66.4939 17.086H58.5745C58.3477 17.086 58.1697 17.0248 58.04 16.9022C57.9104 16.7797 57.8457 16.6114 57.8457 16.3969V10.3333C57.8457 10.119 57.9104 9.95054 58.04 9.82803C58.1697 9.70553 58.3477 9.64429 58.5745 9.64429H84.2763ZM88.4899 41.7998C88.2633 41.7998 88.0851 41.7386 87.9554 41.6161C87.826 41.4935 87.7611 41.3252 87.7611 41.1108V10.3333C87.7611 10.119 87.826 9.95054 87.9554 9.82803C88.0851 9.70553 88.2633 9.64429 88.4899 9.64429H96.1664C96.3932 9.64429 96.5714 9.70553 96.7009 9.82803C96.8305 9.95054 96.8952 10.119 96.8952 10.3333V41.1108C96.8952 41.3252 96.8305 41.4935 96.7009 41.6161C96.5714 41.7386 96.3932 41.7998 96.1664 41.7998H88.4899ZM113.639 42.1673C110.983 42.1673 108.635 41.662 106.594 40.6514C104.586 39.6408 103.015 38.2168 101.881 36.3793C100.78 34.5419 100.229 32.4288 100.229 30.0401V21.3581C100.229 18.9694 100.78 16.8716 101.881 15.0648C103.015 13.2273 104.586 11.8033 106.594 10.7927C108.635 9.7821 110.983 9.27679 113.639 9.27679C116.23 9.27679 118.546 9.76679 120.587 10.7468C122.627 11.6961 124.198 12.9976 125.3 14.6514C126.433 16.3051 127 18.1119 127 20.0719V20.1178C127 20.3322 126.935 20.5006 126.806 20.6231C126.676 20.7457 126.498 20.8068 126.271 20.8068H118.643C118.158 20.8068 117.915 20.669 117.915 20.3934C117.915 19.3828 117.526 18.51 116.749 17.775C116.004 17.0401 114.967 16.6726 113.639 16.6726C112.344 16.6726 111.307 17.086 110.53 17.9128C109.752 18.709 109.364 19.781 109.364 21.1284V30.3157C109.364 31.6326 109.801 32.7044 110.675 33.5312C111.582 34.3581 112.7 34.7715 114.028 34.7715C115.226 34.7715 116.198 34.4652 116.943 33.8528C117.72 33.2097 118.109 32.3369 118.109 31.2344V30.6372C118.109 30.4842 118.028 30.4076 117.866 30.4076H113.59C113.364 30.4076 113.186 30.3464 113.056 30.2238C112.927 30.1013 112.862 29.9329 112.862 29.7185V24.2061C112.862 23.9917 112.927 23.8234 113.056 23.7008C113.186 23.5783 113.364 23.5171 113.59 23.5171H126.271C126.498 23.5171 126.676 23.5783 126.806 23.7008C126.935 23.8234 127 23.9917 127 24.2061V30.4994C127 32.7656 126.433 34.7868 125.3 36.5631C124.198 38.3393 122.627 39.7174 120.587 40.6973C118.579 41.6773 116.263 42.1673 113.639 42.1673Z" fill="#01525C"/>
<path d="M43.2377 36.3056C44.9052 33.4914 45.9176 30.3631 46.2146 27.1419C46.3156 26.0425 45.5247 25.588 44.7685 26.41C41.4394 30.0298 33.5772 39.8709 18.7959 34.9666C17.7697 34.6263 16.6214 35.0474 16.1502 35.9988L12.779 42.8035C12.312 43.7461 12.6666 44.8894 13.6382 45.3354C16.685 46.735 20.0187 47.4654 23.4025 47.4654C27.4229 47.4654 31.3724 46.434 34.8544 44.4752C38.3361 42.5161 41.2273 39.6986 43.2377 36.3056Z" fill="#01525C"/>
<path d="M3.56535 36.304C5.23252 39.1187 7.50595 41.5374 10.2198 43.3987C11.1462 44.0339 11.9757 43.589 11.5474 42.5668C9.7232 38.2147 3.83651 27.8321 15.7943 17.0177C16.4794 16.3982 16.7054 15.4129 16.2991 14.5926L12.9119 7.75395C12.3936 6.70754 11.066 6.30478 10.0955 6.97983C7.43782 8.82845 5.20918 11.2147 3.56777 13.9845C1.55718 17.3773 0.498472 21.2261 0.498047 25.144C0.497623 29.0619 1.5555 32.9109 3.56535 36.304Z" fill="#01525C"/>
<path d="M23.4064 2.82654C20.2292 2.82586 17.0959 3.46934 14.2027 4.70578C13.0115 5.21483 13.0646 6.28804 14.3485 6.49087C19.5147 7.30699 31.1441 8.64176 34.2148 23.4476C34.4159 24.4182 35.272 25.149 36.288 25.149L44.2538 25.1504C45.387 25.1507 46.3149 24.2541 46.2139 23.1547C45.9178 19.9336 44.9058 16.8054 43.2391 13.9905C41.2296 10.5971 38.339 7.77886 34.8576 5.81918C31.3763 3.85951 27.4269 2.8274 23.4064 2.82654Z" fill="#01525C"/>
</svg>
