<svg width="260" height="48" viewBox="0 0 260 48" fill="none" xmlns="http://www.w3.org/2000/svg">
<path d="M56.895 1.03418L49.3123 12.4917H48.711L41.095 1.03418H26.2637C22.5559 1.03418 22.7563 6.24517 26.1301 6.24517H35.2493C35.4497 6.24517 35.5834 6.31197 35.7504 6.34538V4.742V4.44136L40.0929 8.78385L35.7504 13.1263V11.3559C35.5834 11.3893 35.4497 11.4561 35.2493 11.4561H13.6037C10.1631 11.4561 10.1631 16.6671 13.6037 16.6671H42.4645C42.5982 16.6671 42.665 16.7339 42.7986 16.7339V15.3644V15.0638L47.1411 19.4063L42.7986 23.7487V21.8447C42.665 21.8447 42.5982 21.9115 42.4645 21.9115H22.6895C19.2489 21.9115 19.2489 27.1225 22.6895 27.1225H38.6899H38.7233V25.5525V25.2519L43.0658 29.5944L38.7233 33.9369V32.3335H38.6899H7.82483C4.38424 32.3335 4.38424 37.5445 7.82483 37.5445H34.2138V35.8075V35.5069L38.5563 39.8493L34.2138 44.1918V42.7889H19.583C16.1758 42.7889 16.1758 47.9999 19.583 47.9999H40.6607L48.7444 35.8743H49.3457L57.4294 47.9999H71.1918L55.3584 24.0494L70.6573 1.03418H56.895ZM2.58044 21.8113C-0.860147 21.8113 -0.860147 27.0223 2.58044 27.0223H13.0692C16.5098 27.0223 16.5098 21.8113 13.0692 21.8113H2.58044Z" fill="url(#paint0_linear_1_14370)"/>
<path d="M197.225 37.7135L197.859 19.7423C198.026 15.333 195.555 11.7922 189.709 11.7922C185.266 11.7922 182.427 13.6294 180.89 15.2996L180.991 12.4269H171.571L170.702 37.7135H180.122L180.656 22.114C181.458 21.2121 182.594 20.1097 184.765 20.1097C187.003 20.1097 188.406 21.1118 188.306 23.7173L187.805 37.7135H197.225ZM213.025 47.9685C219.305 47.9685 228.39 45.9308 228.758 34.9744L229.56 12.3935H220.14L220.04 15.0658C218.069 12.6607 215.664 11.7588 213.025 11.7588C206.778 11.7588 201.768 15.9343 201.467 24.3854C201.166 33.037 206.043 37.012 212.123 37.012C214.728 37.012 217.133 36.0767 219.371 33.6048L219.338 34.9744C219.171 39.4171 215.497 40.2522 213.292 40.2522C210.553 40.2522 207.714 39.4171 205.843 37.4797L201.634 44.1938C204.874 46.8327 208.682 47.9685 213.025 47.9685ZM215.697 28.6945C213.125 28.6945 211.02 27.492 211.121 24.3854C211.221 21.2789 213.426 20.0763 215.998 20.0763C217.2 20.0763 218.971 20.6442 219.806 21.7131L219.605 27.0577C218.703 28.1266 216.9 28.6945 215.697 28.6945ZM246.495 38.3482C250.27 38.3482 254.813 37.3461 257.385 35.2082L253.711 29.396C252.408 30.4983 249.234 31.1664 247.831 31.1664C244.725 31.1664 242.955 29.5964 242.487 27.9596H259.656L259.723 26.0222C260.024 17.1034 254.512 11.7922 247.063 11.7922C238.879 11.7922 233.067 17.7047 232.833 25.0535C232.566 33.371 238.579 38.3482 246.495 38.3482ZM250.938 21.9803H242.62C242.988 20.8446 243.99 18.9406 246.863 18.9406C249.869 18.9406 250.704 20.9114 250.938 21.9803Z" fill="#4EADAA"/>
<path d="M150.759 37.7127L151.294 22.4137C151.595 13.996 145.549 11.7913 139.269 11.7913C135.461 11.7913 130.684 12.8937 127.21 15.5994L130.216 21.4116C132.254 19.875 134.96 18.9397 137.331 18.9397C140.404 18.9397 142.008 20.3093 141.941 22.0797L141.841 24.6852C140.538 22.9482 137.598 21.9127 134.291 21.9127C130.517 21.9127 125.54 23.6831 125.306 29.963C125.105 35.7084 129.949 38.2805 133.724 38.2805C136.864 38.2805 140.003 37.0112 141.473 35.2408L141.373 37.6458H150.759V37.7127ZM137.799 32.201C136.229 32.201 134.525 31.7334 134.559 30.1634C134.625 28.5934 136.362 28.059 137.932 28.059C139.402 28.059 141.006 28.5266 141.607 29.4285L141.54 30.8315C140.905 31.7334 139.269 32.201 137.799 32.201ZM161.582 10.5888C164.522 10.5888 166.96 8.21712 167.061 5.31099C167.161 2.37146 164.889 0.0332031 161.95 0.0332031C159.01 0.0332031 156.572 2.40487 156.472 5.31099C156.405 8.21712 158.676 10.5888 161.582 10.5888ZM165.357 37.7127L166.225 12.426H156.806L155.937 37.7127H165.357Z" fill="#075099"/>
<path d="M80.9123 38.3484C86.6578 38.3484 90.3322 35.6761 91.8019 33.5717L85.9229 27.8263C85.0878 28.9954 83.5846 30.0309 81.6138 30.0309C78.9415 30.0309 76.7034 28.2939 76.8037 25.0538C76.9039 21.8136 79.2755 20.1434 81.9478 20.1434C83.9521 20.1434 85.355 21.0787 86.1233 22.2812L92.4032 16.5692C91.0671 14.4314 87.5931 11.7925 81.8476 11.7925C73.8307 11.7925 67.484 17.0368 67.1834 25.0538C66.9161 33.1041 72.9288 38.3484 80.9123 38.3484ZM121.264 37.7138L121.899 19.6423C122.066 15.233 119.594 11.7925 113.748 11.7925C109.306 11.7925 106.466 13.6297 104.93 15.2998L105.364 2.77344H95.944L94.7415 37.7138H104.161L104.696 22.1142C105.497 21.2123 106.667 20.11 108.804 20.11C111.043 20.11 112.445 21.0119 112.345 23.6174L111.844 37.7138H121.264Z" fill="#4EADAA"/>
<defs>
<linearGradient id="paint0_linear_1_14370" x1="0" y1="24.517" x2="71.1918" y2="24.517" gradientUnits="userSpaceOnUse">
<stop stop-color="#0A5294"/>
<stop offset="1" stop-color="#50ACAA"/>
</linearGradient>
</defs>
</svg>
