<?xml version="1.0" encoding="UTF-8"?>
<svg xmlns="http://www.w3.org/2000/svg" width="260" height="48" viewBox="0 0 260 48" fill="none">
  <path d="M56.895 1.0343L49.3123 12.4918H48.711L41.095 1.0343H26.2637C22.5559 1.0343 22.7563 6.24529 26.1301 6.24529H35.2493C35.4497 6.24529 35.5834 6.31209 35.7504 6.3455V4.74212V4.44148L40.0929 8.78397L35.7504 13.1265V11.3561C35.5834 11.3895 35.4497 11.4563 35.2493 11.4563H13.6037C10.1631 11.4563 10.1631 16.6673 13.6037 16.6673H42.4645C42.5982 16.6673 42.665 16.7341 42.7986 16.7341V15.3645V15.0639L47.1411 19.4064L42.7986 23.7489V21.8448C42.665 21.8448 42.5982 21.9117 42.4645 21.9117H22.6895C19.2489 21.9117 19.2489 27.1226 22.6895 27.1226H38.6899H38.7233V25.5527V25.252L43.0658 29.5945L38.7233 33.937V32.3336H38.6899H7.82483C4.38424 32.3336 4.38424 37.5446 7.82483 37.5446H34.2138V35.8076V35.507L38.5563 39.8495L34.2138 44.192V42.789H19.583C16.1758 42.789 16.1758 48 19.583 48H40.6607L48.7444 35.8744H49.3457L57.4294 48H71.1918L55.3584 24.0495L70.6573 1.0343H56.895ZM2.58044 21.8114C-0.860147 21.8114 -0.860147 27.0224 2.58044 27.0224H13.0692C16.5098 27.0224 16.5098 21.8114 13.0692 21.8114H2.58044Z" fill="black"></path>
  <path d="M197.224 37.7132L197.858 19.7419C198.025 15.3326 195.554 11.7918 189.708 11.7918C185.265 11.7918 182.426 13.629 180.889 15.2992L180.99 12.4265H171.57L170.701 37.7132H180.121L180.655 22.1136C181.457 21.2117 182.593 20.1094 184.764 20.1094C187.002 20.1094 188.405 21.1115 188.305 23.717L187.804 37.7132H197.224ZM213.024 47.9681C219.304 47.9681 228.389 45.9305 228.757 34.974L229.559 12.3931H220.139L220.039 15.0654C218.068 12.6603 215.663 11.7584 213.024 11.7584C206.777 11.7584 201.767 15.9339 201.466 24.385C201.165 33.0366 206.042 37.0117 212.122 37.0117C214.727 37.0117 217.132 36.0764 219.37 33.6045L219.337 34.974C219.17 39.4167 215.496 40.2518 213.291 40.2518C210.552 40.2518 207.713 39.4167 205.842 37.4793L201.633 44.1935C204.873 46.8324 208.681 47.9681 213.024 47.9681ZM215.696 28.6941C213.124 28.6941 211.02 27.4916 211.12 24.385C211.22 21.2785 213.425 20.076 215.997 20.076C217.199 20.076 218.97 20.6438 219.805 21.7127L219.604 27.0573C218.702 28.1263 216.899 28.6941 215.696 28.6941ZM246.494 38.3478C250.269 38.3478 254.812 37.3457 257.384 35.2079L253.71 29.3956C252.407 30.4979 249.233 31.166 247.83 31.166C244.724 31.166 242.954 29.596 242.486 27.9592H259.655L259.722 26.0218C260.023 17.103 254.511 11.7918 247.062 11.7918C238.878 11.7918 233.066 17.7043 232.832 25.0531C232.565 33.3707 238.578 38.3478 246.494 38.3478ZM250.937 21.98H242.619C242.987 20.8442 243.989 18.9402 246.862 18.9402C249.868 18.9402 250.703 20.911 250.937 21.98Z" fill="black"></path>
  <path d="M150.76 37.7128L151.295 22.4138C151.596 13.9961 145.549 11.7914 139.27 11.7914C135.462 11.7914 130.685 12.8938 127.211 15.5995L130.217 21.4117C132.255 19.8752 134.96 18.9399 137.332 18.9399C140.405 18.9399 142.009 20.3094 141.942 22.0798L141.842 24.6853C140.539 22.9483 137.599 21.9128 134.292 21.9128C130.518 21.9128 125.541 23.6832 125.307 29.9631C125.106 35.7085 129.95 38.2806 133.725 38.2806C136.865 38.2806 140.004 37.0113 141.474 35.2409L141.374 37.646H150.76V37.7128ZM137.8 32.2012C136.23 32.2012 134.526 31.7335 134.56 30.1635C134.626 28.5935 136.363 28.0591 137.933 28.0591C139.403 28.0591 141.007 28.5267 141.608 29.4286L141.541 30.8316C140.906 31.7335 139.27 32.2012 137.8 32.2012ZM161.583 10.5889C164.523 10.5889 166.961 8.21724 167.062 5.31112C167.162 2.37158 164.89 0.0333252 161.951 0.0333252C159.011 0.0333252 156.573 2.40499 156.473 5.31112C156.406 8.21724 158.677 10.5889 161.583 10.5889ZM165.358 37.7128L166.226 12.4261H156.807L155.938 37.7128H165.358Z" fill="black"></path>
  <path d="M80.9133 38.3483C86.6588 38.3483 90.3332 35.676 91.8029 33.5716L85.9239 27.8261C85.0888 28.9953 83.5856 30.0308 81.6148 30.0308C78.9425 30.0308 76.7044 28.2938 76.8046 25.0536C76.9048 21.8135 79.2765 20.1433 81.9488 20.1433C83.953 20.1433 85.356 21.0786 86.1243 22.2811L92.4042 16.5691C91.068 14.4312 87.5941 11.7923 81.8486 11.7923C73.8317 11.7923 67.485 17.0367 67.1844 25.0536C66.9171 33.1039 72.9298 38.3483 80.9133 38.3483ZM121.265 37.7137L121.9 19.6422C122.067 15.2329 119.595 11.7923 113.749 11.7923C109.307 11.7923 106.467 13.6295 104.931 15.2997L105.365 2.77332H95.945L94.7425 37.7137H104.162L104.697 22.1141C105.498 21.2122 106.668 20.1099 108.805 20.1099C111.044 20.1099 112.446 21.0118 112.346 23.6173L111.845 37.7137H121.265Z" fill="black"></path>
</svg>
